{
.appVersion = "1187";
DisplayStrings = (
"T=-/hyphen.case ­",
VA
);
classes = (
{
automatic = 1;
code = "A B C D E F G H I J K L M N O P Q R S T U V W X Y Z Agrave Aacute Acircumflex Atilde Amacron Abreve Adieresis Aring Aogonek AE Cacute Ccircumflex Cdotaccent Ccaron Ccedilla Dcaron Dcroat Egrave Eacute Ecircumflex Emacron Ebreve Edotaccent Edieresis Ecaron Eogonek Gcircumflex Gbreve Gdotaccent Gcommaaccent Hcircumflex Hbar Igrave Iacute Icircumflex Itilde Imacron Ibreve Idotaccent Idieresis Iogonek IJ Jcircumflex Kcommaaccent Lacute Lcommaaccent Lcaron Ldot Lslash Nacute Ntilde Ncaron Eng Ncommaaccent Ograve Oacute Ocircumflex Otilde Omacron Obreve Odieresis Ohungarumlaut Oslash OE Racute Rcaron Rcommaaccent Sacute Scircumflex Scaron Scommaaccent Scedilla Germandbls Tcaron Tcommaaccent Tcedilla Tbar Ugrave Uacute Ucircumflex Utilde Umacron Ubreve Udieresis Uring Uhungarumlaut Uogonek Wgrave Wacute Wcircumflex Wdieresis Ygrave Yacute Ycircumflex Ydieresis Zacute Zdotaccent Zcaron Eth Thorn Germandbls.c2sc Q.ss02";
name = Uppercase;
}
);
copyright = "Copyright (c) 2011 by Anna Giedrys. All rights reserved. Reserved Font Name: Signika.";
customParameters = (
{
name = trademark;
value = "Signika Light is a trademark of Anna Giedrys.";
},
{
name = openTypeOS2Type;
value = (
2
);
},
{
name = glyphOrder;
value = (
.notdef,
NULL,
CR,
space,
nbspace,
A,
B,
C,
D,
E,
F,
G,
H,
I,
J,
K,
L,
M,
N,
O,
P,
Q,
R,
S,
T,
U,
V,
W,
X,
Y,
Z,
a,
b,
c,
d,
e,
f,
g,
h,
i,
j,
k,
l,
m,
n,
o,
p,
q,
r,
s,
t,
u,
v,
w,
x,
y,
z,
a.smcp,
b.smcp,
c.smcp,
d.smcp,
e.smcp,
f.smcp,
g.smcp,
h.smcp,
i.smcp,
j.smcp,
k.smcp,
l.smcp,
m.smcp,
n.smcp,
o.smcp,
p.smcp,
q.smcp,
r.smcp,
s.smcp,
t.smcp,
u.smcp,
v.smcp,
w.smcp,
x.smcp,
y.smcp,
z.smcp,
quotesingle,
quotedbl,
numbersign,
ampersand,
asterisk,
comma,
hyphen,
hyphen.case,
softhyphen,
period,
colon,
semicolon,
question,
exclam,
questiondown,
exclamdown,
at,
parenleft,
parenright,
bracketleft,
bracketright,
braceleft,
braceright,
backslash,
slash,

glyphs = (
{
glyphname = A;
lastChange = "2018-12-12 17:56:20 +0000";
layers = (
{
anchors = (
{
name = bottom_U;
position = "{597.65, -40}";
},
{
name = top_U;
position = "{596.7, 1464}";
}
);
layerId = "4A173D0E-7CF5-44A8-8AF0-8145C41E8E72";
paths = (
{
closed = 1;
nodes = (
"52 8.9 LINE",
"56.4 2.3 LINE",
"79.2 -4.1 OFFCURVE",
"100 -8.3 OFFCURVE",
"131 -8.3 CURVE SMOOTH",
"154.5 -8.3 OFFCURVE",
"179.7 -6.3 OFFCURVE",
"198.9 -2 CURVE",
"514.5 962.5 LINE SMOOTH",
"531.3 1015.7 OFFCURVE",
"562.2 1122.8 OFFCURVE",
"582.2 1200.7 CURVE",
"592.3 1200.7 LINE",
"616.8 1110.3 OFFCURVE",
"655.2 984 OFFCURVE",
"694.7 866.3 CURVE SMOOTH",
"957.8 67.1 LINE SMOOTH",
"978.8 4.8 OFFCURVE",
"1000.5 -12.3 OFFCURVE",
"1049.5 -12.3 CURVE SMOOTH",
"1086.8 -12.3 OFFCURVE",
"1117.6 -5.9 OFFCURVE",
"1140.8 8.7 CURVE",
"682.4 1365.9 LINE",
"664.5 1370.2 OFFCURVE",
"622.2 1372.3 OFFCURVE",
"598.6 1372.3 CURVE SMOOTH",
"573 1372.3 OFFCURVE",
"532.7 1370.2 OFFCURVE",
"509.1 1366 CURVE"
);
},
{
closed = 1;
nodes = (
"722.6 354.1 LINE SMOOTH",
"735.5 354.1 OFFCURVE",
"860.9 356.1 OFFCURVE",
"875.7 356.1 CURVE",
"935.9 356.1 LINE",
"891.8 486.9 LINE",
"838.1 486.9 LINE",
"823.3 486.9 OFFCURVE",
"716.9 488.9 OFFCURVE",
"704 488.9 CURVE SMOOTH",
"474.8 488.9 LINE SMOOTH",
"461.9 488.9 OFFCURVE",
"359.3 486.9 OFFCURVE",
"344.5 486.9 CURVE",
"291.1 486.9 LINE",
"242.3 356.1 LINE",
"302.5 356.1 LINE",
"317.3 356.1 OFFCURVE",
"440.8 354.1 OFFCURVE",
"453.7 354.1 CURVE SMOOTH"
);
}
);
width = 1193.75;
},
{
anchors = (
{
name = bottom_U;
position = "{643.76, -40}";
},
{
name = top_U;
position = "{643.68, 1464}";
}
);
layerId = "6BD0978F-C27A-4FE6-8A6F-902073A9F586";
paths = (
{
closed = 1;
nodes = (
"17.2 24.56 LINE",
"28.56 7.52 LINE",
"65.28 -5.84 OFFCURVE",
"134.8 -13.52 OFFCURVE",
"183.2 -13.52 CURVE SMOOTH",
"232.8 -13.52 OFFCURVE",
"278.88 -11.52 OFFCURVE",
"318.96 -2 CURVE",
"523.2 692.8 LINE SMOOTH",
"553.92 801.68 OFFCURVE",
"600.48 962.72 OFFCURVE",
"620.48 1073.68 CURVE",
"632.32 1073.68 LINE",
"665.52 941.52 OFFCURVE",
"710.88 775.2 OFFCURVE",
"741.68 662.72 CURVE SMOOTH",
"884.72 155.84 LINE SMOOTH",
"923.12 18.72 OFFCURVE",
"974.4 -17.52 OFFCURVE",
"1075.6 -17.52 CURVE SMOOTH",
"1135.52 -17.52 OFFCURVE",
"1215.04 -4.16 OFFCURVE",
"1259.12 20.88 CURVE",
"828.56 1364.16 LINE",
"777.6 1373.68 OFFCURVE",
"695.28 1377.52 OFFCURVE",
"643.84 1377.52 CURVE SMOOTH",
"590.4 1377.52 OFFCURVE",
"510.08 1373.68 OFFCURVE",
"458.64 1366 CURVE"
);
},
{
closed = 1;
nodes = (
"767.84 286.24 LINE SMOOTH",
"796.4 286.24 OFFCURVE",
"841.76 288.24 OFFCURVE",
"870.48 288.24 CURVE",
"1038.56 288.24 LINE",
"957.92 537.36 LINE",
"805.04 537.36 LINE",
"776.32 537.36 OFFCURVE",
"732.56 539.36 OFFCURVE",
"704 539.36 CURVE SMOOTH",
"558.32 539.36 LINE SMOOTH",
"529.76 539.36 OFFCURVE",
"486.32 537.36 OFFCURVE",
"457.6 537.36 CURVE",
"310.24 537.36 LINE",
"212.72 288.24 LINE",
"380.8 288.24 LINE",
"409.52 288.24 OFFCURVE",
"454.72 286.24 OFFCURVE",
"483.28 286.24 CURVE SMOOTH"
);
}
);
width = 1276.4;
}
);
leftKerningGroup = A;
rightKerningGroup = A;
unicode = 0041;
},
{
glyphname = B;
lastChange = "2018-12-12 17:56:20 +0000";
layers = (
{
anchors = (
{
name = bottom_U;
position = "{590.4, -40}";
},
{
name = top_U;
position = "{557.3, 1464}";
}
);
layerId = "4A173D0E-7CF5-44A8-8AF0-8145C41E8E72";
paths = (
{
closed = 1;
nodes = (
"197.4 1354.1 LINE",
"197.4 11.9 LINE",
"209.5 -0.2 LINE",
"349.3 -2.3 OFFCURVE",
"456.7 -6.3 OFFCURVE",
"622.1 -6.3 CURVE SMOOTH",
"969.7 -6.3 OFFCURVE",
"1086.2 185.8 OFFCURVE",
"1086.2 376.9 CURVE SMOOTH",
"1086.2 589.4 OFFCURVE",
"915.6 738.3 OFFCURVE",
"747.9 738.8 CURVE",
"747.9 710.6 LINE",
"914 728.5 OFFCURVE",
"1020.3 856.6 OFFCURVE",
"1020.3 1012.1 CURVE SMOOTH",
"1020.3 1222.5 OFFCURVE",
"904.1 1372.3 OFFCURVE",
"599.6 1372.3 CURVE SMOOTH",
"472.7 1372.3 OFFCURVE",
"348.7 1368.3 OFFCURVE",
"209.5 1366.2 CURVE"
);
},
{
closed = 1;
nodes = (
"350.7 1246.6 LINE",
"423.4 1244.6 OFFCURVE",
"536.3 1244.6 OFFCURVE",
"602.5 1244.6 CURVE SMOOTH",
"821.6 1244.6 OFFCURVE",
"859.6 1123 OFFCURVE",
"859.6 1014.7 CURVE SMOOTH",
"859.6 910.2 OFFCURVE",
"814.1 782.7 OFFCURVE",
"596.8 782.7 CURVE SMOOTH",
"287.4 782.7 LINE",
"287.4 653.1 LINE",
"615.1 653.1 LINE SMOOTH",
"860.2 653.1 OFFCURVE",
"925 494 OFFCURVE",
"925 387.1 CURVE SMOOTH",
"925 276.6 OFFCURVE",
"879.4 121.3 OFFCURVE",
"634.1 121.3 CURVE SMOOTH",
"541 121.3 OFFCURVE",
"445 119.4 OFFCURVE",
"350.7 119.3 CURVE"
);
}
);
width = 1199.7;
},
{
anchors = (
{
name = bottom_U;
position = "{597.36, -40}";
},
{
name = top_U;
position = "{579.92, 1464}";
}
);
layerId = "6BD0978F-C27A-4FE6-8A6F-902073A9F586";
paths = (
{
closed = 1;
nodes = (
"152.16 1355.84 LINE",
"152.16 10.16 LINE",
"166 -3.68 LINE",
"337.12 -7.52 OFFCURVE",
"503.68 -11.52 OFFCURVE",
"658.64 -11.52 CURVE SMOOTH",
"964.48 -11.52 OFFCURVE",
"1159.28 112.72 OFFCURVE",
"1159.28 392.56 CURVE SMOOTH",
"1159.28 578.96 OFFCURVE",
"1013.04 743.52 OFFCURVE",
"850.56 752.72 CURVE",
"850.56 721.04 LINE",
"983.6 737.2 OFFCURVE",
"1095.12 867.04 OFFCURVE",
"1095.12 1013.84 CURVE SMOOTH",
"1095.12 1266 OFFCURVE",
"905.84 1377.52 OFFCURVE",
"627.44 1377.52 CURVE SMOOTH",
"484.88 1377.52 OFFCURVE",
"326.08 1373.52 OFFCURVE",
"166 1369.68 CURVE"
);
},
{
closed = 1;
nodes = (
"467.28 1152.64 LINE",
"517.36 1150.64 OFFCURVE",
"576.32 1150.64 OFFCURVE",
"611.2 1150.64 CURVE SMOOTH",
"745.04 1150.64 OFFCURVE",
"783.04 1070.8 OFFCURVE",
"783.04 992.08 CURVE SMOOTH",
"783.04 913.68 OFFCURVE",
"746.24 829.68 OFFCURVE",
"610.72 829.68 CURVE SMOOTH",
"346.56 829.68 LINE",
"346.56 602.64 LINE",
"634.24 602.64 LINE SMOOTH",
"794.08 602.64 OFFCURVE",
"838 494 OFFCURVE",
"838 406.24 CURVE SMOOTH",
"838 321.84 OFFCURVE",
"799.36 213.52 OFFCURVE",
"635.84 213.52 CURVE SMOOTH",
"593.2 213.52 OFFCURVE",
"532 213.36 OFFCURVE",
"467.28 211.52 CURVE"
);
}
);
width = 1229.28;
}
);
unicode = 0042;
},
{
glyphname = C;
lastChange = "2018-12-12 17:56:20 +0000";
layers = (
{
anchors = (
{
name = bottom_U;
position = "{633.2, -40}";
},
{
name = top_U;
position = "{636.9, 1466}";
}
);
layerId = "4A173D0E-7CF5-44A8-8AF0-8145C41E8E72";
paths = (
{
closed = 1;
nodes = (
"979.7 925.5 OFFCURVE",
"994.9 923.2 OFFCURVE",
"1020.1 923.2 CURVE SMOOTH",
"1090.6 923.2 OFFCURVE",
"1105.7 969.5 OFFCURVE",
"1105.7 1014.1 CURVE SMOOTH",
"1105.7 1197.1 OFFCURVE",
"930.1 1390.4 OFFCURVE",
"640.9 1390.4 CURVE SMOOTH",
"358.8 1390.4 OFFCURVE",
"113.6 1170.6 OFFCURVE",
"113.6 676.1 CURVE SMOOTH",
"113.6 315.1 OFFCURVE",
"253.1 -24.3 OFFCURVE",
"616.4 -24.3 CURVE SMOOTH",
"811.9 -24.3 OFFCURVE",
"982.1 60.5 OFFCURVE",
"1088.6 168.8 CURVE",
"1076.5 205 OFFCURVE",
"1042.4 245.8 OFFCURVE",
"1005 268.9 CURVE",
"877 157.5 OFFCURVE",
"755.7 110 OFFCURVE",
"638.5 110 CURVE SMOOTH",
"413.4 110 OFFCURVE",
"275.6 320.1 OFFCURVE",
"275.6 676 CURVE SMOOTH",
"275.6 1059.4 OFFCURVE",
"407.8 1261.2 OFFCURVE",
"640.3 1261.2 CURVE SMOOTH",
"876.9 1261.2 OFFCURVE",
"955.1 1076.9 OFFCURVE",
"951.1 933.6 CURVE"
);
}
);
width = 1201;
},
{
anchors = (
{
name = bottom_U;
position = "{654.08, -40}";
},
{
name = top_U;
position = "{652.56, 1466}";
}
);
layerId = "6BD0978F-C27A-4FE6-8A6F-902073A9F586";
paths = (
{
closed = 1;
nodes = (
"904.88 812.4 OFFCURVE",
"940.96 804.88 OFFCURVE",
"987.04 804.88 CURVE SMOOTH",
"1101.04 804.88 OFFCURVE",
"1170.08 856.4 OFFCURVE",
"1170.08 981.04 CURVE SMOOTH",
"1170.08 1216.24 OFFCURVE",
"966.64 1397.36 OFFCURVE",
"656.56 1397.36 CURVE SMOOTH",
"337.92 1397.36 OFFCURVE",
"71.84 1181.04 OFFCURVE",
"71.84 677.84 CURVE SMOOTH",
"71.84 334.24 OFFCURVE",
"202.64 -29.52 OFFCURVE",
"623.36 -29.52 CURVE SMOOTH",
"844.96 -29.52 OFFCURVE",
"1053.44 69.2 OFFCURVE",
"1168.64 182.72 CURVE",
"1154.8 257.2 OFFCURVE",
"1084.16 346.72 OFFCURVE",
"1022.4 388.96 CURVE",
"929.2 322.8 OFFCURVE",
"820.08 249.2 OFFCURVE",
"682 249.2 CURVE SMOOTH",
"507.36 249.2 OFFCURVE",
"407.84 391.44 OFFCURVE",
"407.84 676 CURVE SMOOTH",
"407.84 979.36 OFFCURVE",
"473.92 1142.88 OFFCURVE",
"645.52 1142.88 CURVE SMOOTH",
"822.96 1142.88 OFFCURVE",
"869.84 988.16 OFFCURVE",
"865.84 822.24 CURVE"
);
}
);
width = 1218.4;
}
);
leftKerningGroup = C;
rightKerningGroup = C;
unicode = 0043;
},
{
glyphname = D;
lastChange = "2018-12-12 17:56:20 +0000";
layers = (
{
anchors = (
{
name = bottom_U;
position = "{623.1, -40}";
},
{
name = top_U;
position = "{604.1, 1464}";
}
);
layerId = "4A173D0E-7CF5-44A8-8AF0-8145C41E8E72";
paths = (
{
closed = 1;
nodes = (
"1157.9 914.1 OFFCURVE",
"1125.7 1122.4 OFFCURVE",
"952.8 1270.4 CURVE SMOOTH",
"868.4 1342.4 OFFCURVE",
"717.6 1372.3 OFFCURVE",
"615.1 1372.3 CURVE",
"458.2 1372.3 OFFCURVE",
"383.4 1372.2 OFFCURVE",
"209.5 1366.2 CURVE",
"197.4 1354.1 LINE",
"197.4 11.9 LINE",
"209.5 -0.2 LINE",
"383.5 -4.2 OFFCURVE",
"458.2 -8.2 OFFCURVE",
"615.1 -8.2 CURVE",
"717.6 -8.2 OFFCURVE",
"868.4 21.7 OFFCURVE",
"952.8 93.7 CURVE SMOOTH",
"1127.7 241.7 OFFCURVE",
"1157.9 448.1 OFFCURVE",
"1157.9 682.1 CURVE SMOOTH"
);
},
{
closed = 1;
nodes = (
"996.3 425.2 OFFCURVE",
"947.2 120.7 OFFCURVE",
"613.2 120.7 CURVE SMOOTH",
"520.6 120.7 OFFCURVE",
"453.1 122.6 OFFCURVE",
"350.9 122.5 CURVE",
"350.9 1245.4 LINE",
"453.1 1245.3 OFFCURVE",
"520.6 1243.4 OFFCURVE",
"613.2 1243.4 CURVE SMOOTH",
"947.2 1243.4 OFFCURVE",
"996.3 940.9 OFFCURVE",
"996.3 682.1 CURVE"
);
}
);
width = 1275.4;
},
{
anchors = (
{
name = bottom_U;
position = "{642.24, -40}";
},
{
name = top_U;
position = "{640.64, 1464}";
}
);
layerId = "6BD0978F-C27A-4FE6-8A6F-902073A9F586";
paths = (
{
closed = 1;
nodes = (
"1260.56 915.84 OFFCURVE",
"1224.88 1129.36 OFFCURVE",
"1036.32 1277.36 CURVE SMOOTH",
"944.96 1349.36 OFFCURVE",
"780.24 1377.52 OFFCURVE",
"669.04 1377.52 CURVE",
"496.48 1377.52 OFFCURVE",
"338.16 1375.68 OFFCURVE",
"166 1369.68 CURVE",
"152.16 1355.84 LINE",
"152.16 10.16 LINE",
"166 -3.68 LINE",
"340 -7.68 OFFCURVE",
"496.48 -11.68 OFFCURVE",
"669.04 -11.68 CURVE",
"780.24 -11.68 OFFCURVE",
"944.96 16.48 OFFCURVE",
"1036.32 88.48 CURVE SMOOTH",
"1226.88 236.48 OFFCURVE",
"1260.56 449.84 OFFCURVE",
"1260.56 683.84 CURVE SMOOTH"
);
},
{
closed = 1;
nodes = (
"931.92 480.88 OFFCURVE",
"898.48 237.28 OFFCURVE",
"668.88 237.28 CURVE SMOOTH",
"600.64 237.28 OFFCURVE",
"541.84 237.44 OFFCURVE",
"470.96 235.6 CURVE",
"470.96 1130.56 LINE",
"541.84 1128.72 OFFCURVE",
"600.64 1128.56 OFFCURVE",
"668.88 1128.56 CURVE SMOOTH",
"898.48 1128.56 OFFCURVE",
"931.92 886.96 OFFCURVE",
"931.92 683.84 CURVE"
);
}
);
width = 1334.56;
}
);
rightKerningGroup = D;
unicode = 0044;
},
{
glyphname = E;
lastChange = "2018-12-12 17:56:20 +0000";
layers = (
{
anchors = (
{
name = bottom_U;
position = "{604, -40}";
},
{
name = top_U;
position = "{598, 1464}";
}
);
layerId = "4A173D0E-7CF5-44A8-8AF0-8145C41E8E72";
paths = (
{
closed = 1;
nodes = (
"197.3 100.6 LINE",
"197.3 37.6 OFFCURVE",
"231.3 -0.3 OFFCURVE",
"284.8 -0.3 CURVE SMOOTH",
"344.9 -0.3 LINE",
"344.9 127.6 LINE SMOOTH",
"344.9 157 OFFCURVE",
"346.9 178 OFFCURVE",
"346.9 205.4 CURVE SMOOTH",
"346.9 1111 LINE",
"346.9 1165 OFFCURVE",
"344.9 1184.1 OFFCURVE",
"344.9 1240.1 CURVE SMOOTH",
"344.9 1366 LINE",
"209.4 1366 LINE",
"197.3 1353.9 LINE"
);
},
{
closed = 1;
nodes = (
"465.8 757.4 LINE SMOOTH",
"421.5 757.4 OFFCURVE",
"351.9 755.4 OFFCURVE",
"293.6 755.3 CURVE",
"293.6 628.1 LINE",
"351.9 628 OFFCURVE",
"421.5 626 OFFCURVE",
"465.8 626 CURVE SMOOTH",
"879.6 626 LINE",
"884.1 649 OFFCURVE",
"886.3 674.6 OFFCURVE",
"886.3 691.7 CURVE SMOOTH",
"886.3 708.7 OFFCURVE",
"884.1 734.5 OFFCURVE",
"879.6 757.4 CURVE"
);
},
{
closed = 1;
nodes = (
"293.6 1366 LINE",
"293.6 1236.3 LINE",
"351.9 1234.3 OFFCURVE",
"421.5 1234.2 OFFCURVE",
"465.8 1234.2 CURVE SMOOTH",
"976 1234.2 LINE",
"984.5 1257.6 OFFCURVE",
"986.9 1287.2 OFFCURVE",
"986.9 1304.3 CURVE SMOOTH",
"986.9 1321.4 OFFCURVE",
"986.8 1342.6 OFFCURVE",
"982.5 1366 CURVE"
);
},
{
closed = 1;
nodes = (
"468.3 133.4 LINE",
"394.9 133.4 OFFCURVE",
"345.6 129.3 OFFCURVE",
"293.6 125.3 CURVE",
"293.6 -0.3 LINE",
"913.3 -0.3 LINE SMOOTH",
"966.9 -0.3 OFFCURVE",
"1002.9 21.5 OFFCURVE",
"1011.4 70.5 CURVE SMOOTH",
"1015.5 91.5 OFFCURVE",
"1015.5 120.6 OFFCURVE",
"1015.5 133.4 CURVE"
);
}
);
width = 1125.2;
},
{
anchors = (
{
name = bottom_U;
position = "{604, -40}";
},
{
name = top_U;
position = "{598, 1464}";
}
);
layerId = "6BD0978F-C27A-4FE6-8A6F-902073A9F586";
paths = (
{
closed = 1;
nodes = (
"150.32 180.64 LINE",
"150.32 65.44 OFFCURVE",
"219.12 -5.52 OFFCURVE",
"333.52 -5.52 CURVE SMOOTH",
"464.96 -5.52 LINE",
"464.96 259.84 LINE SMOOTH",
"464.96 313.6 OFFCURVE",
"466.96 352 OFFCURVE",
"466.96 403.76 CURVE SMOOTH",
"466.96 954.4 LINE",
"466.96 1008.4 OFFCURVE",
"464.96 1046.64 OFFCURVE",
"464.96 1102.64 CURVE SMOOTH",
"464.96 1366 LINE",
"164.16 1366 LINE",
"150.32 1352.16 LINE"
);
},
{
closed = 1;
nodes = (
"601.52 816.56 LINE SMOOTH",
"552 816.56 OFFCURVE",
"419.76 814.56 OFFCURVE",
"356.24 812.72 CURVE",
"356.24 560.24 LINE",
"419.76 558.4 OFFCURVE",
"552 556.4 OFFCURVE",
"601.52 556.4 CURVE SMOOTH",
"907.44 556.4 LINE",
"920.64 596.8 OFFCURVE",
"926.32 650.24 OFFCURVE",
"926.32 686.48 CURVE SMOOTH",
"926.32 720.88 OFFCURVE",
"920.64 778 OFFCURVE",
"907.44 816.56 CURVE"
);
},
{
closed = 1;
nodes = (
"356.24 1366 LINE",
"356.24 1102.32 LINE",
"419.76 1100.32 OFFCURVE",
"552 1098.48 OFFCURVE",
"601.52 1098.48 CURVE SMOOTH",
"1010.8 1098.48 LINE",
"1028 1146.24 OFFCURVE",
"1037.36 1203.68 OFFCURVE",
"1037.36 1239.92 CURVE SMOOTH",
"1037.36 1276.16 OFFCURVE",
"1035.52 1318.24 OFFCURVE",
"1026 1366 CURVE"
);
},
{
closed = 1;
nodes = (
"612.72 262.16 LINE",
"514.96 262.16 OFFCURVE",
"443.04 256.32 OFFCURVE",
"356.24 252.32 CURVE",
"356.24 -5.52 LINE",
"866.32 -5.52 LINE SMOOTH",
"982.56 -5.52 OFFCURVE",
"1053.36 47.6 OFFCURVE",
"1070.56 148.8 CURVE SMOOTH",
"1076.4 187.2 OFFCURVE",
"1076.4 235.44 OFFCURVE",
"1076.4 262.16 CURVE"
);
}
);
width = 1146.08;
}
);
rightKerningGroup = E;
unicode = 0045;
},
{
glyphname = F;
lastChange = "2018-12-12 17:56:20 +0000";
layers = (
{
anchors = (
{
name = bottom_U;
position = "{272.5, -40}";
},
{
name = top_U;
position = "{597.6, 1464}";
}
);
layerId = "4A173D0E-7CF5-44A8-8AF0-8145C41E8E72";
paths = (
{
closed = 1;
nodes = (
"351 956.9 LINE SMOOTH",
"351 1055.3 OFFCURVE",
"349 1156.2 OFFCURVE",
"349 1254.9 CURVE SMOOTH",
"349 1366 LINE",
"209.5 1366 LINE",
"197.4 1354 LINE",
"197.4 0 LINE",
"217.4 -4.3 OFFCURVE",
"245.5 -6.3 OFFCURVE",
"272.5 -6.3 CURVE SMOOTH",
"301.4 -6.3 OFFCURVE",
"329.1 -4.3 OFFCURVE",
"351 0 CURVE"
);
},
{
closed = 1;
nodes = (
"292.7 1366 LINE",
"292.7 1239.8 LINE",
"361.8 1234.1 OFFCURVE",
"451.6 1232.1 OFFCURVE",
"566.7 1232.1 CURVE SMOOTH",
"884.8 1232.1 LINE SMOOTH",
"947.8 1232.1 OFFCURVE",
"977.3 1253.4 OFFCURVE",
"977.3 1302.6 CURVE SMOOTH",
"977.3 1323.5 OFFCURVE",
"973.3 1347.1 OFFCURVE",
"967.1 1366 CURVE"
);
},
{
closed = 1;
nodes = (
"460.9 757.1 LINE SMOOTH",
"416.2 757.1 OFFCURVE",
"350.3 755.1 OFFCURVE",
"293.3 755 CURVE",
"293.3 627.7 LINE",
"350.3 627.6 OFFCURVE",
"416.2 625.6 OFFCURVE",
"460.9 625.6 CURVE SMOOTH",
"869.7 625.6 LINE",
"874.1 648.5 OFFCURVE",
"876.3 674.3 OFFCURVE",
"876.3 691.4 CURVE SMOOTH",
"876.3 708.4 OFFCURVE",
"874.1 734.3 OFFCURVE",
"869.7 757.1 CURVE"
);
}
);
width = 1028.4;
},
{
anchors = (
{
name = bottom_U;
position = "{316, -40}";
},
{
name = top_U;
position = "{590.64, 1464}";
}
);
layerId = "6BD0978F-C27A-4FE6-8A6F-902073A9F586";
paths = (
{
closed = 1;
nodes = (
"472.8 937.76 LINE SMOOTH",
"472.8 1043.12 OFFCURVE",
"470.8 1159.68 OFFCURVE",
"470.8 1270.56 CURVE SMOOTH",
"470.8 1366 LINE",
"166 1366 LINE",
"152.16 1354 LINE",
"152.16 0 LINE",
"206.96 -9.52 OFFCURVE",
"271.6 -11.52 OFFCURVE",
"316 -11.52 CURVE SMOOTH",
"360.56 -11.52 OFFCURVE",
"417.84 -9.52 OFFCURVE",
"472.8 0 CURVE"
);
},
{
closed = 1;
nodes = (
"339.68 1366 LINE",
"339.68 1097.12 LINE",
"427.92 1096.64 OFFCURVE",
"514.24 1094.64 OFFCURVE",
"613.68 1094.64 CURVE SMOOTH",
"863.92 1094.64 LINE SMOOTH",
"979.12 1094.64 OFFCURVE",
"1034.72 1138.56 OFFCURVE",
"1034.72 1243.44 CURVE SMOOTH",
"1034.72 1280 OFFCURVE",
"1030.72 1331.44 OFFCURVE",
"1021.04 1366 CURVE"
);
},
{
closed = 1;
nodes = (
"511.36 811.04 LINE SMOOTH",
"454.48 811.04 OFFCURVE",
"390.32 809.04 OFFCURVE",
"350.72 807.2 CURVE",
"350.72 552.88 LINE",
"390.32 551.04 OFFCURVE",
"454.48 549.04 OFFCURVE",
"511.36 549.04 CURVE SMOOTH",
"899.28 549.04 LINE",
"910.64 587.6 OFFCURVE",
"916.32 644.72 OFFCURVE",
"916.32 680.96 CURVE SMOOTH",
"916.32 715.36 OFFCURVE",
"910.64 774.32 OFFCURVE",
"899.28 811.04 CURVE"
);
}
);
width = 1070.16;
}
);
unicode = 0046;
},
{
glyphname = G;
lastChange = "2018-12-12 17:56:20 +0000";
layers = (
{
anchors = (
{
name = bottom_U;
position = "{671, -40}";
},
{
name = top_U;
position = "{683, 1464}";
}
);
layerId = "4A173D0E-7CF5-44A8-8AF0-8145C41E8E72";
paths = (
{
closed = 1;
nodes = (
"1020.6 1334.2 OFFCURVE",
"844.8 1390.3 OFFCURVE",
"683 1390.3 CURVE SMOOTH",
"403 1390.3 OFFCURVE",
"113.6 1194 OFFCURVE",
"113.6 674 CURVE SMOOTH",
"113.6 330.9 OFFCURVE",
"243.4 -24.3 OFFCURVE",
"659 -24.3 CURVE SMOOTH",
"843.2 -24.3 OFFCURVE",
"1012.4 14 OFFCURVE",
"1134.1 63.4 CURVE",
"1056.9 186.9 LINE",
"990.8 155.6 OFFCURVE",
"865.9 110.4 OFFCURVE",
"686.6 110.4 CURVE SMOOTH",
"414 110.4 OFFCURVE",
"275.1 301.4 OFFCURVE",
"275.1 672 CURVE SMOOTH",
"275.1 1107.4 OFFCURVE",
"465.3 1253 OFFCURVE",
"672.9 1253 CURVE SMOOTH",
"820.9 1253 OFFCURVE",
"950.6 1201.5 OFFCURVE",
"1050.5 1122.3 CURVE",
"1082.4 1143.5 OFFCURVE",
"1120.3 1188.5 OFFCURVE",
"1132 1240.7 CURVE"
);
},
{
closed = 1;
nodes = (
"983.5 59.4 LINE",
"1059.5 61.4 OFFCURVE",
"1076 59.4 OFFCURVE",
"1134.1 63.4 CURVE",
"1134.1 581.8 LINE",
"998.3 630.2 LINE",
"987.5 583.7 OFFCURVE",
"983.5 520.8 OFFCURVE",
"983.5 428.7 CURVE"
);
},
{
closed = 1;
nodes = (
"710.3 687.1 LINE",
"703.9 668 OFFCURVE",
"697.7 638.7 OFFCURVE",
"697.7 621.3 CURVE SMOOTH",
"697.7 572.4 OFFCURVE",
"721.1 549.7 OFFCURVE",
"768.4 549.7 CURVE SMOOTH",
"869.2 549.7 OFFCURVE",
"1019.5 551.7 OFFCURVE",
"1134.1 553.7 CURVE",
"1134.1 581.8 LINE SMOOTH",
"1134.1 654.3 OFFCURVE",
"1102.9 687.3 OFFCURVE",
"1014.8 687.2 CURVE SMOOTH"
);
}
);
width = 1274;
},
{
anchors = (
{
name = bottom_U;
position = "{688.4, -40}";
},
{
name = top_U;
position = "{700.4, 1464}";
}
);
layerId = "6BD0978F-C27A-4FE6-8A6F-902073A9F586";
paths = (
{
closed = 1;
nodes = (
"1065.84 1337.68 OFFCURVE",
"893.52 1395.52 OFFCURVE",
"700.4 1395.52 CURVE SMOOTH",
"385.6 1395.52 OFFCURVE",
"71.84 1159.2 OFFCURVE",
"71.84 674 CURVE SMOOTH",
"71.84 242.16 OFFCURVE",
"267.76 -29.52 OFFCURVE",
"676.4 -29.52 CURVE SMOOTH",
"898.88 -29.52 OFFCURVE",
"1088.96 14 OFFCURVE",
"1205.44 52.96 CURVE",
"1037.76 272.16 LINE",
"969.92 253.04 OFFCURVE",
"864.16 221.76 OFFCURVE",
"731.84 221.76 CURVE SMOOTH",
"518.4 221.76 OFFCURVE",
"398.64 360.56 OFFCURVE",
"398.64 672 CURVE SMOOTH",
"398.64 992.56 OFFCURVE",
"522.72 1131.2 OFFCURVE",
"723.36 1131.2 CURVE SMOOTH",
"836.56 1131.2 OFFCURVE",
"961.04 1088.4 OFFCURVE",
"1059.2 1023.12 CURVE",
"1124.16 1065.2 OFFCURVE",
"1195.12 1162.4 OFFCURVE",
"1201.6 1252.88 CURVE"
);
},
{
closed = 1;
nodes = (
"905.2 48.96 LINE",
"981.2 50.96 OFFCURVE",
"1145.6 48.96 OFFCURVE",
"1205.44 52.96 CURVE",
"1205.44 578.32 LINE",
"933.92 668.48 LINE",
"909.2 578.48 OFFCURVE",
"905.2 465.12 OFFCURVE",
"905.2 371.28 CURVE"
);
},
{
closed = 1;
nodes = (
"680.72 775.84 LINE",
"667.36 737.6 OFFCURVE",
"657.68 685.68 OFFCURVE",
"657.68 643.92 CURVE SMOOTH",
"657.68 544.56 OFFCURVE",
"705.44 509.68 OFFCURVE",
"810.16 509.68 CURVE SMOOTH",
"890.08 509.68 OFFCURVE",
"1080.4 511.68 OFFCURVE",
"1205.44 513.68 CURVE",
"1205.44 578.32 LINE SMOOTH",
"1205.44 694.32 OFFCURVE",
"1153.36 779.52 OFFCURVE",
"993.92 777.68 CURVE SMOOTH"
);
}
);
width = 1308.8;
}
);
leftKerningGroup = C;
rightKerningGroup = G;
unicode = 0047;
},
{
glyphname = H;
lastChange = "2018-12-12 17:56:20 +0000";
layers = (
{
anchors = (
{
name = bottom_U;
position = "{667.1, -40}";
},
{
name = top_U;
position = "{667.1, 1464.1}";
}
);
layerId = "4A173D0E-7CF5-44A8-8AF0-8145C41E8E72";
paths = (
{
closed = 1;
nodes = (
"866.3 638.1 LINE",
"879.2 638.1 OFFCURVE",
"972.3 640.1 OFFCURVE",
"987.1 640.1 CURVE SMOOTH",
"1017 640.1 OFFCURVE",
"1047.1 638.1 OFFCURVE",
"1077 638.1 CURVE",
"1077 773.7 LINE",
"1047.1 773.7 OFFCURVE",
"1017 771.7 OFFCURVE",
"987.1 771.7 CURVE SMOOTH",
"972.3 771.7 OFFCURVE",
"879.2 773.7 OFFCURVE",
"866.3 773.7 CURVE SMOOTH",
"469.8 773.7 LINE SMOOTH",
"456.9 773.7 OFFCURVE",
"363.8 771.7 OFFCURVE",
"349 771.7 CURVE SMOOTH",
"319.1 771.7 OFFCURVE",
"289 773.7 OFFCURVE",
"259.1 773.7 CURVE",
"259.1 638.1 LINE",
"289 638.1 OFFCURVE",
"319.1 640.1 OFFCURVE",
"349 640.1 CURVE SMOOTH",
"363.8 640.1 OFFCURVE",
"456.9 638.1 OFFCURVE",
"469.8 638.1 CURVE SMOOTH"
);
},
{
closed = 1;
nodes = (
"351 492.1 LINE SMOOTH",
"351 548.1 OFFCURVE",
"349 586.1 OFFCURVE",
"349 640.1 CURVE SMOOTH",
"349 771.7 LINE SMOOTH",
"349 825.7 OFFCURVE",
"351 863.7 OFFCURVE",
"351 919.7 CURVE SMOOTH",
"351 1366 LINE",
"329.2 1370.3 OFFCURVE",
"301.1 1372.3 OFFCURVE",
"272.3 1372.3 CURVE SMOOTH",
"245.6 1372.3 OFFCURVE",
"217.2 1370.3 OFFCURVE",
"197.4 1366 CURVE",
"197.4 0 LINE",
"217.2 -4.3 OFFCURVE",
"245.6 -6.3 OFFCURVE",
"272.3 -6.3 CURVE SMOOTH",
"301.1 -6.3 OFFCURVE",
"329.2 -4.3 OFFCURVE",
"351 0 CURVE"
);
},
{
closed = 1;
nodes = (
"985.1 0 LINE",
"1005.1 -4.3 OFFCURVE",
"1033.2 -6.3 OFFCURVE",
"1060.2 -6.3 CURVE SMOOTH",
"1089.1 -6.3 OFFCURVE",
"1116.8 -4.3 OFFCURVE",
"1138.7 0 CURVE",
"1138.7 1366 LINE",
"1117 1370.3 OFFCURVE",
"1088.6 1372.3 OFFCURVE",
"1060 1372.3 CURVE SMOOTH",
"1033.1 1372.3 OFFCURVE",
"1005 1370.3 OFFCURVE",
"985.1 1366 CURVE",
"985.1 919.7 LINE SMOOTH",
"985.1 863.7 OFFCURVE",
"987.1 825.7 OFFCURVE",
"987.1 771.7 CURVE SMOOTH",
"987.1 640.1 LINE SMOOTH",
"987.1 586.1 OFFCURVE",
"985.1 548.1 OFFCURVE",
"985.1 492.1 CURVE SMOOTH"
);
}
);
width = 1336.1;
},
{
anchors = (
{
name = bottom_U;
position = "{686.24, -40}";
},
{
name = top_U;
position = "{686.24, 1465.84}";
}
);
layerId = "6BD0978F-C27A-4FE6-8A6F-902073A9F586";
paths = (
{
closed = 1;
nodes = (
"801.92 570.24 LINE",
"830.48 570.24 OFFCURVE",
"873.12 572.24 OFFCURVE",
"901.84 572.24 CURVE SMOOTH",
"964.8 572.24 OFFCURVE",
"1031.44 570.24 OFFCURVE",
"1094.4 570.24 CURVE",
"1094.4 838.08 LINE",
"1031.44 838.08 OFFCURVE",
"964.8 836.08 OFFCURVE",
"901.84 836.08 CURVE SMOOTH",
"873.12 836.08 OFFCURVE",
"830.48 838.08 OFFCURVE",
"801.92 838.08 CURVE SMOOTH",
"570.72 838.08 LINE SMOOTH",
"542.16 838.08 OFFCURVE",
"499.52 836.08 OFFCURVE",
"470.8 836.08 CURVE SMOOTH",
"407.84 836.08 OFFCURVE",
"341.2 838.08 OFFCURVE",
"278.24 838.08 CURVE",
"278.24 570.24 LINE",
"341.2 570.24 OFFCURVE",
"407.84 572.24 OFFCURVE",
"470.8 572.24 CURVE SMOOTH",
"499.52 572.24 OFFCURVE",
"542.16 570.24 OFFCURVE",
"570.72 570.24 CURVE SMOOTH"
);
},
{
closed = 1;
nodes = (
"472.8 424.24 LINE SMOOTH",
"472.8 480.24 OFFCURVE",
"470.8 518.24 OFFCURVE",
"470.8 572.24 CURVE SMOOTH",
"470.8 836.08 LINE SMOOTH",
"470.8 890.08 OFFCURVE",
"472.8 928.08 OFFCURVE",
"472.8 984.08 CURVE SMOOTH",
"472.8 1366 LINE",
"419.68 1375.52 OFFCURVE",
"355.04 1377.52 OFFCURVE",
"312.32 1377.52 CURVE SMOOTH",
"273.44 1377.52 OFFCURVE",
"203.28 1375.52 OFFCURVE",
"152.16 1366 CURVE",
"152.16 0 LINE",
"203.28 -9.52 OFFCURVE",
"273.44 -11.52 OFFCURVE",
"312.32 -11.52 CURVE SMOOTH",
"355.04 -11.52 OFFCURVE",
"419.68 -9.52 OFFCURVE",
"472.8 0 CURVE"
);
},
{
closed = 1;
nodes = (
"899.84 0 LINE",
"954.64 -9.52 OFFCURVE",
"1019.28 -11.52 OFFCURVE",
"1063.68 -11.52 CURVE SMOOTH",
"1108.24 -11.52 OFFCURVE",
"1165.52 -9.52 OFFCURVE",
"1220.48 0 CURVE",
"1220.48 1366 LINE",
"1169.2 1375.52 OFFCURVE",
"1099.04 1377.52 OFFCURVE",
"1060 1377.52 CURVE SMOOTH",
"1017.44 1377.52 OFFCURVE",
"952.8 1375.52 OFFCURVE",
"899.84 1366 CURVE",
"899.84 984.08 LINE SMOOTH",
"899.84 928.08 OFFCURVE",
"901.84 890.08 OFFCURVE",
"901.84 836.08 CURVE SMOOTH",
"901.84 572.24 LINE SMOOTH",
"901.84 518.24 OFFCURVE",
"899.84 480.24 OFFCURVE",
"899.84 424.24 CURVE SMOOTH"
);
}
);
width = 1372.64;
}
);
unicode = 0048;
},
{
glyphname = I;
lastChange = "2018-12-12 17:56:20 +0000";
layers = (
{
anchors = (
{
name = bottom_U;
position = "{280.1, -40}";
},
{
name = top_U;
position = "{282, 1464.1}";
}
);
layerId = "4A173D0E-7CF5-44A8-8AF0-8145C41E8E72";
paths = (
{
closed = 1;
nodes = (
"205.2 0 LINE",
"225 -4.3 OFFCURVE",
"253.4 -6.3 OFFCURVE",
"280.1 -6.3 CURVE SMOOTH",
"308.9 -6.3 OFFCURVE",
"337 -4.3 OFFCURVE",
"358.8 0 CURVE",
"358.8 1366 LINE",
"337 1370.3 OFFCURVE",
"308.9 1372.3 OFFCURVE",
"280.1 1372.3 CURVE SMOOTH",
"253.4 1372.3 OFFCURVE",
"225 1370.3 OFFCURVE",
"205.2 1366 CURVE"
);
}
);
width = 564;
},
{
anchors = (
{
name = bottom_U;
position = "{316.64, -40}";
},
{
name = top_U;
position = "{316.8, 1465.84}";
}
);
layerId = "6BD0978F-C27A-4FE6-8A6F-902073A9F586";
paths = (
{
closed = 1;
nodes = (
"156.48 0 LINE",
"207.6 -9.52 OFFCURVE",
"277.76 -11.52 OFFCURVE",
"316.64 -11.52 CURVE SMOOTH",
"359.36 -11.52 OFFCURVE",
"424 -9.52 OFFCURVE",
"477.12 0 CURVE",
"477.12 1366 LINE",
"424 1375.52 OFFCURVE",
"359.36 1377.52 OFFCURVE",
"316.64 1377.52 CURVE SMOOTH",
"277.76 1377.52 OFFCURVE",
"207.6 1375.52 OFFCURVE",
"156.48 1366 CURVE"
);
}
);
width = 633.6;
}
);
unicode = 0049;
},
{
glyphname = J;
lastChange = "2018-12-12 17:56:20 +0000";
layers = (
{
anchors = (
{
name = bottom_U;
position = "{384.6, -40}";
},
{
name = top_U;
position = "{627.3, 1464}";
}
);
layerId = "4A173D0E-7CF5-44A8-8AF0-8145C41E8E72";
paths = (
{
closed = 1;
nodes = (
"51.2 147.3 OFFCURVE",
"30.1 108.3 OFFCURVE",
"20 62.3 CURVE",
"102.7 11.8 OFFCURVE",
"221.1 -20 OFFCURVE",
"323.3 -20 CURVE SMOOTH",
"653.9 -20 OFFCURVE",
"702.2 202.4 OFFCURVE",
"702.2 482.4 CURVE SMOOTH",
"702.2 1366 LINE",
"682.3 1370.3 OFFCURVE",
"654.2 1372.3 OFFCURVE",
"627.3 1372.3 CURVE SMOOTH",
"598.7 1372.3 OFFCURVE",
"570.3 1370.3 OFFCURVE",
"548.6 1366 CURVE",
"548.6 452.4 LINE",
"548.6 207.4 OFFCURVE",
"490 111.6 OFFCURVE",
"315.7 111.6 CURVE SMOOTH",
"236.6 111.6 OFFCURVE",
"144.4 141.4 OFFCURVE",
"82.7 179.2 CURVE"
);
}
);
width = 872;
},
{
anchors = (
{
name = bottom_U;
position = "{429.84, -40}";
},
{
name = top_U;
position = "{649.92, 1464}";
}
);
layerId = "6BD0978F-C27A-4FE6-8A6F-902073A9F586";
paths = (
{
closed = 1;
nodes = (
"72.08 239.52 OFFCURVE",
"31.84 148.32 OFFCURVE",
"20 67.52 CURVE",
"114.88 8.32 OFFCURVE",
"240.24 -20 OFFCURVE",
"345.92 -20 CURVE SMOOTH",
"721.76 -20 OFFCURVE",
"810.08 209.36 OFFCURVE",
"810.08 524.16 CURVE SMOOTH",
"810.08 1366 LINE",
"757.12 1375.52 OFFCURVE",
"692.48 1377.52 OFFCURVE",
"649.92 1377.52 CURVE SMOOTH",
"610.88 1377.52 OFFCURVE",
"540.72 1375.52 OFFCURVE",
"489.44 1366 CURVE",
"489.44 494.16 LINE",
"489.44 336.16 OFFCURVE",
"455.2 243.84 OFFCURVE",
"310.48 243.84 CURVE SMOOTH",
"247.04 243.84 OFFCURVE",
"186.16 270.16 OFFCURVE",
"129.68 304.48 CURVE"
);
}
);
width = 941.6;
}
);
leftKerningGroup = J;
rightKerningGroup = U;
unicode = 004A;
},
{
glyphname = K;
lastChange = "2018-12-12 17:56:20 +0000";
layers = (
{
anchors = (
{
name = bottom_U;
position = "{608.8, -40}";
},
{
name = top_U;
position = "{602.7, 1464}";
}
);
layerId = "4A173D0E-7CF5-44A8-8AF0-8145C41E8E72";
paths = (
{
closed = 1;
nodes = (
"197.4 0 LINE",
"217.2 -4.3 OFFCURVE",
"245.6 -6.3 OFFCURVE",
"272.3 -6.3 CURVE SMOOTH",
"301.1 -6.3 OFFCURVE",
"329.2 -4.3 OFFCURVE",
"351 0 CURVE",
"351 1366 LINE",
"329.2 1370.3 OFFCURVE",
"301.1 1372.3 OFFCURVE",
"272.3 1372.3 CURVE SMOOTH",
"245.6 1372.3 OFFCURVE",
"217.2 1370.3 OFFCURVE",
"197.4 1366 CURVE"
);
},
{
closed = 1;
nodes = (
"1092 66.2 OFFCURVE",
"1066.7 99.5 OFFCURVE",
"1040.8 163.9 CURVE SMOOTH",
"917.2 476.2 LINE SMOOTH",
"844.8 657.4 OFFCURVE",
"777 738.8 OFFCURVE",
"583.2 738.8 CURVE SMOOTH",
"270.3 738.8 LINE",
"270.3 629.8 LINE",
"402.5 636 OFFCURVE",
"481.1 636.4 OFFCURVE",
"512.7 636.4 CURVE SMOOTH",
"644.6 636.4 OFFCURVE",
"713.6 580.8 OFFCURVE",
"778.2 415.1 CURVE SMOOTH",
"905.2 90.3 LINE SMOOTH",
"930 25 OFFCURVE",
"949.2 -10.4 OFFCURVE",
"1016 -10.4 CURVE SMOOTH",
"1050.9 -10.4 OFFCURVE",
"1100.9 8.5 OFFCURVE",
"1122.1 42.1 CURVE"
);
},
{
closed = 1;
nodes = (
"564.8 821 LINE",
"544.4 787.8 OFFCURVE",
"530.5 771.9 OFFCURVE",
"495.6 771.9 CURVE SMOOTH",
"270.3 766 LINE",
"270.3 674.9 LINE",
"502.9 674.9 LINE SMOOTH",
"602.5 674.9 OFFCURVE",
"674.6 726.9 OFFCURVE",
"724.1 806.6 CURVE SMOOTH",
"1060.7 1349.8 LINE",
"1048.4 1366.1 LINE",
"1018.5 1368.3 OFFCURVE",
"993.5 1370.4 OFFCURVE",
"966.1 1370.4 CURVE SMOOTH",
"906.2 1370.4 OFFCURVE",
"887.4 1343.9 OFFCURVE",
"858.8 1296.3 CURVE SMOOTH"
);
}
);
width = 1166.3;
},
{
anchors = (
{
name = bottom_U;
position = "{657.52, -40}";
},
{
name = top_U;
position = "{649.68, 1464}";
}
);
layerId = "6BD0978F-C27A-4FE6-8A6F-902073A9F586";
paths = (
{
closed = 1;
nodes = (
"152.16 0 LINE",
"203.28 -9.52 OFFCURVE",
"273.44 -11.52 OFFCURVE",
"312.32 -11.52 CURVE SMOOTH",
"355.04 -11.52 OFFCURVE",
"419.68 -9.52 OFFCURVE",
"472.8 0 CURVE",
"472.8 1366 LINE",
"419.68 1375.52 OFFCURVE",
"355.04 1377.52 OFFCURVE",
"312.32 1377.52 CURVE SMOOTH",
"273.44 1377.52 OFFCURVE",
"203.28 1375.52 OFFCURVE",
"152.16 1366 CURVE"
);
},
{
closed = 1;
nodes = (
"1161.6 139.28 OFFCURVE",
"1148.48 195.2 OFFCURVE",
"1124.32 266.56 CURVE SMOOTH",
"1042.48 514.48 LINE SMOOTH",
"997.92 646.96 OFFCURVE",
"933.6 752.72 OFFCURVE",
"708.48 752.72 CURVE SMOOTH",
"310.32 752.72 LINE",
"310.32 556.72 LINE",
"411.2 566.4 OFFCURVE",
"500.24 573.76 OFFCURVE",
"559.68 573.76 CURVE SMOOTH",
"655.04 573.76 OFFCURVE",
"706.64 525.12 OFFCURVE",
"746.88 399.44 CURVE SMOOTH",
"821.68 165.12 LINE SMOOTH",
"860.4 42.4 OFFCURVE",
"900.48 -17.36 OFFCURVE",
"1016 -17.36 CURVE SMOOTH",
"1101.36 -17.36 OFFCURVE",
"1186.16 17.2 OFFCURVE",
"1228.24 78.64 CURVE"
);
},
{
closed = 1;
nodes = (
"613.52 908 LINE",
"586.16 853.92 OFFCURVE",
"574 839.76 OFFCURVE",
"523.44 839.76 CURVE SMOOTH",
"310.32 835.6 LINE",
"310.32 655.76 LINE",
"553.36 655.76 LINE SMOOTH",
"750.4 655.76 OFFCURVE",
"859.04 742.56 OFFCURVE",
"934.64 886.64 CURVE SMOOTH",
"1177.28 1346.32 LINE",
"1159.76 1367.84 LINE",
"1096.8 1373.52 OFFCURVE",
"1019.6 1377.36 OFFCURVE",
"967.84 1377.36 CURVE SMOOTH",
"874.88 1377.36 OFFCURVE",
"842.16 1342.16 OFFCURVE",
"803.12 1266.72 CURVE SMOOTH"
);
}
);
width = 1241.12;
}
);
rightKerningGroup = K;
unicode = 004B;
},
{
glyphname = L;
lastChange = "2018-12-12 17:56:20 +0000";
layers = (
{
anchors = (
{
name = bottom_U;
position = "{577.6, -40}";
},
{
name = top_U;
position = "{272.1, 1463.5}";
}
);
layerId = "4A173D0E-7CF5-44A8-8AF0-8145C41E8E72";
paths = (
{
closed = 1;
nodes = (
"350.9 1272.5 LINE",
"350.9 1338.9 OFFCURVE",
"337.8 1372.4 OFFCURVE",
"270.6 1372.4 CURVE SMOOTH",
"209.4 1372.4 LINE",
"197.3 1360.3 LINE",
"197.3 102.5 LINE SMOOTH",
"197.3 33.8 OFFCURVE",
"237.1 -0.3 OFFCURVE",
"286.8 -0.3 CURVE SMOOTH",
"350.9 -0.3 LINE"
);
},
{
closed = 1;
nodes = (
"523.7 135.7 LINE",
"430.9 135.7 OFFCURVE",
"305.9 129.3 OFFCURVE",
"211.3 114.4 CURVE",
"286.8 -0.3 LINE",
"846.6 -0.3 LINE SMOOTH",
"900.2 -0.3 OFFCURVE",
"936.5 21.6 OFFCURVE",
"945 70.6 CURVE SMOOTH",
"949.1 91.6 OFFCURVE",
"949.2 122.3 OFFCURVE",
"949.2 135.7 CURVE"
);
}
);
width = 1011.9;
},
{
anchors = (
{
name = bottom_U;
position = "{570.64, -40}";
},
{
name = top_U;
position = "{308.64, 1454.8}";
}
);
layerId = "6BD0978F-C27A-4FE6-8A6F-902073A9F586";
paths = (
{
closed = 1;
nodes = (
"470.96 1176.8 LINE",
"470.96 1319.76 OFFCURVE",
"403.92 1379.36 OFFCURVE",
"281.04 1379.36 CURVE SMOOTH",
"164.16 1379.36 LINE",
"150.32 1365.52 LINE",
"150.32 180.8 LINE SMOOTH",
"150.32 65.12 OFFCURVE",
"221.44 -5.52 OFFCURVE",
"335.52 -5.52 CURVE SMOOTH",
"470.96 -5.52 LINE"
);
},
{
closed = 1;
nodes = (
"657.68 269.68 LINE",
"516.16 269.68 OFFCURVE",
"338.96 256.32 OFFCURVE",
"164.32 225.76 CURVE",
"335.52 -5.52 LINE",
"787.44 -5.52 LINE SMOOTH",
"903.68 -5.52 OFFCURVE",
"980 49.44 OFFCURVE",
"997.2 150.64 CURVE SMOOTH",
"1003.04 189.04 OFFCURVE",
"1004.88 231.92 OFFCURVE",
"1004.88 269.68 CURVE"
);
}
);
width = 1044.96;
}
);
rightKerningGroup = L;
unicode = 004C;
},
{
glyphname = M;
lastChange = "2018-12-12 17:56:20 +0000";
layers = (
{
anchors = (
{
name = bottom_U;
position = "{792.4, -40}";
},
{
name = top_U;
position = "{792.4, 1464}";
}
);
layerId = "4A173D0E-7CF5-44A8-8AF0-8145C41E8E72";
paths = (
{
closed = 1;
nodes = (
"168.6 2.1 LINE",
"188.1 -4.2 OFFCURVE",
"218.1 -8.2 OFFCURVE",
"243.6 -8.2 CURVE SMOOTH",
"268.9 -8.2 OFFCURVE",
"294.1 -6.2 OFFCURVE",
"317.4 -2 CURVE",
"373.9 826.4 LINE SMOOTH",
"380 917.3 OFFCURVE",
"384.2 1090.2 OFFCURVE",
"389.9 1203.2 CURVE",
"400.1 1203.2 LINE",
"717.2 213.3 LINE",
"738.7 209.1 OFFCURVE",
"765.5 207 OFFCURVE",
"792.3 207 CURVE SMOOTH",
"817.4 207 OFFCURVE",
"846 209.1 OFFCURVE",
"869.4 213.3 CURVE",
"1186.5 1203.2 LINE",
"1196.7 1203.2 LINE",
"1200.5 1090.2 OFFCURVE",
"1206.6 917.3 OFFCURVE",
"1212.7 826.4 CURVE SMOOTH",
"1269.2 -2 LINE",
"1292.5 -6.2 OFFCURVE",
"1313.9 -8.2 OFFCURVE",
"1339.2 -8.2 CURVE SMOOTH",
"1364.7 -8.2 OFFCURVE",
"1396.6 -4.2 OFFCURVE",
"1418 2.1 CURVE",
"1312 1365.9 LINE",
"1270.5 1372.2 OFFCURVE",
"1227.8 1372.4 OFFCURVE",
"1207.6 1372.4 CURVE SMOOTH",
"1185.5 1372.4 OFFCURVE",
"1151.1 1372.2 OFFCURVE",
"1109.6 1365.9 CURVE",
"880 664.1 LINE SMOOTH",
"856.7 595.3 OFFCURVE",
"803.1 402.1 OFFCURVE",
"798.4 372 CURVE",
"788.2 372 LINE",
"783.5 402.1 OFFCURVE",
"729.9 595.3 OFFCURVE",
"706.6 664.1 CURVE SMOOTH",
"477 1365.9 LINE",
"441.2 1372.2 OFFCURVE",
"401.1 1372.4 OFFCURVE",
"379 1372.4 CURVE SMOOTH",
"358.8 1372.4 OFFCURVE",
"312.3 1372.2 OFFCURVE",
"274.6 1365.9 CURVE"
);
}
);
width = 1586.6;
},
{
anchors = (
{
name = bottom_U;
position = "{834.16, -40}";
},
{
name = top_U;
position = "{834.16, 1464}";
}
);
layerId = "6BD0978F-C27A-4FE6-8A6F-902073A9F586";
paths = (
{
closed = 1;
nodes = (
"109.44 3.84 LINE",
"155.04 -7.68 OFFCURVE",
"219.84 -11.68 OFFCURVE",
"271.44 -11.68 CURVE SMOOTH",
"319.36 -11.68 OFFCURVE",
"365.44 -9.68 OFFCURVE",
"411.36 -2 CURVE",
"441.76 554.96 LINE SMOOTH",
"449.6 696.32 OFFCURVE",
"457.28 884.88 OFFCURVE",
"457.76 1015.28 CURVE",
"471.44 1015.28 LINE",
"668.48 201.12 LINE",
"716.08 193.44 OFFCURVE",
"791.6 189.6 OFFCURVE",
"832.32 189.6 CURVE SMOOTH",
"876.56 189.6 OFFCURVE",
"950.4 193.44 OFFCURVE",
"998.16 201.12 CURVE",
"1195.2 1015.28 LINE",
"1208.88 1015.28 LINE",
"1209.2 884.88 OFFCURVE",
"1217.04 696.32 OFFCURVE",
"1224.88 554.96 CURVE SMOOTH",
"1255.28 -2 LINE",
"1301.2 -9.68 OFFCURVE",
"1346.96 -11.68 OFFCURVE",
"1394.88 -11.68 CURVE SMOOTH",
"1446.48 -11.68 OFFCURVE",
"1511.44 -7.68 OFFCURVE",
"1557.2 3.84 CURVE",
"1451.2 1364.16 LINE",
"1383.6 1375.68 OFFCURVE",
"1293.92 1379.36 OFFCURVE",
"1235.44 1379.36 CURVE SMOOTH",
"1176.8 1379.36 OFFCURVE",
"1100.64 1375.68 OFFCURVE",
"1033.04 1364.16 CURVE",
"914.8 874.64 LINE SMOOTH",
"903.68 826.72 OFFCURVE",
"857.04 612.64 OFFCURVE",
"840.16 511.2 CURVE",
"826.48 511.2 LINE",
"809.6 612.64 OFFCURVE",
"762.96 826.72 OFFCURVE",
"751.84 874.64 CURVE SMOOTH",
"633.6 1364.16 LINE",
"566.48 1375.68 OFFCURVE",
"489.84 1379.36 OFFCURVE",
"431.2 1379.36 CURVE SMOOTH",
"372.72 1379.36 OFFCURVE",
"282.72 1375.68 OFFCURVE",
"215.44 1364.16 CURVE"
);
}
);
width = 1666.64;
}
);
unicode = 004D;
},
{
glyphname = N;
lastChange = "2018-12-12 17:56:20 +0000";
layers = (
{
anchors = (
{
name = bottom_U;
position = "{665.1, -40}";
},
{
name = top_U;
position = "{675.6, 1464}";
}
);
layerId = "4A173D0E-7CF5-44A8-8AF0-8145C41E8E72";
paths = (
{
closed = 1;
nodes = (
"197.4 0 LINE",
"222.8 -4.3 OFFCURVE",
"247.1 -6.3 OFFCURVE",
"268.1 -6.3 CURVE SMOOTH",
"289.2 -6.3 OFFCURVE",
"312.9 -4.3 OFFCURVE",
"340.3 0 CURVE",
"340.3 749.8 LINE SMOOTH",
"340.3 889.3 OFFCURVE",
"332.2 1058.6 OFFCURVE",
"327.6 1181.3 CURVE",
"342 1181.7 LINE",
"384.2 1366 LINE",
"357.7 1370.3 OFFCURVE",
"310.1 1372.3 OFFCURVE",
"289 1372.3 CURVE SMOOTH",
"271.7 1372.3 OFFCURVE",
"222.8 1370.1 OFFCURVE",
"197.4 1365.7 CURVE"
);
},
{
closed = 1;
nodes = (
"956.5 0 LINE",
"1145.4 40.3 LINE",
"1009.2 177.8 LINE",
"966 265 OFFCURVE",
"921.9 361.9 OFFCURVE",
"870 459.1 CURVE SMOOTH",
"384.2 1366 LINE",
"197.4 1344.7 LINE",
"333.7 1181.5 LINE",
"376.8 1092.2 OFFCURVE",
"418.7 1003.4 OFFCURVE",
"470.3 907 CURVE SMOOTH"
);
},
{
closed = 1;
nodes = (
"1133.3 1372.4 LINE",
"1082.3 1372.4 LINE SMOOTH",
"1015.1 1372.4 OFFCURVE",
"1002.6 1339.4 OFFCURVE",
"1002.6 1273 CURVE SMOOTH",
"1002.6 633.7 LINE SMOOTH",
"1002.6 495.7 OFFCURVE",
"1008.7 324.3 OFFCURVE",
"1015.3 178 CURVE",
"1000.8 177.6 LINE",
"956.5 0 LINE",
"983 -4.3 OFFCURVE",
"1032.5 -6.3 OFFCURVE",
"1051.7 -6.3 CURVE SMOOTH",
"1070.9 -6.3 OFFCURVE",
"1119.9 -4.1 OFFCURVE",
"1145.4 0.3 CURVE",
"1145.4 1362.2 LINE"
);
}
);
width = 1342.8;
},
{
anchors = (
{
name = bottom_U;
position = "{684.24, -40}";
},
{
name = top_U;
position = "{703.44, 1464}";
}
);
layerId = "6BD0978F-C27A-4FE6-8A6F-902073A9F586";
paths = (
{
closed = 1;
nodes = (
"152.16 0 LINE",
"201.92 -9.52 OFFCURVE",
"266.24 -11.52 OFFCURVE",
"304.64 -11.52 CURVE SMOOTH",
"344.88 -11.52 OFFCURVE",
"398.16 -9.52 OFFCURVE",
"449.92 0 CURVE",
"449.92 398.32 LINE SMOOTH",
"449.92 563.92 OFFCURVE",
"440.08 825.44 OFFCURVE",
"425.04 995.12 CURVE",
"446.4 1002.48 LINE",
"526.88 1366 LINE",
"456.88 1375.52 OFFCURVE",
"381.44 1377.52 OFFCURVE",
"341.2 1377.52 CURVE SMOOTH",
"301.28 1377.52 OFFCURVE",
"201.92 1371.84 OFFCURVE",
"152.16 1360.48 CURVE"
);
},
{
closed = 1;
nodes = (
"860.8 0 LINE",
"1239.36 45.52 LINE",
"960.48 348.32 LINE",
"931.2 421.6 OFFCURVE",
"885.36 534.16 OFFCURVE",
"835.2 652.24 CURVE SMOOTH",
"526.88 1366 LINE",
"152.16 1322.08 LINE",
"432.88 998.8 LINE",
"460.32 921.68 OFFCURVE",
"500.48 818.96 OFFCURVE",
"545.12 715.6 CURVE SMOOTH"
);
},
{
closed = 1;
nodes = (
"1225.52 1379.36 LINE",
"1122.32 1379.36 LINE SMOOTH",
"999.44 1379.36 OFFCURVE",
"943.44 1328.96 OFFCURVE",
"943.44 1186 CURVE SMOOTH",
"943.44 941.68 LINE SMOOTH",
"943.44 803.68 OFFCURVE",
"951.28 538.32 OFFCURVE",
"968.32 352 CURVE",
"945.12 344.64 LINE",
"860.8 0 LINE",
"930.8 -9.52 OFFCURVE",
"1006.4 -11.52 OFFCURVE",
"1046.48 -11.52 CURVE SMOOTH",
"1086.56 -11.52 OFFCURVE",
"1187.76 -5.84 OFFCURVE",
"1239.36 5.52 CURVE",
"1239.36 1365.68 LINE"
);
}
);
width = 1391.52;
}
);
unicode = 004E;
},
{
glyphname = O;
lastChange = "2018-12-12 17:56:20 +0000";
layers = (
{
anchors = (
{
name = bottom_U;
position = "{652.8, -40}";
},
{
name = top_U;
position = "{652.8, 1464}";
}
);
layerId = "4A173D0E-7CF5-44A8-8AF0-8145C41E8E72";
paths = (
{
closed = 1;
nodes = (
"275.5 943.2 OFFCURVE",
"347.1 1261.6 OFFCURVE",
"652.8 1261.6 CURVE SMOOTH",
"958.5 1261.6 OFFCURVE",
"1028.2 943.2 OFFCURVE",
"1028.2 684 CURVE SMOOTH",
"1028.2 424.8 OFFCURVE",
"958.5 104.4 OFFCURVE",
"652.8 104.4 CURVE SMOOTH",
"347.1 104.4 OFFCURVE",
"275.5 424.8 OFFCURVE",
"275.5 684 CURVE SMOOTH"
);
},
{
closed = 1;
nodes = (
"113.6 460.8 OFFCURVE",
"172.9 228.4 OFFCURVE",
"325.7 92.2 CURVE SMOOTH",
"404.4 22 OFFCURVE",
"503.1 -24.3 OFFCURVE",
"652.8 -24.3 CURVE SMOOTH",
"802.6 -24.3 OFFCURVE",
"901.2 22 OFFCURVE",
"979.9 92.2 CURVE SMOOTH",
"1132.7 228.4 OFFCURVE",
"1192 460.8 OFFCURVE",
"1192 684 CURVE SMOOTH",
"1192 903.5 OFFCURVE",
"1132.7 1137.6 OFFCURVE",
"979.9 1273.8 CURVE SMOOTH",
"901.2 1344 OFFCURVE",
"802.6 1390.3 OFFCURVE",
"652.8 1390.3 CURVE SMOOTH",
"503.1 1390.3 OFFCURVE",
"404.4 1344 OFFCURVE",
"325.7 1273.8 CURVE SMOOTH",
"172.9 1137.6 OFFCURVE",
"113.6 903.5 OFFCURVE",
"113.6 684 CURVE SMOOTH"
);
}
);
width = 1305.6;
},
{
anchors = (
{
name = bottom_U;
position = "{666.72, -40}";
},
{
name = top_U;
position = "{666.72, 1464}";
}
);
layerId = "6BD0978F-C27A-4FE6-8A6F-902073A9F586";
paths = (
{
closed = 1;
nodes = (
"406 894.48 OFFCURVE",
"435.84 1150.24 OFFCURVE",
"666.72 1150.24 CURVE SMOOTH",
"897.6 1150.24 OFFCURVE",
"927.28 894.48 OFFCURVE",
"927.28 684 CURVE SMOOTH",
"927.28 473.52 OFFCURVE",
"897.6 215.76 OFFCURVE",
"666.72 215.76 CURVE SMOOTH",
"435.84 215.76 OFFCURVE",
"406 473.52 OFFCURVE",
"406 684 CURVE SMOOTH"
);
},
{
closed = 1;
nodes = (
"71.84 474.72 OFFCURVE",
"118.96 235.36 OFFCURVE",
"285.68 95.68 CURVE SMOOTH",
"376.56 22 OFFCURVE",
"487.44 -29.52 OFFCURVE",
"666.72 -29.52 CURVE SMOOTH",
"847.84 -29.52 OFFCURVE",
"956.88 22 OFFCURVE",
"1047.76 95.68 CURVE SMOOTH",
"1214.48 235.36 OFFCURVE",
"1261.6 474.72 OFFCURVE",
"1261.6 684 CURVE SMOOTH",
"1261.6 894.8 OFFCURVE",
"1214.48 1130.64 OFFCURVE",
"1047.76 1270.32 CURVE SMOOTH",
"956.88 1344 OFFCURVE",
"847.84 1395.52 OFFCURVE",
"666.72 1395.52 CURVE SMOOTH",
"487.44 1395.52 OFFCURVE",
"376.56 1344 OFFCURVE",
"285.68 1270.32 CURVE SMOOTH",
"118.96 1130.64 OFFCURVE",
"71.84 894.8 OFFCURVE",
"71.84 684 CURVE SMOOTH"
);
}
);
width = 1333.44;
}
);
leftKerningGroup = C;
rightKerningGroup = O;
unicode = 004F;
},
{
glyphname = P;
lastChange = "2018-12-12 17:56:20 +0000";
layers = (
{
anchors = (
{
name = bottom_U;
position = "{272.3, -40}";
},
{
name = top_U;
position = "{577.3, 1464}";
}
);
layerId = "4A173D0E-7CF5-44A8-8AF0-8145C41E8E72";
paths = (
{
closed = 1;
nodes = (
"1033 1227.9 OFFCURVE",
"847.8 1372.3 OFFCURVE",
"592.2 1372.3 CURVE SMOOTH",
"464.8 1372.3 OFFCURVE",
"349.3 1368.3 OFFCURVE",
"209.5 1366.2 CURVE",
"197.4 1354.1 LINE",
"197.4 0 LINE",
"217.2 -4.3 OFFCURVE",
"245.6 -6.3 OFFCURVE",
"272.3 -6.3 CURVE SMOOTH",
"301.1 -6.3 OFFCURVE",
"329.2 -4.3 OFFCURVE",
"351 0 CURVE",
"351 1245.6 LINE",
"423.9 1243.6 OFFCURVE",
"529.9 1243.6 OFFCURVE",
"596.4 1243.6 CURVE SMOOTH",
"816.9 1243.6 OFFCURVE",
"869.6 1081.1 OFFCURVE",
"869.6 943.6 CURVE SMOOTH",
"869.6 809.8 OFFCURVE",
"816.9 641.7 OFFCURVE",
"596.4 641.7 CURVE SMOOTH",
"529.9 641.7 OFFCURVE",
"359.8 641.4 OFFCURVE",
"286.9 639.3 CURVE",
"286.9 513.1 LINE",
"592.2 513.1 LINE",
"851.6 513.1 OFFCURVE",
"1033 661.8 OFFCURVE",
"1033 943.6 CURVE SMOOTH"
);
}
);
width = 1111.8;
},
{
anchors = (
{
name = bottom_U;
position = "{312.32, -40}";
},
{
name = top_U;
position = "{599.92, 1464}";
}
);
layerId = "6BD0978F-C27A-4FE6-8A6F-902073A9F586";
paths = (
{
closed = 1;
nodes = (
"1120 1226.16 OFFCURVE",
"913.92 1377.52 OFFCURVE",
"630.48 1377.52 CURVE SMOOTH",
"478.72 1377.52 OFFCURVE",
"337.12 1373.52 OFFCURVE",
"166 1369.68 CURVE",
"152.16 1355.84 LINE",
"152.16 0 LINE",
"203.28 -9.52 OFFCURVE",
"273.44 -11.52 OFFCURVE",
"312.32 -11.52 CURVE SMOOTH",
"355.04 -11.52 OFFCURVE",
"419.68 -9.52 OFFCURVE",
"472.8 0 CURVE",
"472.8 1134.24 LINE",
"526.56 1132.24 OFFCURVE",
"562.96 1132.24 OFFCURVE",
"603.36 1132.24 CURVE SMOOTH",
"762.96 1132.24 OFFCURVE",
"793.04 995.84 OFFCURVE",
"793.04 901.84 CURVE SMOOTH",
"793.04 806.32 OFFCURVE",
"762.96 671.28 OFFCURVE",
"603.36 671.28 CURVE SMOOTH",
"562.96 671.28 OFFCURVE",
"391.12 665.76 OFFCURVE",
"337.36 661.92 CURVE",
"337.36 427.84 LINE",
"630.48 427.84 LINE",
"914.24 427.84 OFFCURVE",
"1120 588.72 OFFCURVE",
"1120 901.84 CURVE SMOOTH"
);
}
);
width = 1177.92;
}
);
unicode = 0050;
},
{
glyphname = Q;
lastChange = "2018-12-12 17:56:20 +0000";
layers = (
{
anchors = (
{
name = bottom_U;
position = "{636.2, -39.8}";
},
{
name = top_U;
position = "{641.6, 1464}";
}
);
layerId = "4A173D0E-7CF5-44A8-8AF0-8145C41E8E72";
paths = (
{
closed = 1;
nodes = (
"275.2 947.1 OFFCURVE",
"335.8 1261.6 OFFCURVE",
"641.6 1261.6 CURVE SMOOTH",
"947.4 1261.6 OFFCURVE",
"1006 947.1 OFFCURVE",
"1006 684 CURVE SMOOTH",
"1006 421 OFFCURVE",
"947.4 110.1 OFFCURVE",
"641.6 110.1 CURVE SMOOTH",
"335.8 110.1 OFFCURVE",
"275.2 421 OFFCURVE",
"275.2 684 CURVE SMOOTH"
);
},
{
closed = 1;
nodes = (
"113.6 466.5 OFFCURVE",
"163.6 224.7 OFFCURVE",
"316.4 88.4 CURVE SMOOTH",
"395.1 18.2 OFFCURVE",
"503.2 -24.3 OFFCURVE",
"652.9 -24.3 CURVE SMOOTH",
"717.1 -24.3 OFFCURVE",
"735.3 -7.4 OFFCURVE",
"770.1 9.8 CURVE SMOOTH",
"841.8 11.7 OFFCURVE",
"909.2 41.8 OFFCURVE",
"973.9 101.5 CURVE SMOOTH",
"1124.4 237.6 OFFCURVE",
"1169.6 467.7 OFFCURVE",
"1169.6 683.9 CURVE SMOOTH",
"1169.6 897.8 OFFCURVE",
"1119.5 1141.4 OFFCURVE",
"966.8 1277.6 CURVE SMOOTH",
"888.2 1347.9 OFFCURVE",
"791.4 1390.3 OFFCURVE",
"641.6 1390.3 CURVE SMOOTH",
"491.9 1390.3 OFFCURVE",
"395 1347.9 OFFCURVE",
"316.4 1277.6 CURVE SMOOTH",
"163.6 1141.4 OFFCURVE",
"113.6 897.8 OFFCURVE",
"113.6 684 CURVE SMOOTH"
);
},
{
closed = 1;
nodes = (
"924.9 -196.7 LINE",
"961.9 -222 OFFCURVE",
"997.6 -237 OFFCURVE",
"1046.2 -237 CURVE SMOOTH",
"1095.5 -237 OFFCURVE",
"1151.6 -205.8 OFFCURVE",
"1157.4 -122.5 CURVE",
"1094.3 -120.6 OFFCURVE",
"1041.6 -100.6 OFFCURVE",
"903.5 -2 CURVE SMOOTH",
"785.5 82.8 LINE",
"609 28.3 LINE"
);
}
);
width = 1283.2;
},
{
anchors = (
{
name = bottom_U;
position = "{570.08, -36.32}";
},
{
name = top_U;
position = "{669.44, 1464}";
}
);
layerId = "6BD0978F-C27A-4FE6-8A6F-902073A9F586";
paths = (
{
closed = 1;
nodes = (
"400.48 896.64 OFFCURVE",
"436.72 1150.24 OFFCURVE",
"669.44 1150.24 CURVE SMOOTH",
"902.16 1150.24 OFFCURVE",
"936.4 896.64 OFFCURVE",
"936.4 684 CURVE SMOOTH",
"936.4 473.2 OFFCURVE",
"902.16 216.24 OFFCURVE",
"669.44 216.24 CURVE SMOOTH",
"436.72 216.24 OFFCURVE",
"400.48 473.2 OFFCURVE",
"400.48 684 CURVE SMOOTH"
);
},
{
closed = 1;
nodes = (
"71.84 475.2 OFFCURVE",
"121.84 236.88 OFFCURVE",
"288.56 95.36 CURVE SMOOTH",
"379.44 21.68 OFFCURVE",
"489.28 -29.52 OFFCURVE",
"668.56 -29.52 CURVE SMOOTH",
"736.24 -29.52 OFFCURVE",
"792.72 3.04 OFFCURVE",
"841.44 41.12 CURVE SMOOTH",
"942.72 41.28 OFFCURVE",
"1034.48 73.12 OFFCURVE",
"1111.36 162.4 CURVE SMOOTH",
"1235.76 300.24 OFFCURVE",
"1267.04 497.28 OFFCURVE",
"1267.04 682.16 CURVE SMOOTH",
"1267.04 894.32 OFFCURVE",
"1215.2 1130.96 OFFCURVE",
"1050.32 1270.64 CURVE SMOOTH",
"961.28 1346.16 OFFCURVE",
"850.56 1395.52 OFFCURVE",
"669.44 1395.52 CURVE SMOOTH",
"490.16 1395.52 OFFCURVE",
"377.6 1346.16 OFFCURVE",
"288.56 1270.64 CURVE SMOOTH",
"121.84 1130.96 OFFCURVE",
"71.84 894.32 OFFCURVE",
"71.84 684 CURVE SMOOTH"
);
},
{
closed = 1;
nodes = (
"870.96 -208.88 LINE",
"925.36 -256.8 OFFCURVE",
"990.64 -289.2 OFFCURVE",
"1084.48 -289.2 CURVE SMOOTH",
"1191.2 -289.2 OFFCURVE",
"1283.84 -202.32 OFFCURVE",
"1286.16 -61.6 CURVE",
"1203.92 -61.44 OFFCURVE",
"1139.04 -41.44 OFFCURVE",
"1034 32.8 CURVE SMOOTH",
"846.4 166.32 LINE",
"556.8 68.32 LINE"
);
}
);
width = 1338.88;
}
);
leftKerningGroup = C;
rightKerningGroup = O;
unicode = 0051;
},
{
glyphname = R;
lastChange = "2018-12-12 17:56:20 +0000";
layers = (
{
anchors = (
{
name = bottom_U;
position = "{608.4, -40}";
},
{
name = top_U;
position = "{591, 1464}";
}
);
layerId = "4A173D0E-7CF5-44A8-8AF0-8145C41E8E72";
paths = (
{
closed = 1;
nodes = (
"1048.8 1221.4 OFFCURVE",
"891.8 1372.3 OFFCURVE",
"613.8 1372.3 CURVE SMOOTH",
"486.4 1372.3 OFFCURVE",
"349.3 1368.3 OFFCURVE",
"209.5 1366.2 CURVE",
"197.4 1354.1 LINE",
"197.4 0 LINE",
"217.2 -4.3 OFFCURVE",
"245.5 -6.3 OFFCURVE",
"272.2 -6.3 CURVE SMOOTH",
"301 -6.3 OFFCURVE",
"329 -4.3 OFFCURVE",
"350.8 0 CURVE",
"350.8 1245.8 LINE",
"423.9 1243.8 OFFCURVE",
"545.8 1243.8 OFFCURVE",
"612.3 1243.8 CURVE SMOOTH",
"832.4 1243.8 OFFCURVE",
"887.3 1106.6 OFFCURVE",
"887.3 976.1 CURVE SMOOTH",
"887.3 849.6 OFFCURVE",
"832.4 708.4 OFFCURVE",
"612.3 708.4 CURVE SMOOTH",
"515.4 708.4 OFFCURVE",
"380.1 706.2 OFFCURVE",
"287 702.2 CURVE",
"287 575.7 LINE",
"557.7 575.7 LINE SMOOTH",
"692.1 575.7 OFFCURVE",
"739.6 497 OFFCURVE",
"778.7 393 CURVE SMOOTH",
"894.2 88.5 LINE SMOOTH",
"919.2 23.2 OFFCURVE",
"942.1 -12.3 OFFCURVE",
"1003.2 -12.3 CURVE SMOOTH",
"1038.1 -12.3 OFFCURVE",
"1088.2 3.1 OFFCURVE",
"1109.3 38.2 CURVE",
"1063.4 74.1 OFFCURVE",
"1044.5 130 OFFCURVE",
"1024.5 180.5 CURVE SMOOTH",
"921 450.7 LINE SMOOTH",
"892.9 523.5 OFFCURVE",
"846.7 591.6 OFFCURVE",
"785.9 612 CURVE",
"947.2 659.8 OFFCURVE",
"1048.8 795.4 OFFCURVE",
"1048.8 976.1 CURVE SMOOTH"
);
}
);
width = 1184.6;
},
{
anchors = (
{
name = bottom_U;
position = "{650.16, -40}";
},
{
name = top_U;
position = "{608.4, 1464}";
}
);
layerId = "6BD0978F-C27A-4FE6-8A6F-902073A9F586";
paths = (
{
closed = 1;
nodes = (
"1132.32 1245.76 OFFCURVE",
"923.12 1377.52 OFFCURVE",
"645.12 1377.52 CURVE SMOOTH",
"493.36 1377.52 OFFCURVE",
"337.12 1373.52 OFFCURVE",
"166 1369.68 CURVE",
"152.16 1355.84 LINE",
"152.16 0 LINE",
"203.28 -9.52 OFFCURVE",
"271.6 -11.52 OFFCURVE",
"310.48 -11.52 CURVE SMOOTH",
"353.2 -11.52 OFFCURVE",
"416 -9.52 OFFCURVE",
"469.12 0 CURVE",
"469.12 1137.92 LINE",
"526.56 1135.92 OFFCURVE",
"577.12 1135.92 OFFCURVE",
"617.52 1135.92 CURVE SMOOTH",
"769.76 1135.92 OFFCURVE",
"805.52 1047.44 OFFCURVE",
"805.52 943.04 CURVE SMOOTH",
"805.52 842.64 OFFCURVE",
"769.76 750.16 OFFCURVE",
"617.52 750.16 CURVE SMOOTH",
"574.56 750.16 OFFCURVE",
"416.64 744.48 OFFCURVE",
"339.2 740.48 CURVE",
"339.2 500.88 LINE",
"552.48 500.88 LINE SMOOTH",
"659.04 500.88 OFFCURVE",
"697.84 444.8 OFFCURVE",
"721.28 375.6 CURVE SMOOTH",
"793.28 166.8 LINE SMOOTH",
"835.68 44.08 OFFCURVE",
"874.24 -17.52 OFFCURVE",
"989.28 -17.52 CURVE SMOOTH",
"1074.64 -17.52 OFFCURVE",
"1161.28 22.24 OFFCURVE",
"1201.52 76.48 CURVE",
"1157.36 110.64 OFFCURVE",
"1122.8 164.8 OFFCURVE",
"1102.8 224 CURVE SMOOTH",
"1042.8 393.28 LINE SMOOTH",
"1012.96 480 OFFCURVE",
"963.28 549.84 OFFCURVE",
"888.56 577.2 CURVE",
"1002.88 621.52 OFFCURVE",
"1132.32 750.16 OFFCURVE",
"1132.32 943.04 CURVE SMOOTH"
);
}
);
width = 1229.84;
}
);
rightKerningGroup = R;
unicode = 0052;
},
{
glyphname = S;
lastChange = "2018-12-12 17:56:20 +0000";
layers = (
{
anchors = (
{
name = bottom_U;
position = "{545.7, -40}";
},
{
name = top_U;
position = "{575.7, 1464}";
}
);
layerId = "4A173D0E-7CF5-44A8-8AF0-8145C41E8E72";
paths = (
{
closed = 1;
nodes = (
"202.6 35.3 OFFCURVE",
"374 -24.3 OFFCURVE",
"541.7 -24.3 CURVE SMOOTH",
"861.4 -24.3 OFFCURVE",
"1012.8 139 OFFCURVE",
"1012.8 362.1 CURVE SMOOTH",
"1012.8 545.5 OFFCURVE",
"872.6 655.2 OFFCURVE",
"714.6 724 CURVE SMOOTH",
"487.8 822.2 LINE SMOOTH",
"382.8 867.7 OFFCURVE",
"294.2 924.6 OFFCURVE",
"294.2 1033.3 CURVE SMOOTH",
"294.2 1166.7 OFFCURVE",
"410.1 1259.1 OFFCURVE",
"577.1 1259.1 CURVE SMOOTH",
"677.5 1259.1 OFFCURVE",
"803 1220.5 OFFCURVE",
"908.8 1166.8 CURVE",
"944.3 1196.4 OFFCURVE",
"969.2 1248.6 OFFCURVE",
"969.5 1293.3 CURVE",
"865.5 1343.5 OFFCURVE",
"725.4 1390.3 OFFCURVE",
"571.4 1390.3 CURVE SMOOTH",
"305.1 1390.3 OFFCURVE",
"138.3 1220.4 OFFCURVE",
"138.3 1019.6 CURVE SMOOTH",
"138.3 859.8 OFFCURVE",
"237.6 757.6 OFFCURVE",
"407.3 683.7 CURVE SMOOTH",
"641.4 581.8 LINE SMOOTH",
"760.9 530 OFFCURVE",
"856.3 451.2 OFFCURVE",
"854.4 329.7 CURVE SMOOTH",
"852.5 193.8 OFFCURVE",
"734.6 110.7 OFFCURVE",
"548.6 110.7 CURVE SMOOTH",
"414.1 110.7 OFFCURVE",
"266 167.1 OFFCURVE",
"148.3 248.3 CURVE",
"114.7 222.7 OFFCURVE",
"81.5 172.1 OFFCURVE",
"77.3 125.6 CURVE"
);
}
);
width = 1110.2;
},
{
anchors = (
{
name = bottom_U;
position = "{540.48, -40}";
},
{
name = top_U;
position = "{570.48, 1464}";
}
);
layerId = "6BD0978F-C27A-4FE6-8A6F-902073A9F586";
paths = (
{
closed = 1;
nodes = (
"178.24 23.12 OFFCURVE",
"374 -29.52 OFFCURVE",
"536.48 -29.52 CURVE SMOOTH",
"885.76 -29.52 OFFCURVE",
"1061.52 156.4 OFFCURVE",
"1061.52 398.64 CURVE SMOOTH",
"1061.52 571.6 OFFCURVE",
"952.64 710.88 OFFCURVE",
"759.84 793.6 CURVE SMOOTH",
"519.12 895.28 LINE SMOOTH",
"431.52 932.08 OFFCURVE",
"402.08 969.84 OFFCURVE",
"402.08 1021.12 CURVE SMOOTH",
"402.08 1074.48 OFFCURVE",
"446.64 1139.04 OFFCURVE",
"561.44 1139.04 CURVE SMOOTH",
"668.8 1139.04 OFFCURVE",
"820.4 1090 OFFCURVE",
"922.72 1041.52 CURVE",
"984.32 1098.96 OFFCURVE",
"1024.88 1189.44 OFFCURVE",
"1030.4 1281.12 CURVE",
"926.4 1334.8 OFFCURVE",
"749.76 1395.52 OFFCURVE",
"560.96 1395.52 CURVE SMOOTH",
"289.44 1395.52 OFFCURVE",
"73.92 1227.36 OFFCURVE",
"73.92 977.84 CURVE SMOOTH",
"73.92 786.72 OFFCURVE",
"195.84 681.04 OFFCURVE",
"360.32 608.88 CURVE SMOOTH",
"596.16 508.72 LINE SMOOTH",
"706.96 460.4 OFFCURVE",
"722.32 402.48 OFFCURVE",
"722.16 359.28 CURVE SMOOTH",
"722 294.72 OFFCURVE",
"675.44 227.28 OFFCURVE",
"559.04 227.28 CURVE SMOOTH",
"415.84 227.28 OFFCURVE",
"266 290.64 OFFCURVE",
"153.52 357.92 CURVE",
"92.08 304.48 OFFCURVE",
"38 208.64 OFFCURVE",
"30.32 118.64 CURVE"
);
}
);
width = 1113.68;
}
);
leftKerningGroup = S;
rightKerningGroup = S;
unicode = 0053;
},
{
glyphname = T;
lastChange = "2018-12-12 17:56:20 +0000";
layers = (
{
anchors = (
{
name = bottom_U;
position = "{483.6, -40}";
},
{
name = top_U;
position = "{481.7, 1464}";
}
);
layerId = "4A173D0E-7CF5-44A8-8AF0-8145C41E8E72";
paths = (
{
closed = 1;
nodes = (
"297.8 1234.3 LINE SMOOTH",
"324 1234.3 OFFCURVE",
"380.6 1236.3 OFFCURVE",
"406.8 1236.3 CURVE SMOOTH",
"560.4 1236.3 LINE SMOOTH",
"586.6 1236.3 OFFCURVE",
"645.1 1234.3 OFFCURVE",
"669.4 1234.3 CURVE SMOOTH",
"840.9 1234.3 LINE SMOOTH",
"903.9 1234.3 OFFCURVE",
"933.2 1253.4 OFFCURVE",
"933.2 1302.6 CURVE SMOOTH",
"933.2 1323.7 OFFCURVE",
"929.1 1347.2 OFFCURVE",
"922.9 1366 CURVE",
"42.6 1366 LINE",
"38.3 1342.6 OFFCURVE",
"36.3 1321 OFFCURVE",
"36.3 1300.1 CURVE SMOOTH",
"36.3 1279.2 OFFCURVE",
"38.3 1255.8 OFFCURVE",
"42.6 1234.3 CURVE"
);
},
{
closed = 1;
nodes = (
"406.8 0 LINE",
"428.7 -4.3 OFFCURVE",
"458.5 -6.3 OFFCURVE",
"483.6 -6.3 CURVE SMOOTH",
"508.7 -6.3 OFFCURVE",
"538.5 -4.3 OFFCURVE",
"560.4 0 CURVE",
"560.4 1088.3 LINE SMOOTH",
"560.4 1142.3 OFFCURVE",
"560.3 1180.3 OFFCURVE",
"560.3 1236.3 CURVE SMOOTH",
"560.3 1300.2 LINE",
"406.9 1300.2 LINE",
"406.9 1236.3 LINE SMOOTH",
"406.9 1180.3 OFFCURVE",
"406.8 1142.3 OFFCURVE",
"406.8 1088.3 CURVE SMOOTH"
);
}
);
width = 965.1;
},
{
anchors = (
{
name = bottom_U;
position = "{511.44, -40}";
},
{
name = top_U;
position = "{511.28, 1464}";
}
);
layerId = "6BD0978F-C27A-4FE6-8A6F-902073A9F586";
paths = (
{
closed = 1;
nodes = (
"224.72 1100.32 LINE SMOOTH",
"254.4 1100.32 OFFCURVE",
"321.44 1102.32 OFFCURVE",
"351.12 1102.32 CURVE SMOOTH",
"671.76 1102.32 LINE SMOOTH",
"701.44 1102.32 OFFCURVE",
"768.64 1100.32 OFFCURVE",
"798.16 1100.32 CURVE SMOOTH",
"856.56 1100.32 LINE SMOOTH",
"971.76 1100.32 OFFCURVE",
"1023.68 1138.56 OFFCURVE",
"1023.68 1243.44 CURVE SMOOTH",
"1023.68 1283.68 OFFCURVE",
"1017.84 1333.28 OFFCURVE",
"1008.16 1366 CURVE",
"18.24 1366 LINE",
"8.72 1318.24 OFFCURVE",
"6.72 1268.8 OFFCURVE",
"6.72 1232.24 CURVE SMOOTH",
"6.72 1195.68 OFFCURVE",
"8.72 1147.92 OFFCURVE",
"18.24 1100.32 CURVE"
);
},
{
closed = 1;
nodes = (
"351.12 0 LINE",
"406.08 -9.52 OFFCURVE",
"467.2 -11.52 OFFCURVE",
"511.44 -11.52 CURVE SMOOTH",
"555.68 -11.52 OFFCURVE",
"616.8 -9.52 OFFCURVE",
"671.76 0 CURVE",
"671.76 954.32 LINE SMOOTH",
"671.76 1008.32 OFFCURVE",
"669.92 1046.32 OFFCURVE",
"669.92 1102.32 CURVE SMOOTH",
"669.92 1234.08 LINE",
"352.96 1234.08 LINE",
"352.96 1102.32 LINE SMOOTH",
"352.96 1046.32 OFFCURVE",
"351.12 1008.32 OFFCURVE",
"351.12 954.32 CURVE SMOOTH"
);
}
);
width = 1019.04;
}
);
leftKerningGroup = T;
rightKerningGroup = T;
unicode = 0054;
},
{
glyphname = U;
lastChange = "2018-12-12 17:56:20 +0000";
layers = (
{
anchors = (
{
name = bottom_U;
position = "{666.4, -40}";
},
{
name = top_U;
position = "{666.1, 1464}";
}
);
layerId = "4A173D0E-7CF5-44A8-8AF0-8145C41E8E72";
paths = (
{
closed = 1;
nodes = (
"1151.6 1366 LINE",
"1129.9 1370.3 OFFCURVE",
"1101.3 1372.3 OFFCURVE",
"1072.7 1372.3 CURVE SMOOTH",
"1045.8 1372.3 OFFCURVE",
"1017.9 1370.3 OFFCURVE",
"998 1366 CURVE",
"998 467.9 LINE",
"998 229.1 OFFCURVE",
"875.6 103 OFFCURVE",
"666.4 103 CURVE",
"457.2 103 OFFCURVE",
"334.8 229.1 OFFCURVE",
"334.8 467.9 CURVE SMOOTH",
"334.8 1272.5 LINE SMOOTH",
"334.8 1338.9 OFFCURVE",
"321.7 1372.4 OFFCURVE",
"254.5 1372.4 CURVE SMOOTH",
"193.3 1372.4 LINE",
"181.2 1360.3 LINE",
"181.2 466.2 LINE SMOOTH",
"181.2 139.5 OFFCURVE",
"382.8 -24.3 OFFCURVE",
"664.5 -24.3 CURVE",
"950 -24.3 OFFCURVE",
"1151.6 139.5 OFFCURVE",
"1151.6 466.2 CURVE"
);
}
);
width = 1332.8;
},
{
anchors = (
{
name = bottom_U;
position = "{673.36, -40}";
},
{
name = top_U;
position = "{667.84, 1464}";
}
);
layerId = "6BD0978F-C27A-4FE6-8A6F-902073A9F586";
paths = (
{
closed = 1;
nodes = (
"1214.24 1366 LINE",
"1162.96 1375.52 OFFCURVE",
"1089.12 1377.52 OFFCURVE",
"1050.08 1377.52 CURVE SMOOTH",
"1007.52 1377.52 OFFCURVE",
"946.56 1375.52 OFFCURVE",
"893.6 1366 CURVE",
"893.6 500.96 LINE",
"893.6 317.84 OFFCURVE",
"833.84 224.8 OFFCURVE",
"673.36 224.8 CURVE",
"512.88 224.8 OFFCURVE",
"453.12 317.84 OFFCURVE",
"453.12 500.96 CURVE SMOOTH",
"453.12 1176.8 LINE SMOOTH",
"453.12 1319.76 OFFCURVE",
"386.08 1379.36 OFFCURVE",
"263.2 1379.36 CURVE SMOOTH",
"146.32 1379.36 LINE",
"132.48 1365.52 LINE",
"132.48 504.48 LINE SMOOTH",
"132.48 165.6 OFFCURVE",
"327.12 -29.52 OFFCURVE",
"673.2 -29.52 CURVE",
"1019.6 -29.52 OFFCURVE",
"1214.24 165.6 OFFCURVE",
"1214.24 504.48 CURVE"
);
}
);
width = 1346.72;
}
);
leftKerningGroup = U;
rightKerningGroup = U;
unicode = 0055;
},
{
glyphname = V;
lastChange = "2018-12-12 17:56:20 +0000";
layers = (
{
anchors = (
{
name = bottom_U;
position = "{560.5, -40}";
},
{
name = top_U;
position = "{570.3, 1464}";
}
);
layerId = "4A173D0E-7CF5-44A8-8AF0-8145C41E8E72";
paths = (
{
closed = 1;
nodes = (
"581 148.8 LINE",
"572.8 148.8 OFFCURVE",
"568.7 150.9 OFFCURVE",
"564.7 165.3 CURVE SMOOTH",
"537.2 264.3 OFFCURVE",
"498 411.3 OFFCURVE",
"471.7 499 CURVE SMOOTH",
"234.5 1303.5 LINE SMOOTH",
"217.8 1362.4 OFFCURVE",
"188.7 1378.3 OFFCURVE",
"149.5 1378.3 CURVE SMOOTH",
"117.3 1378.3 OFFCURVE",
"83.5 1367.7 OFFCURVE",
"53.9 1353.1 CURVE",
"440.8 71.5 LINE SMOOTH",
"461.6 0.5 OFFCURVE",
"499.7 -8.2 OFFCURVE",
"549 -8.2 CURVE SMOOTH",
"589.4 -8.2 OFFCURVE",
"623.1 -6.1 OFFCURVE",
"663.1 -1.9 CURVE",
"1071.2 1351.3 LINE",
"1064.8 1363.6 LINE",
"1047.3 1368.2 OFFCURVE",
"1021.1 1372.3 OFFCURVE",
"994.4 1372.3 CURVE SMOOTH",
"967.5 1372.3 OFFCURVE",
"945.9 1370.4 OFFCURVE",
"928.2 1366 CURVE"
);
}
);
width = 1113.7;
},
{
anchors = (
{
name = bottom_U;
position = "{604, -40}";
},
{
name = top_U;
position = "{610.32, 1464}";
}
);
layerId = "6BD0978F-C27A-4FE6-8A6F-902073A9F586";
paths = (
{
closed = 1;
nodes = (
"633.2 267.12 LINE",
"621.52 267.12 OFFCURVE",
"615.68 270.96 OFFCURVE",
"611.68 292.32 CURVE SMOOTH",
"592.88 408.72 OFFCURVE",
"567.6 538.32 OFFCURVE",
"536.08 655.6 CURVE SMOOTH",
"382.4 1225.2 LINE SMOOTH",
"353.52 1334.56 OFFCURVE",
"305.28 1383.52 OFFCURVE",
"210.4 1383.52 CURVE SMOOTH",
"139.92 1383.52 OFFCURVE",
"74.8 1362.48 OFFCURVE",
"17.36 1337.44 CURVE",
"350.32 132.4 LINE SMOOTH",
"385.04 9.2 OFFCURVE",
"459.68 -11.68 OFFCURVE",
"566.4 -11.68 CURVE SMOOTH",
"648.56 -11.68 OFFCURVE",
"746.64 -7.84 OFFCURVE",
"821.44 -0.16 CURVE",
"1196.48 1339.12 LINE",
"1183.12 1356.64 LINE",
"1139.52 1371.68 OFFCURVE",
"1075.04 1377.52 OFFCURVE",
"1036.16 1377.52 CURVE SMOOTH",
"993.6 1377.52 OFFCURVE",
"944.16 1377.36 OFFCURVE",
"896.88 1366 CURVE"
);
}
);
width = 1212.88;
}
);
unicode = 0056;
},
{
glyphname = W;
lastChange = "2018-12-12 17:56:20 +0000";
layers = (
{
anchors = (
{
name = bottom_U;
position = "{828.4, -40}";
},
{
name = top_U;
position = "{828.4, 1464}";
}
);
layerId = "4A173D0E-7CF5-44A8-8AF0-8145C41E8E72";
paths = (
{
closed = 1;
nodes = (
"336 75.3 LINE",
"350.6 4 OFFCURVE",
"396.3 -8.2 OFFCURVE",
"443.5 -8.2 CURVE SMOOTH",
"480.4 -8.2 OFFCURVE",
"540.9 -6 OFFCURVE",
"579.1 0.1 CURVE",
"720.2 666.2 LINE SMOOTH",
"746.2 786.4 OFFCURVE",
"783.5 979.6 OFFCURVE",
"820.2 1175.6 CURVE",
"832.4 1175.6 LINE",
"867 979.6 OFFCURVE",
"904.2 782.5 OFFCURVE",
"926.3 666.2 CURVE SMOOTH",
"1037.8 73.4 LINE SMOOTH",
"1050.2 4 OFFCURVE",
"1086.7 -8.2 OFFCURVE",
"1133.5 -8.2 CURVE SMOOTH",
"1172.1 -8.2 OFFCURVE",
"1238.9 -6 OFFCURVE",
"1278.8 2 CURVE",
"1576.9 1353.1 LINE",
"1568.5 1363.6 LINE",
"1545.4 1370 OFFCURVE",
"1517.6 1372.3 OFFCURVE",
"1494.1 1372.3 CURVE SMOOTH",
"1470.9 1372.3 OFFCURVE",
"1443.5 1370.3 OFFCURVE",
"1423.9 1366 CURVE",
"1247.5 529.5 LINE SMOOTH",
"1229.2 440.8 OFFCURVE",
"1191.9 255 OFFCURVE",
"1170.5 126.1 CURVE",
"1160.4 126.1 OFFCURVE",
"1158.2 128 OFFCURVE",
"1154.2 146.5 CURVE SMOOTH",
"928.4 1336.2 LINE",
"906.2 1340.6 OFFCURVE",
"856.5 1342.7 OFFCURVE",
"828.4 1342.7 CURVE SMOOTH",
"802.3 1342.7 OFFCURVE",
"756.4 1340.6 OFFCURVE",
"726.5 1336.2 CURVE",
"479.2 126.1 LINE",
"469 126.1 OFFCURVE",
"466.9 126.2 OFFCURVE",
"463 146.5 CURVE SMOOTH",
"445.5 242.5 OFFCURVE",
"410.1 440.9 OFFCURVE",
"393.8 529.3 CURVE SMOOTH",
"245.5 1296.9 LINE SMOOTH",
"234.9 1355.4 OFFCURVE",
"213.6 1378.3 OFFCURVE",
"165.9 1378.3 CURVE SMOOTH",
"138.2 1378.3 OFFCURVE",
"112 1375.5 OFFCURVE",
"77.3 1359.3 CURVE"
);
}
);
width = 1641.5;
},
{
anchors = (
{
name = bottom_U;
position = "{904.96, -40}";
},
{
name = top_U;
position = "{904.96, 1464}";
}
);
layerId = "6BD0978F-C27A-4FE6-8A6F-902073A9F586";
paths = (
{
closed = 1;
nodes = (
"266.4 132.72 LINE",
"291.44 4 OFFCURVE",
"366.72 -11.68 OFFCURVE",
"469.6 -11.68 CURVE SMOOTH",
"556.96 -11.68 OFFCURVE",
"660.96 -6 OFFCURVE",
"737.44 1.84 CURVE",
"828.08 565.28 LINE SMOOTH",
"854.08 723.76 OFFCURVE",
"879.2 903.04 OFFCURVE",
"893.28 1029.44 CURVE",
"908.96 1029.44 LINE",
"919.2 903.04 OFFCURVE",
"942.48 721.6 OFFCURVE",
"966.32 565.28 CURVE SMOOTH",
"1034.32 132.56 LINE SMOOTH",
"1053.68 4 OFFCURVE",
"1133.68 -11.68 OFFCURVE",
"1229.2 -11.68 CURVE SMOOTH",
"1313.04 -11.68 OFFCURVE",
"1428.56 -6 OFFCURVE",
"1501.52 2 CURVE",
"1766.56 1337.44 LINE",
"1751.2 1356.64 LINE",
"1708.96 1370 OFFCURVE",
"1649.84 1377.52 OFFCURVE",
"1600.24 1377.52 CURVE SMOOTH",
"1556.16 1377.52 OFFCURVE",
"1504.4 1375.52 OFFCURVE",
"1456.96 1366 CURVE",
"1343.2 694.8 LINE SMOOTH",
"1319.68 559.12 OFFCURVE",
"1294.56 376.8 OFFCURVE",
"1283.6 267.04 CURVE",
"1271.76 267.04 OFFCURVE",
"1266.08 267.2 OFFCURVE",
"1262.08 294.4 CURVE SMOOTH",
"1109.36 1339.68 LINE",
"1048.88 1351.04 OFFCURVE",
"969.6 1354.88 OFFCURVE",
"904.96 1354.88 CURVE SMOOTH",
"842.32 1354.88 OFFCURVE",
"763.36 1351.04 OFFCURVE",
"700.4 1339.68 CURVE",
"534.88 267.04 LINE",
"521.2 267.04 OFFCURVE",
"517.36 268.88 OFFCURVE",
"515.2 294.4 CURVE SMOOTH",
"506.4 390.4 OFFCURVE",
"481.44 560.96 OFFCURVE",
"459.92 691.12 CURVE SMOOTH",
"376 1208.16 LINE SMOOTH",
"354.96 1344.96 OFFCURVE",
"311.04 1383.52 OFFCURVE",
"198.96 1383.52 CURVE SMOOTH",
"141.68 1383.52 OFFCURVE",
"77.2 1366.8 OFFCURVE",
"30.32 1347.12 CURVE"
);
}
);
width = 1806.8;
}
);
leftKerningGroup = W;
rightKerningGroup = W;
unicode = 0057;
},
{
glyphname = X;
lastChange = "2018-12-12 17:56:20 +0000";
layers = (
{
anchors = (
{
name = bottom_U;
position = "{570.1, -40}";
},
{
name = top_U;
position = "{582.4, 1464}";
}
);
layerId = "4A173D0E-7CF5-44A8-8AF0-8145C41E8E72";
paths = (
{
closed = 1;
nodes = (
"896.5 51.2 LINE",
"926.3 4.4 OFFCURVE",
"959.5 -12.4 OFFCURVE",
"992.8 -12.4 CURVE SMOOTH",
"1024.8 -12.4 OFFCURVE",
"1063.1 -1.5 OFFCURVE",
"1096.8 23.5 CURVE",
"303 1314.9 LINE SMOOTH",
"273.3 1361.6 OFFCURVE",
"240.2 1378.4 OFFCURVE",
"206.9 1378.4 CURVE SMOOTH",
"174.9 1378.4 OFFCURVE",
"136.6 1367.5 OFFCURVE",
"102.9 1342.5 CURVE"
);
},
{
closed = 1;
nodes = (
"568.6 818.9 LINE",
"504.8 752.4 LINE",
"46.3 18.8 LINE",
"52.4 6.5 LINE",
"68.1 -1.9 OFFCURVE",
"100 -8.2 OFFCURVE",
"131.7 -8.2 CURVE SMOOTH",
"153.6 -8.2 OFFCURVE",
"188.2 -4.2 OFFCURVE",
"199.5 0 CURVE",
"582.1 627.9 LINE",
"645.9 692.6 LINE",
"1053 1347.3 LINE",
"1046.9 1359.5 LINE",
"1031.4 1367.9 OFFCURVE",
"999.5 1374.2 OFFCURVE",
"967.8 1374.2 CURVE SMOOTH",
"945.9 1374.2 OFFCURVE",
"915.1 1370.2 OFFCURVE",
"903.8 1366 CURVE"
);
}
);
width = 1143.1;
},
{
anchors = (
{
name = bottom_U;
position = "{606.64, -40}";
},
{
name = top_U;
position = "{624.16, 1464}";
}
);
layerId = "6BD0978F-C27A-4FE6-8A6F-902073A9F586";
paths = (
{
closed = 1;
nodes = (
"800.8 106.88 LINE",
"861.92 11.36 OFFCURVE",
"916 -19.36 OFFCURVE",
"1006.72 -19.36 CURVE SMOOTH",
"1073.52 -19.36 OFFCURVE",
"1151.84 7.2 OFFCURVE",
"1215.12 49.6 CURVE",
"459.6 1260.96 LINE SMOOTH",
"400.32 1354.64 OFFCURVE",
"348.08 1385.36 OFFCURVE",
"257.36 1385.36 CURVE SMOOTH",
"190.56 1385.36 OFFCURVE",
"112.24 1358.8 OFFCURVE",
"48.96 1316.4 CURVE"
);
},
{
closed = 1;
nodes = (
"613.84 938.96 LINE",
"483.92 794.16 LINE",
"16.72 32.72 LINE",
"24.56 15.2 LINE",
"69.84 -0.16 OFFCURVE",
"134.8 -11.68 OFFCURVE",
"196.08 -11.68 CURVE SMOOTH",
"251.04 -11.68 OFFCURVE",
"296.08 -7.68 OFFCURVE",
"330 0 CURVE",
"618.64 486.96 LINE",
"748.56 633.44 LINE",
"1174.8 1335.12 LINE",
"1166.96 1350.8 LINE",
"1125.36 1366.16 OFFCURVE",
"1060.4 1377.68 OFFCURVE",
"999.12 1377.68 CURVE SMOOTH",
"944.16 1377.68 OFFCURVE",
"899.44 1373.68 OFFCURVE",
"865.52 1366 CURVE"
);
}
);
width = 1231.84;
}
);
unicode = 0058;
},
{
glyphname = Y;
lastChange = "2018-12-12 17:56:20 +0000";
layers = (
{
anchors = (
{
name = bottom_U;
position = "{481.6, -40}";
},
{
name = top_U;
position = "{489.4, 1464}";
}
);
layerId = "4A173D0E-7CF5-44A8-8AF0-8145C41E8E72";
paths = (
{
closed = 1;
nodes = (
"406.6 0 LINE",
"426.4 -4.3 OFFCURVE",
"454.9 -6.3 OFFCURVE",
"481.6 -6.3 CURVE SMOOTH",
"510.4 -6.3 OFFCURVE",
"538.4 -4.3 OFFCURVE",
"560.2 0 CURVE",
"560.2 542 LINE",
"406.6 542 LINE"
);
},
{
closed = 1;
nodes = (
"580.3 842.6 LINE SMOOTH",
"565.1 803.6 OFFCURVE",
"517.7 680.6 OFFCURVE",
"497.4 612.7 CURVE",
"487.3 612.7 LINE",
"466.9 679.1 OFFCURVE",
"433.1 778.8 OFFCURVE",
"406.7 842 CURVE SMOOTH",
"214.3 1307 LINE SMOOTH",
"195.3 1355.4 OFFCURVE",
"172.2 1380.1 OFFCURVE",
"129.5 1380.1 CURVE SMOOTH",
"103.1 1380.1 OFFCURVE",
"72.7 1373.2 OFFCURVE",
"30 1348.8 CURVE",
"426.6 402.8 LINE",
"542.3 402.8 LINE",
"936.8 1351.2 LINE",
"930.4 1363.5 LINE",
"907.3 1370 OFFCURVE",
"883.2 1374.2 OFFCURVE",
"855.7 1374.2 CURVE SMOOTH",
"834.5 1374.2 OFFCURVE",
"809.4 1372.2 OFFCURVE",
"788.1 1366 CURVE"
);
}
);
width = 963;
},
{
anchors = (
{
name = bottom_U;
position = "{544.24, -40}";
},
{
name = top_U;
position = "{548.56, 1464}";
}
);
layerId = "6BD0978F-C27A-4FE6-8A6F-902073A9F586";
paths = (
{
closed = 1;
nodes = (
"382.24 0 LINE",
"433.36 -9.52 OFFCURVE",
"505.36 -11.52 OFFCURVE",
"544.24 -11.52 CURVE SMOOTH",
"586.96 -11.52 OFFCURVE",
"649.76 -9.52 OFFCURVE",
"702.88 0 CURVE",
"702.88 611.6 LINE",
"382.24 611.6 LINE"
);
},
{
closed = 1;
nodes = (
"655.12 1027.04 LINE SMOOTH",
"619.04 935.84 OFFCURVE",
"582.08 830.24 OFFCURVE",
"556.56 729.28 CURVE",
"544.72 729.28 LINE",
"517.36 837.44 OFFCURVE",
"487.04 931.92 OFFCURVE",
"453.68 1016 CURVE SMOOTH",
"358.72 1254.8 LINE SMOOTH",
"322.32 1344.96 OFFCURVE",
"280.08 1381.84 OFFCURVE",
"190.4 1381.84 CURVE SMOOTH",
"122.24 1381.84 OFFCURVE",
"50.08 1359.28 OFFCURVE",
"-4.8 1327.92 CURVE",
"402.24 381.92 LINE",
"686.72 381.92 LINE",
"1089.92 1337.28 LINE",
"1076.56 1354.8 LINE",
"1034.32 1370 OFFCURVE",
"973.68 1377.68 OFFCURVE",
"920.08 1377.68 CURVE SMOOTH",
"878 1377.68 OFFCURVE",
"833.76 1375.68 OFFCURVE",
"789.84 1366 CURVE"
);
}
);
width = 1084.8;
}
);
leftKerningGroup = Y;
rightKerningGroup = Y;
unicode = 0059;
},
{
glyphname = Z;
lastChange = "2018-12-12 17:56:20 +0000";
layers = (
{
anchors = (
{
name = bottom_U;
position = "{556.8, -40}";
},
{
name = top_U;
position = "{562.8, 1464}";
}
);
layerId = "4A173D0E-7CF5-44A8-8AF0-8145C41E8E72";
paths = (
{
closed = 1;
nodes = (
"129.1 179.5 LINE",
"112.6 153 OFFCURVE",
"106.2 126 OFFCURVE",
"106.2 103.1 CURVE SMOOTH",
"106.2 84.6 OFFCURVE",
"108.3 66.3 OFFCURVE",
"128.9 0 CURVE",
"885.4 0 LINE SMOOTH",
"969.6 0 OFFCURVE",
"998.9 35.1 OFFCURVE",
"998.9 90.5 CURVE SMOOTH",
"998.9 117.8 OFFCURVE",
"992.7 145.4 OFFCURVE",
"984.5 170.2 CURVE",
"932.4 146.1 OFFCURVE",
"852.7 137.4 OFFCURVE",
"743.4 137.4 CURVE SMOOTH",
"482 137.4 LINE SMOOTH",
"432 137.4 OFFCURVE",
"356.9 135.1 OFFCURVE",
"272.8 127.2 CURVE",
"266.8 133.2 LINE",
"318.8 208 OFFCURVE",
"379.1 291.8 OFFCURVE",
"424.7 362.8 CURVE SMOOTH",
"957.7 1190.4 LINE SMOOTH",
"974.3 1217.1 OFFCURVE",
"982.3 1239.9 OFFCURVE",
"982.3 1260.8 CURVE SMOOTH",
"982.3 1279.1 OFFCURVE",
"978.4 1301.1 OFFCURVE",
"959.1 1366 CURVE",
"167.7 1366 LINE",
"159.4 1338.5 OFFCURVE",
"155.2 1311.5 OFFCURVE",
"155.2 1283.9 CURVE SMOOTH",
"155.2 1266.9 OFFCURVE",
"157.2 1248 OFFCURVE",
"161.5 1230.8 CURVE",
"502.4 1230.8 LINE",
"552.2 1230.8 OFFCURVE",
"767.5 1234.9 OFFCURVE",
"816.1 1245 CURVE",
"822.1 1239 LINE",
"762.6 1154.7 OFFCURVE",
"711.4 1085.6 OFFCURVE",
"667.7 1018.4 CURVE SMOOTH"
);
}
);
width = 1105.1;
},
{
anchors = (
{
name = bottom_U;
position = "{570.72, -40}";
},
{
name = top_U;
position = "{576.72, 1464}";
}
);
layerId = "6BD0978F-C27A-4FE6-8A6F-902073A9F586";
paths = (
{
closed = 1;
nodes = (
"113.44 310 LINE",
"88.24 274.8 OFFCURVE",
"74.88 230.4 OFFCURVE",
"74.88 191.84 CURVE SMOOTH",
"74.88 164.64 OFFCURVE",
"78.72 141.12 OFFCURVE",
"109.76 0 CURVE",
"874.96 0 LINE SMOOTH",
"997.44 0 OFFCURVE",
"1084.16 54.24 OFFCURVE",
"1084.16 168.8 CURVE SMOOTH",
"1084.16 218.72 OFFCURVE",
"1074.48 274.16 OFFCURVE",
"1062.8 312.88 CURVE",
"1008.96 287.04 OFFCURVE",
"934.48 266.16 OFFCURVE",
"837.36 266.16 CURVE SMOOTH",
"725.6 266.16 LINE SMOOTH",
"640.8 266.16 OFFCURVE",
"511.76 258.64 OFFCURVE",
"425.92 252.48 CURVE",
"419.92 258.48 LINE",
"471.92 312.4 OFFCURVE",
"537.44 392.72 OFFCURVE",
"576.08 446.32 CURVE SMOOTH",
"1022.08 1058.16 LINE SMOOTH",
"1049.12 1097.04 OFFCURVE",
"1057.12 1133.76 OFFCURVE",
"1057.12 1170.32 CURVE SMOOTH",
"1057.12 1193.84 OFFCURVE",
"1054.96 1215.84 OFFCURVE",
"1013.04 1366 CURVE",
"127.68 1366 LINE",
"114.16 1312.4 OFFCURVE",
"106.48 1268 OFFCURVE",
"106.48 1212.56 CURVE SMOOTH",
"106.48 1178.16 OFFCURVE",
"108.48 1143.6 OFFCURVE",
"118 1105.52 CURVE",
"404.96 1105.52 LINE",
"486.08 1105.52 OFFCURVE",
"619.6 1111.36 OFFCURVE",
"713.44 1123.2 CURVE",
"719.44 1117.2 LINE",
"668.64 1062.48 OFFCURVE",
"596.56 974.24 OFFCURVE",
"558.08 920.96 CURVE SMOOTH"
);
}
);
width = 1159.04;
}
);
leftKerningGroup = Z;
rightKerningGroup = Z;
unicode = 005A;
},
{
glyphname = a;
lastChange = "2018-12-12 17:56:20 +0000";
layers = (
{
anchors = (
{
name = bottom;
position = "{493, -40}";
},
{
name = top;
position = "{483, 1084}";
}
);
layerId = "4A173D0E-7CF5-44A8-8AF0-8145C41E8E72";
paths = (
{
closed = 1;
nodes = (
"101.6 124.3 OFFCURVE",
"195.8 -24.3 OFFCURVE",
"390.5 -24.3 CURVE SMOOTH",
"562.9 -24.3 OFFCURVE",
"693.4 107.9 OFFCURVE",
"762 188.6 CURVE",
"736.9 324.2 LINE",
"652.5 175 OFFCURVE",
"517.1 101.7 OFFCURVE",
"410.6 101.7 CURVE SMOOTH",
"307.3 101.7 OFFCURVE",
"252.4 179.5 OFFCURVE",
"252.4 277 CURVE SMOOTH",
"252.4 404 OFFCURVE",
"339.5 476.8 OFFCURVE",
"478.6 476.8 CURVE SMOOTH",
"568.5 476.8 OFFCURVE",
"668.1 471.1 OFFCURVE",
"746.9 453.4 CURVE",
"746.9 558.7 LINE",
"661.6 580.3 OFFCURVE",
"559.5 587.9 OFFCURVE",
"476.8 587.9 CURVE SMOOTH",
"253.8 587.9 OFFCURVE",
"101.6 487.5 OFFCURVE",
"101.6 266.4 CURVE SMOOTH"
);
},
{
closed = 1;
nodes = (
"846.7 109.6 OFFCURVE",
"840.1 172.5 OFFCURVE",
"840.1 257 CURVE SMOOTH",
"840.1 668.7 LINE SMOOTH",
"840.1 884.8 OFFCURVE",
"737.6 1001.2 OFFCURVE",
"529.5 1001.2 CURVE SMOOTH",
"390.1 1001.2 OFFCURVE",
"237.7 952.1 OFFCURVE",
"137.7 907.5 CURVE",
"138.1 867.4 OFFCURVE",
"162.1 815.3 OFFCURVE",
"189.1 791.7 CURVE",
"295 838.8 OFFCURVE",
"406.6 874.6 OFFCURVE",
"515.3 874.6 CURVE SMOOTH",
"626.1 874.6 OFFCURVE",
"696.4 819.3 OFFCURVE",
"696.4 671 CURVE SMOOTH",
"696.4 207.1 LINE",
"697.4 103 OFFCURVE",
"730 22 OFFCURVE",
"828.5 -14.1 CURVE",
"859 0.8 OFFCURVE",
"886 35.1 OFFCURVE",
"896.1 62.7 CURVE"
);
}
);
width = 1007.1;
},
{
anchors = (
{
name = bottom;
position = "{510.4, -40}";
},
{
name = top;
position = "{500.4, 1084}";
}
);
layerId = "6BD0978F-C27A-4FE6-8A6F-902073A9F586";
paths = (
{
closed = 1;
nodes = (
"59.84 129.52 OFFCURVE",
"157.52 -29.52 OFFCURVE",
"364.4 -29.52 CURVE SMOOTH",
"543.76 -29.52 OFFCURVE",
"648.16 71.36 OFFCURVE",
"727.2 164.24 CURVE",
"682.96 362.48 LINE",
"626.4 262 OFFCURVE",
"536.24 200.88 OFFCURVE",
"455.84 200.88 CURVE SMOOTH",
"399.52 200.88 OFFCURVE",
"363.76 240.4 OFFCURVE",
"363.76 294.4 CURVE SMOOTH",
"363.76 369.2 OFFCURVE",
"400.4 421.12 OFFCURVE",
"489.04 421.12 CURVE SMOOTH",
"542.4 421.12 OFFCURVE",
"635.04 420.64 OFFCURVE",
"692.96 408.16 CURVE",
"692.96 605.68 LINE",
"619.84 620.32 OFFCURVE",
"516 620.96 OFFCURVE",
"455.92 620.96 CURVE SMOOTH",
"250.32 620.96 OFFCURVE",
"59.84 513.6 OFFCURVE",
"59.84 273.36 CURVE SMOOTH"
);
},
{
closed = 1;
nodes = (
"928.48 172.24 OFFCURVE",
"911.44 216 OFFCURVE",
"911.44 274.4 CURVE SMOOTH",
"911.44 680.88 LINE SMOOTH",
"911.44 933.52 OFFCURVE",
"730.64 1022.08 OFFCURVE",
"555.6 1022.08 CURVE SMOOTH",
"426.64 1022.08 OFFCURVE",
"232.48 988.64 OFFCURVE",
"97.68 933.6 CURVE",
"105.04 856.96 OFFCURVE",
"129.04 768.32 OFFCURVE",
"173.44 716.88 CURVE",
"277.6 748.32 OFFCURVE",
"382.24 780.64 OFFCURVE",
"468.32 780.64 CURVE SMOOTH",
"558.24 780.64 OFFCURVE",
"598.96 737.52 OFFCURVE",
"598.96 653.6 CURVE SMOOTH",
"598.96 226.24 LINE",
"617.36 120.4 OFFCURVE",
"695.2 -12.8 OFFCURVE",
"872 -15.84 CURVE",
"911.2 14.72 OFFCURVE",
"955.6 89.04 OFFCURVE",
"967.44 144.48 CURVE"
);
}
);
width = 1026.24;
}
);
leftKerningGroup = a;
rightKerningGroup = a;
unicode = 0061;
},
{
glyphname = b;
lastChange = "2018-12-12 17:56:20 +0000";
layers = (
{
anchors = (
{
name = bottom;
position = "{522, -40}";
},
{
name = top;
position = "{522, 1084}";
}
);
layerId = "4A173D0E-7CF5-44A8-8AF0-8145C41E8E72";
paths = (
{
closed = 1;
nodes = (
"321.9 1369.1 LINE",
"321.9 1435.3 OFFCURVE",
"309.7 1470.1 OFFCURVE",
"242.5 1470.1 CURVE SMOOTH",
"188.8 1470.1 LINE",
"176.7 1458 LINE",
"176.7 50 LINE",
"321.9 50 LINE"
);
},
{
closed = 1;
nodes = (
"945.7 792.7 OFFCURVE",
"829.6 997.2 OFFCURVE",
"604.9 997.2 CURVE SMOOTH",
"436.5 997.2 OFFCURVE",
"312 880.4 OFFCURVE",
"262.2 804.2 CURVE",
"285.4 672.2 LINE",
"342.9 779.3 OFFCURVE",
"462.4 868.3 OFFCURVE",
"582.8 868.2 CURVE SMOOTH",
"695.3 868.1 OFFCURVE",
"795.9 761.8 OFFCURVE",
"795.9 502.3 CURVE SMOOTH",
"795.9 227.4 OFFCURVE",
"670.2 100.1 OFFCURVE",
"523.6 100.1 CURVE SMOOTH",
"416.5 100.1 OFFCURVE",
"340.1 120.4 OFFCURVE",
"252.8 170.3 CURVE",
"176.7 50 LINE",
"290.3 8 OFFCURVE",
"405.7 -14.2 OFFCURVE",
"525.2 -14.2 CURVE SMOOTH",
"736.6 -14.2 OFFCURVE",
"945.8 138.8 OFFCURVE",
"945.7 502.6 CURVE SMOOTH"
);
}
);
width = 1047.3;
},
{
anchors = (
{
name = bottom;
position = "{522, -40}";
},
{
name = top;
position = "{522, 1084}";
}
);
layerId = "6BD0978F-C27A-4FE6-8A6F-902073A9F586";
paths = (
{
closed = 1;
nodes = (
"424.56 1283.84 LINE",
"424.56 1423.12 OFFCURVE",
"374.08 1471.84 OFFCURVE",
"251.2 1471.84 CURVE SMOOTH",
"133.12 1471.84 LINE",
"119.28 1458 LINE",
"119.28 50 LINE",
"424.56 50 LINE"
);
},
{
closed = 1;
nodes = (
"1010.08 804.88 OFFCURVE",
"892.24 1018.08 OFFCURVE",
"655.36 1018.08 CURVE SMOOTH",
"514.8 1018.08 OFFCURVE",
"416.4 956.96 OFFCURVE",
"335.28 877.28 CURVE",
"379.36 640.88 LINE",
"428.16 732.32 OFFCURVE",
"504.16 769.12 OFFCURVE",
"561.92 767.28 CURVE SMOOTH",
"648.32 765.44 OFFCURVE",
"689.76 688.72 OFFCURVE",
"689.76 507.52 CURVE SMOOTH",
"689.76 321.36 OFFCURVE",
"638.88 206.24 OFFCURVE",
"516.64 206.24 CURVE SMOOTH",
"425.2 206.24 OFFCURVE",
"341.84 231.76 OFFCURVE",
"266.72 279.92 CURVE",
"119.28 50 LINE",
"225.92 8 OFFCURVE",
"365.68 -17.68 OFFCURVE",
"511.28 -17.68 CURVE SMOOTH",
"816.64 -17.68 OFFCURVE",
"1011.92 187.52 OFFCURVE",
"1010.08 513.04 CURVE SMOOTH"
);
}
);
width = 1069.92;
}
);
unicode = 0062;
},
{
glyphname = c;
lastChange = "2018-12-12 17:56:20 +0000";
layers = (
{
anchors = (
{
name = bottom;
position = "{494.4, -40}";
},
{
name = top;
position = "{502.1, 1084}";
}
);
layerId = "4A173D0E-7CF5-44A8-8AF0-8145C41E8E72";
paths = (
{
closed = 1;
nodes = (
"733.6 629.3 OFFCURVE",
"752.5 627.2 OFFCURVE",
"774.3 627.2 CURVE SMOOTH",
"839.6 627.2 OFFCURVE",
"852.6 669.5 OFFCURVE",
"852.6 720.6 CURVE SMOOTH",
"852.6 825.9 OFFCURVE",
"760.4 1005.3 OFFCURVE",
"506.1 1005.3 CURVE SMOOTH",
"299.4 1005.3 OFFCURVE",
"103.5 844.3 OFFCURVE",
"103.5 482.8 CURVE SMOOTH",
"103.5 230.9 OFFCURVE",
"208.3 -24.3 OFFCURVE",
"494.4 -24.3 CURVE SMOOTH",
"634.8 -24.3 OFFCURVE",
"749 33.8 OFFCURVE",
"840.8 120.2 CURVE",
"832.5 155.7 OFFCURVE",
"799.3 196.2 OFFCURVE",
"770.1 214.8 CURVE",
"696.7 159.4 OFFCURVE",
"613 104.3 OFFCURVE",
"514.2 104.3 CURVE SMOOTH",
"354.8 104.3 OFFCURVE",
"258.9 227.3 OFFCURVE",
"258.9 482.8 CURVE SMOOTH",
"258.9 747.6 OFFCURVE",
"357 886.8 OFFCURVE",
"502 886.8 CURVE SMOOTH",
"670.3 886.8 OFFCURVE",
"718.3 749.7 OFFCURVE",
"710.7 633.5 CURVE"
);
}
);
width = 938.6;
},
{
anchors = (
{
name = bottom;
position = "{501.36, -40}";
},
{
name = top;
position = "{503.84, 1084}";
}
);
layerId = "6BD0978F-C27A-4FE6-8A6F-902073A9F586";
paths = (
{
closed = 1;
nodes = (
"657.04 547.52 OFFCURVE",
"691.6 543.68 OFFCURVE",
"744.72 543.68 CURVE SMOOTH",
"832.64 543.68 OFFCURVE",
"897.84 591.2 OFFCURVE",
"897.84 696.24 CURVE SMOOTH",
"897.84 893.76 OFFCURVE",
"732.56 1027.92 OFFCURVE",
"507.84 1027.92 CURVE SMOOTH",
"288.96 1027.92 OFFCURVE",
"60 884.32 OFFCURVE",
"60 496.72 CURVE SMOOTH",
"60 176.96 OFFCURVE",
"213.52 -29.52 OFFCURVE",
"501.36 -29.52 CURVE SMOOTH",
"648.72 -29.52 OFFCURVE",
"801.2 30.32 OFFCURVE",
"889.52 123.68 CURVE",
"876 185.28 OFFCURVE",
"821.92 269.28 OFFCURVE",
"771.84 298.32 CURVE",
"708.88 253.36 OFFCURVE",
"630.4 213.92 OFFCURVE",
"552.48 213.92 CURVE SMOOTH",
"438.32 213.92 OFFCURVE",
"378.96 284.72 OFFCURVE",
"378.96 496.72 CURVE SMOOTH",
"378.96 705.84 OFFCURVE",
"409.2 796.32 OFFCURVE",
"502 796.32 CURVE SMOOTH",
"605.92 796.32 OFFCURVE",
"619.12 709.68 OFFCURVE",
"618.48 555.2 CURVE"
);
}
);
width = 949.04;
}
);
leftKerningGroup = c;
rightKerningGroup = c;
unicode = 0063;
},
{
glyphname = d;
lastChange = "2018-12-12 17:56:20 +0000";
layers = (
{
anchors = (
{
name = bottom;
position = "{524.2, -40}";
},
{
name = top;
position = "{524, 1084}";
}
);
layerId = "4A173D0E-7CF5-44A8-8AF0-8145C41E8E72";
paths = (
{
closed = 1;
nodes = (
"870.8 1369.1 LINE",
"870.8 1435.3 OFFCURVE",
"858.8 1470.1 OFFCURVE",
"791.6 1470.1 CURVE SMOOTH",
"737.7 1470.1 LINE",
"725.6 1458 LINE",
"725.6 229.2 LINE SMOOTH",
"725.6 121.8 OFFCURVE",
"753.2 23.9 OFFCURVE",
"859.2 -14.1 CURVE",
"889.7 0.8 OFFCURVE",
"916.7 35.1 OFFCURVE",
"926.8 62.7 CURVE",
"877.7 109.4 OFFCURVE",
"870.8 191.9 OFFCURVE",
"870.8 276.7 CURVE SMOOTH"
);
},
{
closed = 1;
nodes = (
"101.8 180.2 OFFCURVE",
"217.8 -24.3 OFFCURVE",
"437.2 -24.3 CURVE SMOOTH",
"620 -24.3 OFFCURVE",
"755.4 105.7 OFFCURVE",
"803.7 226.1 CURVE",
"777.2 366.2 LINE",
"727 203.4 OFFCURVE",
"586.9 104.7 OFFCURVE",
"466.2 104.7 CURVE SMOOTH",
"354.6 104.7 OFFCURVE",
"251.6 211.1 OFFCURVE",
"251.6 478.4 CURVE SMOOTH",
"251.6 755.1 OFFCURVE",
"369.1 869.2 OFFCURVE",
"489.7 869.2 CURVE SMOOTH",
"608.6 869.2 OFFCURVE",
"713.4 792.6 OFFCURVE",
"789.5 734.3 CURVE",
"797.9 865.5 LINE",
"702.3 940.3 OFFCURVE",
"596.4 997.2 OFFCURVE",
"475.4 997.2 CURVE SMOOTH",
"300.8 997.2 OFFCURVE",
"101.8 843.3 OFFCURVE",
"101.8 478.5 CURVE SMOOTH"
);
}
);
width = 1049.6;
},
{
anchors = (
{
name = bottom;
position = "{527.68, -40}";
},
{
name = top;
position = "{524, 1084}";
}
);
layerId = "6BD0978F-C27A-4FE6-8A6F-902073A9F586";
paths = (
{
closed = 1;
nodes = (
"954.32 1283.84 LINE",
"954.32 1423.12 OFFCURVE",
"907.52 1471.84 OFFCURVE",
"784.64 1471.84 CURVE SMOOTH",
"662.88 1471.84 LINE",
"649.04 1458 LINE",
"649.04 284.88 LINE SMOOTH",
"649.04 118.32 OFFCURVE",
"739.28 -12.64 OFFCURVE",
"914.88 -15.84 CURVE",
"954.08 14.72 OFFCURVE",
"998.48 89.04 OFFCURVE",
"1010.32 144.48 CURVE",
"976.88 168.56 OFFCURVE",
"954.32 224.96 OFFCURVE",
"954.32 288.88 CURVE SMOOTH"
);
},
{
closed = 1;
nodes = (
"63.52 183.68 OFFCURVE",
"179.52 -29.52 OFFCURVE",
"423.28 -29.52 CURVE SMOOTH",
"620 -29.52 OFFCURVE",
"779.76 135.28 OFFCURVE",
"798.48 297.44 CURVE",
"728.48 474.08 LINE",
"674.8 262.56 OFFCURVE",
"567.76 221.28 OFFCURVE",
"504.48 221.28 CURVE SMOOTH",
"434.64 221.28 OFFCURVE",
"383.84 299.84 OFFCURVE",
"383.84 485.36 CURVE SMOOTH",
"383.84 669.84 OFFCURVE",
"423.04 785.68 OFFCURVE",
"519.28 785.68 CURVE SMOOTH",
"584.24 785.68 OFFCURVE",
"668.16 733.44 OFFCURVE",
"746 669.92 CURVE",
"796.16 891.6 LINE",
"707.52 945.52 OFFCURVE",
"603.36 1018.08 OFFCURVE",
"464.96 1018.08 CURVE SMOOTH",
"245.12 1018.08 OFFCURVE",
"63.52 831.12 OFFCURVE",
"63.52 487.2 CURVE SMOOTH"
);
}
);
width = 1077.44;
}
);
leftKerningGroup = d;
unicode = 0064;
},
{
glyphname = e;
lastChange = "2018-12-12 17:56:20 +0000";
layers = (
{
anchors = (
{
name = bottom;
position = "{506.1, -40}";
},
{
name = top;
position = "{510, 1084}";
}
);
layerId = "4A173D0E-7CF5-44A8-8AF0-8145C41E8E72";
paths = (
{
closed = 1;
nodes = (
"881 445.3 LINE",
"887.7 494.3 OFFCURVE",
"890 527.3 OFFCURVE",
"890 577.5 CURVE SMOOTH",
"890 813.8 OFFCURVE",
"760.6 1005.3 OFFCURVE",
"504.2 1005.3 CURVE SMOOTH",
"248.6 1005.3 OFFCURVE",
"103.5 788.3 OFFCURVE",
"103.5 492 CURVE SMOOTH",
"103.5 218.5 OFFCURVE",
"199.4 -24.3 OFFCURVE",
"498.4 -24.3 CURVE SMOOTH",
"634.7 -24.3 OFFCURVE",
"769.6 23.3 OFFCURVE",
"862.1 87.8 CURVE",
"857.8 119.5 OFFCURVE",
"835.5 165.3 OFFCURVE",
"808.4 190.5 CURVE",
"720.8 141.4 OFFCURVE",
"625.2 105.9 OFFCURVE",
"518.2 105.9 CURVE SMOOTH",
"322.2 105.9 OFFCURVE",
"260.5 261.9 OFFCURVE",
"260.5 479.3 CURVE SMOOTH",
"260.5 526 LINE SMOOTH",
"260.5 745 OFFCURVE",
"345.6 891.1 OFFCURVE",
"504.1 891.1 CURVE SMOOTH",
"673.8 891.1 OFFCURVE",
"740.1 752.6 OFFCURVE",
"740.1 586.8 CURVE SMOOTH",
"740.1 559.1 LINE",
"193.8 559.1 LINE",
"193.8 445.3 LINE"
);
}
);
width = 1005.3;
},
{
anchors = (
{
name = bottom;
position = "{507.84, -40}";
},
{
name = top;
position = "{510, 1084}";
}
);
layerId = "6BD0978F-C27A-4FE6-8A6F-902073A9F586";
paths = (
{
closed = 1;
nodes = (
"898.4 398.32 LINE",
"917.28 464.72 OFFCURVE",
"924.8 515.12 OFFCURVE",
"924.8 603.6 CURVE SMOOTH",
"924.8 845.12 OFFCURVE",
"771.04 1027.92 OFFCURVE",
"507.68 1027.92 CURVE SMOOTH",
"189.44 1027.92 OFFCURVE",
"60 793.52 OFFCURVE",
"60 492 CURVE SMOOTH",
"60 227.2 OFFCURVE",
"154.16 -29.52 OFFCURVE",
"505.36 -29.52 CURVE SMOOTH",
"646.88 -29.52 OFFCURVE",
"797.44 11.12 OFFCURVE",
"898.64 84.32 CURVE",
"889.12 145.6 OFFCURVE",
"861.6 222.72 OFFCURVE",
"815.36 268.8 CURVE",
"734.72 235.36 OFFCURVE",
"646.08 208.56 OFFCURVE",
"556.48 208.56 CURVE SMOOTH",
"395.28 208.56 OFFCURVE",
"373.6 329.76 OFFCURVE",
"373.6 467.12 CURVE SMOOTH",
"373.6 560.8 LINE SMOOTH",
"373.6 727.6 OFFCURVE",
"408.24 805.84 OFFCURVE",
"505.84 805.84 CURVE SMOOTH",
"600.72 805.84 OFFCURVE",
"637.44 728.24 OFFCURVE",
"637.44 635.52 CURVE SMOOTH",
"637.44 613.04 LINE",
"259.92 613.04 LINE",
"259.92 398.32 LINE"
);
}
);
width = 993.12;
}
);
leftKerningGroup = c;
rightKerningGroup = e;
unicode = 0065;
},
{
glyphname = f;
lastChange = "2018-12-12 17:56:20 +0000";
layers = (
{
anchors = (
{
name = bottom;
position = "{288.2, -40}";
},
{
name = top;
position = "{320.8, 1084}";
}
);
layerId = "4A173D0E-7CF5-44A8-8AF0-8145C41E8E72";
paths = (
{
closed = 1;
nodes = (
"43.7 983 LINE",
"39.5 962.2 OFFCURVE",
"37.4 946.8 OFFCURVE",
"37.4 926 CURVE SMOOTH",
"37.4 905.2 OFFCURVE",
"39.5 887.7 OFFCURVE",
"43.7 868.8 CURVE",
"286.2 872.9 LINE",
"644.4 868.8 LINE",
"648.6 887.7 OFFCURVE",
"650.7 905.2 OFFCURVE",
"650.7 926 CURVE SMOOTH",
"650.7 946.8 OFFCURVE",
"648.6 962.2 OFFCURVE",
"644.4 983 CURVE",
"284.5 979 LINE"
);
},
{
closed = 1;
nodes = (
"215.7 0 LINE",
"237.2 -4.2 OFFCURVE",
"264.7 -6.3 OFFCURVE",
"288.2 -6.3 CURVE SMOOTH",
"311.8 -6.3 OFFCURVE",
"339.4 -4.2 OFFCURVE",
"360.9 0 CURVE",
"360.9 911.4 LINE",
"347.1 1010 OFFCURVE",
"334.6 1098.3 OFFCURVE",
"334.6 1179.9 CURVE SMOOTH",
"334.6 1298.3 OFFCURVE",
"394 1365.1 OFFCURVE",
"491.3 1365.1 CURVE SMOOTH",
"549.1 1365.1 OFFCURVE",
"614.8 1351 OFFCURVE",
"673.7 1333.4 CURVE",
"696.7 1358.4 OFFCURVE",
"709.6 1399.4 OFFCURVE",
"709.5 1435.4 CURVE",
"652.8 1457.6 OFFCURVE",
"554 1478.1 OFFCURVE",
"482.9 1478.1 CURVE SMOOTH",
"293.8 1478.1 OFFCURVE",
"195.4 1350.8 OFFCURVE",
"195.4 1186.8 CURVE SMOOTH",
"195.4 1110 OFFCURVE",
"207.7 1014.6 OFFCURVE",
"215.7 915.3 CURVE"
);
}
);
width = 640.3;
},
{
anchors = (
{
name = bottom;
position = "{326.48, -40}";
},
{
name = top;
position = "{334.72, 1084}";
}
);
layerId = "6BD0978F-C27A-4FE6-8A6F-902073A9F586";
paths = (
{
closed = 1;
nodes = (
"3.68 1000.4 LINE",
"-4 965.68 OFFCURVE",
"-7.84 925.92 OFFCURVE",
"-7.84 891.2 CURVE SMOOTH",
"-7.84 856.48 OFFCURVE",
"-4 812.88 OFFCURVE",
"3.68 778.32 CURVE",
"324.48 784.16 LINE",
"720.96 778.32 LINE",
"728.64 812.88 OFFCURVE",
"732.48 856.48 OFFCURVE",
"732.48 891.2 CURVE SMOOTH",
"732.48 925.92 OFFCURVE",
"728.64 965.68 OFFCURVE",
"720.96 1000.4 CURVE",
"328 996.4 LINE"
);
},
{
closed = 1;
nodes = (
"175.68 0 LINE",
"223.28 -7.68 OFFCURVE",
"276.88 -11.52 OFFCURVE",
"326.48 -11.52 CURVE SMOOTH",
"377.92 -11.52 OFFCURVE",
"433.36 -7.68 OFFCURVE",
"480.96 0 CURVE",
"480.96 866.16 LINE",
"470.64 940.4 OFFCURVE",
"449.44 1033.92 OFFCURVE",
"449.44 1108.56 CURVE SMOOTH",
"449.44 1199.12 OFFCURVE",
"498.4 1245.04 OFFCURVE",
"583.52 1245.04 CURVE SMOOTH",
"637.84 1245.04 OFFCURVE",
"698.32 1229.2 OFFCURVE",
"738.08 1218.56 CURVE",
"778.48 1260.96 OFFCURVE",
"807.04 1354.16 OFFCURVE",
"805.2 1424.96 CURVE",
"736.32 1450.64 OFFCURVE",
"623.6 1479.84 OFFCURVE",
"498.56 1479.84 CURVE SMOOTH",
"290.32 1479.84 OFFCURVE",
"150.16 1329.92 OFFCURVE",
"150.16 1131.12 CURVE SMOOTH",
"150.16 1040.4 OFFCURVE",
"167.68 955.44 OFFCURVE",
"175.68 868.32 CURVE"
);
}
);
width = 715.12;
}
);
leftKerningGroup = f;
unicode = 0066;
},
{
glyphname = g;
lastChange = "2018-12-12 17:56:20 +0000";
layers = (
{
anchors = (
{
name = bottom;
position = "{510.9, -464}";
},
{
name = top;
position = "{515.7, 1084}";
}
);
layerId = "4A173D0E-7CF5-44A8-8AF0-8145C41E8E72";
paths = (
{
closed = 1;
nodes = (
"918.9 945.9 OFFCURVE",
"891.7 980.2 OFFCURVE",
"861.2 995.1 CURVE",
"755.2 957.1 OFFCURVE",
"731.4 859.2 OFFCURVE",
"731.4 751.8 CURVE",
"731.4 -0.4 LINE SMOOTH",
"731.4 -169.7 OFFCURVE",
"696.2 -319.7 OFFCURVE",
"461.3 -319.7 CURVE SMOOTH",
"388.4 -319.7 OFFCURVE",
"269.7 -295.8 OFFCURVE",
"187.5 -255.9 CURVE",
"164.3 -283.3 OFFCURVE",
"147.4 -332.3 OFFCURVE",
"145.5 -372.2 CURVE",
"230.6 -408.4 OFFCURVE",
"353.9 -440.1 OFFCURVE",
"476.1 -440.1 CURVE SMOOTH",
"621 -440.1 OFFCURVE",
"726.7 -382.8 OFFCURVE",
"782.1 -314.9 CURVE SMOOTH",
"846 -236.8 OFFCURVE",
"872.8 -126.4 OFFCURVE",
"872.8 76.1 CURVE SMOOTH",
"872.8 704.3 LINE SMOOTH",
"872.8 789.1 OFFCURVE",
"879.7 871.6 OFFCURVE",
"928.8 918.3 CURVE"
);
},
{
closed = 1;
nodes = (
"101.8 184.5 OFFCURVE",
"217.8 -16.2 OFFCURVE",
"442.9 -16.2 CURVE SMOOTH",
"611.3 -16.2 OFFCURVE",
"737.5 105.6 OFFCURVE",
"786.5 183.6 CURVE",
"763.3 310.8 LINE",
"705.6 202.8 OFFCURVE",
"585.8 112.8 OFFCURVE",
"464.2 112.8 CURVE SMOOTH",
"348.9 112.8 OFFCURVE",
"251.6 221.1 OFFCURVE",
"251.6 488.4 CURVE SMOOTH",
"251.6 763.3 OFFCURVE",
"365.3 877.3 OFFCURVE",
"493.5 877.3 CURVE SMOOTH",
"609 877.3 OFFCURVE",
"727.7 801.2 OFFCURVE",
"794.3 712 CURVE",
"810.3 845 LINE",
"733.8 927.3 OFFCURVE",
"637.3 1005.3 OFFCURVE",
"473.5 1005.3 CURVE SMOOTH",
"300.9 1005.3 OFFCURVE",
"101.8 849.5 OFFCURVE",
"101.8 488.5 CURVE SMOOTH"
);
}
);
width = 1047.4;
},
{
anchors = (
{
name = bottom;
position = "{526.56, -464}";
},
{
name = top;
position = "{545.28, 1084}";
}
);
layerId = "6BD0978F-C27A-4FE6-8A6F-902073A9F586";
paths = (
{
closed = 1;
nodes = (
"1004.16 909.36 OFFCURVE",
"956.08 983.68 OFFCURVE",
"916.88 1014.24 CURVE",
"741.28 1011.04 OFFCURVE",
"651.36 880.08 OFFCURVE",
"651.36 713.52 CURVE",
"651.36 -7.36 LINE SMOOTH",
"651.36 -129.68 OFFCURVE",
"595.28 -210.08 OFFCURVE",
"449.12 -210.08 CURVE SMOOTH",
"360.56 -210.08 OFFCURVE",
"264.48 -187.92 OFFCURVE",
"178.8 -149.76 CURVE",
"134.72 -201.52 OFFCURVE",
"102.16 -302.72 OFFCURVE",
"102 -375.68 CURVE",
"206.24 -415.36 OFFCURVE",
"352.16 -441.84 OFFCURVE",
"477.84 -441.84 CURVE SMOOTH",
"638.4 -441.84 OFFCURVE",
"773.68 -396.72 OFFCURVE",
"853.44 -295.76 CURVE SMOOTH",
"915.6 -215.92 OFFCURVE",
"956.32 -98.56 OFFCURVE",
"956.32 182.24 CURVE SMOOTH",
"956.32 709.52 LINE SMOOTH",
"956.32 773.44 OFFCURVE",
"978.88 829.84 OFFCURVE",
"1012.32 853.92 CURVE"
);
},
{
closed = 1;
nodes = (
"63.52 193.2 OFFCURVE",
"179.52 -19.68 OFFCURVE",
"423.76 -19.68 CURVE SMOOTH",
"564.32 -19.68 OFFCURVE",
"694 63.84 OFFCURVE",
"760.4 176.64 CURVE",
"716.32 394.32 LINE",
"663.84 286.32 OFFCURVE",
"582.32 231.12 OFFCURVE",
"502.48 231.12 CURVE SMOOTH",
"434.16 231.12 OFFCURVE",
"383.84 309.84 OFFCURVE",
"383.84 495.36 CURVE SMOOTH",
"383.84 681.52 OFFCURVE",
"422.72 795.52 OFFCURVE",
"519.6 795.52 CURVE SMOOTH",
"591.6 795.52 OFFCURVE",
"687.68 717.68 OFFCURVE",
"764.72 572.8 CURVE",
"815.52 827.6 LINE",
"765.12 915.12 OFFCURVE",
"659.92 1027.92 OFFCURVE",
"464.8 1027.92 CURVE SMOOTH",
"246.96 1027.92 OFFCURVE",
"63.52 840.8 OFFCURVE",
"63.52 497.2 CURVE SMOOTH"
);
}
);
width = 1071.76;
}
);
leftKerningGroup = d;
unicode = 0067;
},
{
glyphname = h;
lastChange = "2018-12-12 17:56:20 +0000";
layers = (
{
anchors = (
{
name = bottom;
position = "{550.3, -40}";
},
{
name = top;
position = "{245, 1562.9}";
}
);
layerId = "4A173D0E-7CF5-44A8-8AF0-8145C41E8E72";
paths = (
{
closed = 1;
nodes = (
"321.9 1369.1 LINE",
"321.9 1435.3 OFFCURVE",
"309.9 1470.1 OFFCURVE",
"242.7 1470.1 CURVE SMOOTH",
"188.8 1470.1 LINE",
"176.7 1458 LINE",
"176.7 0 LINE",
"196.3 -4.2 OFFCURVE",
"220 -6.3 OFFCURVE",
"249.2 -6.3 CURVE SMOOTH",
"276.8 -6.3 OFFCURVE",
"302.5 -4.2 OFFCURVE",
"321.9 0 CURVE"
);
},
{
closed = 1;
nodes = (
"922.8 684.6 LINE",
"922.8 854.8 OFFCURVE",
"855.1 997.1 OFFCURVE",
"665.5 997.1 CURVE SMOOTH",
"519.7 997.1 OFFCURVE",
"368.3 918.6 OFFCURVE",
"281.9 809.6 CURVE",
"281.9 652.9 LINE",
"347.6 769.4 OFFCURVE",
"506.3 862.7 OFFCURVE",
"628.8 862.7 CURVE SMOOTH",
"744 862.7 OFFCURVE",
"775.3 796.1 OFFCURVE",
"775.3 638 CURVE SMOOTH",
"775.3 85.3 LINE SMOOTH",
"775.3 19.9 OFFCURVE",
"796.5 -12.2 OFFCURVE",
"852.5 -12.2 CURVE SMOOTH",
"887 -12.2 OFFCURVE",
"924.9 0.7 OFFCURVE",
"946.3 19.8 CURVE",
"927.3 64.2 OFFCURVE",
"922.8 124.7 OFFCURVE",
"922.8 189.5 CURVE SMOOTH"
);
}
);
width = 1087.9;
},
{
anchors = (
{
name = bottom;
position = "{555.52, -40}";
},
{
name = top;
position = "{262.4, 1543.76}";
}
);
layerId = "6BD0978F-C27A-4FE6-8A6F-902073A9F586";
paths = (
{
closed = 1;
nodes = (
"424.56 1283.84 LINE",
"424.56 1423.12 OFFCURVE",
"377.76 1471.84 OFFCURVE",
"254.88 1471.84 CURVE SMOOTH",
"133.12 1471.84 LINE",
"119.28 1458 LINE",
"119.28 0 LINE",
"166.72 -7.68 OFFCURVE",
"220 -11.52 OFFCURVE",
"270.08 -11.52 CURVE SMOOTH",
"325.52 -11.52 OFFCURVE",
"380.8 -7.68 OFFCURVE",
"424.56 0 CURVE"
);
},
{
closed = 1;
nodes = (
"971.52 660.24 LINE",
"971.52 868.72 OFFCURVE",
"874.24 1016.24 OFFCURVE",
"691.6 1016.24 CURVE SMOOTH",
"549.28 1016.24 OFFCURVE",
"443.12 929.04 OFFCURVE",
"349.76 837.44 CURVE",
"349.76 564.16 LINE",
"410.24 689.36 OFFCURVE",
"511.52 735.68 OFFCURVE",
"573.12 735.68 CURVE SMOOTH",
"639.6 735.68 OFFCURVE",
"658.72 693.44 OFFCURVE",
"658.72 603.2 CURVE SMOOTH",
"658.72 177.52 LINE SMOOTH",
"658.72 52.96 OFFCURVE",
"700.8 -15.68 OFFCURVE",
"826.4 -15.68 CURVE SMOOTH",
"904.4 -15.68 OFFCURVE",
"975.36 12.88 OFFCURVE",
"1021.12 51.12 CURVE",
"984.72 102.48 OFFCURVE",
"971.52 171.68 OFFCURVE",
"971.52 250.4 CURVE SMOOTH"
);
}
);
width = 1086.16;
}
);
rightKerningGroup = h;
unicode = 0068;
},
{
glyphname = k;
lastChange = "2018-12-12 17:56:20 +0000";
layers = (
{
anchors = (
{
name = bottom;
position = "{530.9, -40}";
},
{
name = top;
position = "{488, 1084}";
}
);
layerId = "4A173D0E-7CF5-44A8-8AF0-8145C41E8E72";
paths = (
{
closed = 1;
nodes = (
"321.9 1369.1 LINE",
"321.9 1435.3 OFFCURVE",
"309.9 1470.1 OFFCURVE",
"242.7 1470.1 CURVE SMOOTH",
"188.8 1470.1 LINE",
"176.7 1458 LINE",
"176.7 0 LINE",
"196.2 -4.2 OFFCURVE",
"219.9 -6.3 OFFCURVE",
"249.2 -6.3 CURVE SMOOTH",
"276.7 -6.3 OFFCURVE",
"302.5 -4.2 OFFCURVE",
"321.9 0 CURVE"
);
},
{
closed = 1;
nodes = (
"761.2 358.3 LINE",
"700 494.4 OFFCURVE",
"633.3 548.6 OFFCURVE",
"489.2 548.6 CURVE SMOOTH",
"247.1 548.6 LINE",
"247.1 434.8 LINE",
"313.9 441 LINE SMOOTH",
"361.7 445.1 OFFCURVE",
"401.6 447.3 OFFCURVE",
"429.3 447.3 CURVE SMOOTH",
"542 447.3 OFFCURVE",
"579.7 414.1 OFFCURVE",
"630.4 299.8 CURVE SMOOTH",
"722.5 91.8 LINE SMOOTH",
"750.8 27.7 OFFCURVE",
"771.7 -12.2 OFFCURVE",
"837.1 -12.2 CURVE SMOOTH",
"875.5 -12.2 OFFCURVE",
"917.7 9 OFFCURVE",
"935.5 32.8 CURVE",
"900.3 57.7 OFFCURVE",
"869.1 113.9 OFFCURVE",
"839.5 182 CURVE SMOOTH"
);
},
{
closed = 1;
nodes = (
"866.4 969 LINE",
"854.4 985 LINE",
"826.7 987 OFFCURVE",
"808.8 987.1 OFFCURVE",
"780.6 987.1 CURVE SMOOTH",
"719.3 987.1 OFFCURVE",
"697.5 960.4 OFFCURVE",
"667.1 914.7 CURVE SMOOTH",
"453.4 597.4 LINE SMOOTH",
"441.2 580.7 OFFCURVE",
"427.3 570.9 OFFCURVE",
"408.7 570.9 CURVE SMOOTH",
"258.6 563.2 LINE",
"258.6 494.9 LINE",
"421.2 494.9 LINE SMOOTH",
"502.5 494.9 OFFCURVE",
"561.6 520.8 OFFCURVE",
"612.2 597.2 CURVE SMOOTH"
);
}
);
width = 979.8;
},
{
anchors = (
{
name = bottom;
position = "{546.56, -40}";
},
{
name = top;
position = "{488, 1084}";
}
);
layerId = "6BD0978F-C27A-4FE6-8A6F-902073A9F586";
paths = (
{
closed = 1;
nodes = (
"424.56 1283.84 LINE",
"424.56 1423.12 OFFCURVE",
"377.76 1471.84 OFFCURVE",
"254.88 1471.84 CURVE SMOOTH",
"133.12 1471.84 LINE",
"119.28 1458 LINE",
"119.28 0 LINE",
"164.88 -7.68 OFFCURVE",
"218.16 -11.52 OFFCURVE",
"270.08 -11.52 CURVE SMOOTH",
"323.68 -11.52 OFFCURVE",
"380.8 -7.68 OFFCURVE",
"424.56 0 CURVE"
);
},
{
closed = 1;
nodes = (
"886.48 398.32 LINE",
"839.2 536.16 OFFCURVE",
"725.52 593.84 OFFCURVE",
"579.68 593.84 CURVE SMOOTH",
"266.24 593.84 LINE",
"266.24 379.12 LINE",
"346.96 388.8 LINE SMOOTH",
"391.28 394.64 OFFCURVE",
"429.44 400.32 OFFCURVE",
"486.72 400.32 CURVE SMOOTH",
"542 400.32 OFFCURVE",
"574.48 381.04 OFFCURVE",
"602.56 296.32 CURVE SMOOTH",
"661.6 123.12 LINE SMOOTH",
"695.12 22.48 OFFCURVE",
"731.68 -15.68 OFFCURVE",
"821.44 -15.68 CURVE SMOOTH",
"901.6 -15.68 OFFCURVE",
"982.08 26.4 OFFCURVE",
"1031.2 81.52 CURVE",
"975.12 122.08 OFFCURVE",
"957.84 181.76 OFFCURVE",
"935.2 251.6 CURVE SMOOTH"
);
},
{
closed = 1;
nodes = (
"977.76 986.4 LINE",
"965.76 1002.4 LINE",
"908.48 1004.4 OFFCURVE",
"857.52 1006.24 OFFCURVE",
"791.04 1006.24 CURVE SMOOTH",
"707.12 1006.24 OFFCURVE",
"654 967.36 OFFCURVE",
"616.64 892.08 CURVE SMOOTH",
"512.56 691.36 LINE SMOOTH",
"496.88 662.48 OFFCURVE",
"484.72 656.16 OFFCURVE",
"455.68 656.16 CURVE SMOOTH",
"303.84 653.68 LINE",
"303.84 510.56 LINE",
"476.88 510.56 LINE SMOOTH",
"650.4 510.56 OFFCURVE",
"763.44 569.52 OFFCURVE",
"824.48 687.68 CURVE SMOOTH"
);
}
);
width = 1045.92;
}
);
rightKerningGroup = k;
unicode = 006B;
},
{
glyphname = l;
lastChange = "2018-12-12 17:56:20 +0000";
layers = (
{
anchors = (
{
name = bottom;
position = "{329.6, -40}";
},
{
name = top;
position = "{239.3, 1562.9}";
}
);
layerId = "4A173D0E-7CF5-44A8-8AF0-8145C41E8E72";
paths = (
{
closed = 1;
nodes = (
"392.7 114.5 LINE",
"343.9 114.5 OFFCURVE",
"318 142.8 OFFCURVE",
"318 199.1 CURVE SMOOTH",
"318 1369.1 LINE SMOOTH",
"318 1435.3 OFFCURVE",
"306 1470.1 OFFCURVE",
"238.8 1470.1 CURVE SMOOTH",
"184.9 1470.1 LINE",
"172.8 1458 LINE",
"172.8 158.3 LINE SMOOTH",
"172.8 49.6 OFFCURVE",
"240.8 -8.1 OFFCURVE",
"341.4 -8.1 CURVE SMOOTH",
"383.4 -8.1 OFFCURVE",
"448.2 -1.9 OFFCURVE",
"487.4 4.3 CURVE",
"489.6 13 OFFCURVE",
"489.7 23.9 OFFCURVE",
"489.7 34.6 CURVE SMOOTH",
"489.7 63.8 OFFCURVE",
"485.4 93.2 OFFCURVE",
"477 114.5 CURVE"
);
}
);
width = 565.5;
},
{
anchors = (
{
name = bottom;
position = "{357.44, -40}";
},
{
name = top;
position = "{261.92, 1543.76}";
}
);
layerId = "6BD0978F-C27A-4FE6-8A6F-902073A9F586";
paths = (
{
closed = 1;
nodes = (
"509.28 227.6 LINE",
"446.56 227.6 OFFCURVE",
"422.4 261.12 OFFCURVE",
"422.4 322.64 CURVE SMOOTH",
"422.4 1283.84 LINE SMOOTH",
"422.4 1423.12 OFFCURVE",
"375.6 1471.84 OFFCURVE",
"252.72 1471.84 CURVE SMOOTH",
"130.96 1471.84 LINE",
"117.12 1458 LINE",
"117.12 267.92 LINE SMOOTH",
"117.12 77.44 OFFCURVE",
"185.12 -9.84 OFFCURVE",
"365.76 -9.84 CURVE SMOOTH",
"442.56 -9.84 OFFCURVE",
"521.28 -0.16 OFFCURVE",
"581.36 9.52 CURVE",
"587.04 30.4 OFFCURVE",
"588.88 56.96 OFFCURVE",
"588.88 79.84 CURVE SMOOTH",
"588.88 129.92 OFFCURVE",
"579.36 183.68 OFFCURVE",
"564 227.6 CURVE"
);
}
);
width = 626.4;
}
);
leftKerningGroup = l;
rightKerningGroup = l;
unicode = 006C;
},
{
glyphname = m;
lastChange = "2018-12-12 17:56:20 +0000";
layers = (
{
anchors = (
{
name = bottom;
position = "{796.8, -40}";
},
{
name = top;
position = "{790.2, 1084}";
}
);
layerId = "4A173D0E-7CF5-44A8-8AF0-8145C41E8E72";
paths = (
{
closed = 1;
nodes = (
"188.8 987.4 LINE",
"176.7 973.4 LINE",
"176.7 0 LINE",
"196.2 -4.2 OFFCURVE",
"222.1 -6.3 OFFCURVE",
"251.4 -6.3 CURVE SMOOTH",
"278.9 -6.3 OFFCURVE",
"304.8 -4.2 OFFCURVE",
"324.2 0 CURVE",
"324.2 884.3 LINE SMOOTH",
"324.2 950.5 OFFCURVE",
"311.3 987.4 OFFCURVE",
"244.3 987.4 CURVE SMOOTH"
);
},
{
closed = 1;
nodes = (
"722.1 0 LINE",
"741.6 -4.2 OFFCURVE",
"767.5 -6.3 OFFCURVE",
"796.8 -6.3 CURVE SMOOTH",
"824.3 -6.3 OFFCURVE",
"850.2 -4.2 OFFCURVE",
"869.6 0 CURVE",
"869.6 690.6 LINE SMOOTH",
"869.6 859.4 OFFCURVE",
"792.3 999 OFFCURVE",
"618.3 999 CURVE SMOOTH",
"489.4 999 OFFCURVE",
"354.1 917.2 OFFCURVE",
"271.4 784.7 CURVE",
"271.4 620.6 LINE",
"335.7 767.5 OFFCURVE",
"479.9 864.5 OFFCURVE",
"586.7 864.6 CURVE SMOOTH",
"685.5 864.6 OFFCURVE",
"722.1 798.8 OFFCURVE",
"722.1 639.8 CURVE"
);
},
{
closed = 1;
nodes = (
"1269.4 85.3 LINE SMOOTH",
"1269.4 19.9 OFFCURVE",
"1290.6 -12.2 OFFCURVE",
"1346.6 -12.2 CURVE SMOOTH",
"1381.1 -12.2 OFFCURVE",
"1419 0.7 OFFCURVE",
"1440.4 19.8 CURVE",
"1421.4 64.2 OFFCURVE",
"1416.9 124.7 OFFCURVE",
"1416.9 189.5 CURVE SMOOTH",
"1416.9 690.4 LINE SMOOTH",
"1416.9 859.2 OFFCURVE",
"1340.1 999 OFFCURVE",
"1166 999 CURVE SMOOTH",
"1037.3 999 OFFCURVE",
"915.8 925.3 OFFCURVE",
"812.6 817.3 CURVE",
"812.6 620 LINE",
"888.9 776.9 OFFCURVE",
"1029.3 864.6 OFFCURVE",
"1133.8 864.6 CURVE SMOOTH",
"1232.6 864.6 OFFCURVE",
"1269.4 800.8 OFFCURVE",
"1269.4 641.8 CURVE"
);
}
);
width = 1582;
},
{
anchors = (
{
name = bottom;
position = "{810.72, -40}";
},
{
name = top;
position = "{793.68, 1084}";
}
);
layerId = "6BD0978F-C27A-4FE6-8A6F-902073A9F586";
paths = (
{
closed = 1;
nodes = (
"133.12 1011.76 LINE",
"119.28 997.76 LINE",
"119.28 0 LINE",
"164.88 -7.68 OFFCURVE",
"223.84 -11.52 OFFCURVE",
"275.76 -11.52 CURVE SMOOTH",
"329.36 -11.52 OFFCURVE",
"388.32 -7.68 OFFCURVE",
"432.08 0 CURVE",
"432.08 785.12 LINE SMOOTH",
"432.08 924.4 OFFCURVE",
"368.72 1011.76 OFFCURVE",
"249.52 1011.76 CURVE SMOOTH"
);
},
{
closed = 1;
nodes = (
"654.24 0 LINE",
"699.84 -7.68 OFFCURVE",
"758.8 -11.52 OFFCURVE",
"810.72 -11.52 CURVE SMOOTH",
"864.32 -11.52 OFFCURVE",
"923.28 -7.68 OFFCURVE",
"967.04 0 CURVE",
"967.04 701.04 LINE SMOOTH",
"967.04 883.76 OFFCURVE",
"867.12 1016.4 OFFCURVE",
"693.12 1016.4 CURVE SMOOTH",
"548.56 1016.4 OFFCURVE",
"425.44 903.28 OFFCURVE",
"330.56 796.88 CURVE",
"330.56 526.64 LINE",
"365.28 619.6 OFFCURVE",
"478.16 734 OFFCURVE",
"564.08 735.84 CURVE SMOOTH",
"607.2 735.84 OFFCURVE",
"654.24 708.32 OFFCURVE",
"654.24 601.52 CURVE"
);
},
{
closed = 1;
nodes = (
"1189.36 177.52 LINE SMOOTH",
"1189.36 52.96 OFFCURVE",
"1231.44 -15.68 OFFCURVE",
"1357.04 -15.68 CURVE SMOOTH",
"1435.04 -15.68 OFFCURVE",
"1506 12.88 OFFCURVE",
"1551.76 51.12 CURVE",
"1515.36 102.48 OFFCURVE",
"1502.16 171.68 OFFCURVE",
"1502.16 250.4 CURVE SMOOTH",
"1502.16 697.36 LINE SMOOTH",
"1502.16 880.08 OFFCURVE",
"1411.44 1016.4 OFFCURVE",
"1235.6 1016.4 CURVE SMOOTH",
"1094.72 1016.4 OFFCURVE",
"947.12 913.12 OFFCURVE",
"857.84 805.12 CURVE",
"857.84 515.6 LINE",
"904.56 618.56 OFFCURVE",
"1017.12 735.84 OFFCURVE",
"1095.52 735.84 CURVE SMOOTH",
"1138.64 735.84 OFFCURVE",
"1189.36 710.32 OFFCURVE",
"1189.36 603.52 CURVE"
);
}
);
width = 1616.8;
}
);
leftKerningGroup = m;
rightKerningGroup = h;
unicode = 006D;
},
{
glyphname = n;
lastChange = "2018-12-12 17:56:20 +0000";
layers = (
{
anchors = (
{
name = bottom;
position = "{552.6, -40}";
},
{
name = top;
position = "{554.4, 1084}";
}
);
layerId = "4A173D0E-7CF5-44A8-8AF0-8145C41E8E72";
paths = (
{
closed = 1;
nodes = (
"188.8 987.4 LINE",
"176.7 975.3 LINE",
"176.7 0 LINE",
"196.2 -4.2 OFFCURVE",
"222.1 -6.3 OFFCURVE",
"251.4 -6.3 CURVE SMOOTH",
"278.9 -6.3 OFFCURVE",
"304.8 -4.2 OFFCURVE",
"324.2 0 CURVE",
"324.2 884.3 LINE SMOOTH",
"324.2 950.5 OFFCURVE",
"311.4 987.4 OFFCURVE",
"244.4 987.4 CURVE SMOOTH"
);
},
{
closed = 1;
nodes = (
"925.1 686.5 LINE",
"925.1 856.7 OFFCURVE",
"857.4 999 OFFCURVE",
"667.8 999 CURVE SMOOTH",
"522 999 OFFCURVE",
"370.6 920.5 OFFCURVE",
"284.2 811.5 CURVE",
"284.2 654.8 LINE",
"349.9 771.3 OFFCURVE",
"508.6 864.6 OFFCURVE",
"631.1 864.6 CURVE SMOOTH",
"746.3 864.6 OFFCURVE",
"777.6 798 OFFCURVE",
"777.6 639.9 CURVE SMOOTH",
"777.6 85.3 LINE SMOOTH",
"777.6 19.9 OFFCURVE",
"798.8 -12.2 OFFCURVE",
"854.8 -12.2 CURVE SMOOTH",
"889.3 -12.2 OFFCURVE",
"927.2 0.7 OFFCURVE",
"948.6 19.8 CURVE",
"929.6 64.2 OFFCURVE",
"925.1 124.7 OFFCURVE",
"925.1 189.5 CURVE SMOOTH"
);
}
);
width = 1090.2;
},
{
anchors = (
{
name = bottom;
position = "{563.04, -40}";
},
{
name = top;
position = "{561.36, 1084}";
}
);
layerId = "6BD0978F-C27A-4FE6-8A6F-902073A9F586";
paths = (
{
closed = 1;
nodes = (
"133.12 1011.76 LINE",
"119.28 997.92 LINE",
"119.28 0 LINE",
"164.88 -7.68 OFFCURVE",
"223.84 -11.52 OFFCURVE",
"275.76 -11.52 CURVE SMOOTH",
"329.36 -11.52 OFFCURVE",
"388.32 -7.68 OFFCURVE",
"432.08 0 CURVE",
"432.08 785.12 LINE SMOOTH",
"432.08 924.4 OFFCURVE",
"370.56 1011.76 OFFCURVE",
"251.36 1011.76 CURVE SMOOTH"
);
},
{
closed = 1;
nodes = (
"979.04 660.4 LINE",
"979.04 868.88 OFFCURVE",
"881.76 1016.4 OFFCURVE",
"699.12 1016.4 CURVE SMOOTH",
"556.8 1016.4 OFFCURVE",
"450.64 929.2 OFFCURVE",
"357.28 837.6 CURVE",
"357.28 564.32 LINE",
"417.76 689.52 OFFCURVE",
"519.04 735.84 OFFCURVE",
"580.64 735.84 CURVE SMOOTH",
"647.12 735.84 OFFCURVE",
"666.24 693.6 OFFCURVE",
"666.24 603.36 CURVE SMOOTH",
"666.24 177.52 LINE SMOOTH",
"666.24 52.96 OFFCURVE",
"708.32 -15.68 OFFCURVE",
"833.92 -15.68 CURVE SMOOTH",
"911.92 -15.68 OFFCURVE",
"982.88 12.88 OFFCURVE",
"1028.64 51.12 CURVE",
"992.24 102.48 OFFCURVE",
"979.04 171.68 OFFCURVE",
"979.04 250.4 CURVE SMOOTH"
);
}
);
width = 1093.68;
}
);
leftKerningGroup = m;
rightKerningGroup = h;
unicode = 006E;
},
{
glyphname = o;
lastChange = "2018-12-12 17:56:20 +0000";
layers = (
{
anchors = (
{
name = bottom;
position = "{518.2, -40}";
},
{
name = top;
position = "{518.2, 1084}";
}
);
layerId = "4A173D0E-7CF5-44A8-8AF0-8145C41E8E72";
paths = (
{
closed = 1;
nodes = (
"934.8 649.4 OFFCURVE",
"898.7 792.7 OFFCURVE",
"794.6 898.7 CURVE SMOOTH",
"723.9 969.3 OFFCURVE",
"632.8 1005.3 OFFCURVE",
"518.2 1005.3 CURVE SMOOTH",
"405.5 1005.3 OFFCURVE",
"314.4 969.3 OFFCURVE",
"243.7 898.7 CURVE SMOOTH",
"139.6 792.7 OFFCURVE",
"103.5 649.4 OFFCURVE",
"103.5 490.5 CURVE SMOOTH",
"103.5 329.7 OFFCURVE",
"139.6 188.3 OFFCURVE",
"243.7 82.3 CURVE SMOOTH",
"314.4 11.7 OFFCURVE",
"405.5 -24.3 OFFCURVE",
"518.2 -24.3 CURVE SMOOTH",
"632.8 -24.3 OFFCURVE",
"723.9 11.7 OFFCURVE",
"794.6 82.3 CURVE SMOOTH",
"898.7 188.3 OFFCURVE",
"934.8 329.7 OFFCURVE",
"934.8 490.5 CURVE SMOOTH"
);
},
{
closed = 1;
nodes = (
"257.1 686.7 OFFCURVE",
"320.5 890.5 OFFCURVE",
"520.1 890.5 CURVE SMOOTH",
"717.8 890.5 OFFCURVE",
"781.2 686.7 OFFCURVE",
"781.2 490.5 CURVE SMOOTH",
"781.2 292.4 OFFCURVE",
"717.8 92.4 OFFCURVE",
"520.1 92.4 CURVE SMOOTH",
"320.5 92.4 OFFCURVE",
"257.1 292.4 OFFCURVE",
"257.1 490.5 CURVE SMOOTH"
);
}
);
width = 1038.3;
},
{
anchors = (
{
name = bottom;
position = "{521.68, -40}";
},
{
name = top;
position = "{521.68, 1084}";
}
);
layerId = "6BD0978F-C27A-4FE6-8A6F-902073A9F586";
paths = (
{
closed = 1;
nodes = (
"983.52 673.76 OFFCURVE",
"945.68 804.88 OFFCURVE",
"839.84 910.88 CURVE SMOOTH",
"756.96 991.92 OFFCURVE",
"646.72 1027.92 OFFCURVE",
"521.68 1027.92 CURVE SMOOTH",
"396.8 1027.92 OFFCURVE",
"286.56 991.92 OFFCURVE",
"203.68 910.88 CURVE SMOOTH",
"97.84 804.88 OFFCURVE",
"60 673.76 OFFCURVE",
"60 499.2 CURVE SMOOTH",
"60 324.48 OFFCURVE",
"97.84 193.52 OFFCURVE",
"203.68 87.52 CURVE SMOOTH",
"286.56 6.48 OFFCURVE",
"396.8 -29.52 OFFCURVE",
"521.68 -29.52 CURVE SMOOTH",
"646.72 -29.52 OFFCURVE",
"756.96 6.48 OFFCURVE",
"839.84 87.52 CURVE SMOOTH",
"945.68 193.52 OFFCURVE",
"983.52 324.48 OFFCURVE",
"983.52 499.2 CURVE SMOOTH"
);
},
{
closed = 1;
nodes = (
"380.64 664.08 OFFCURVE",
"398.8 794.8 OFFCURVE",
"521.84 794.8 CURVE SMOOTH",
"644.72 794.8 OFFCURVE",
"662.88 664.08 OFFCURVE",
"662.88 499.2 CURVE SMOOTH",
"662.88 334.16 OFFCURVE",
"644.72 203.76 OFFCURVE",
"521.84 203.76 CURVE SMOOTH",
"398.8 203.76 OFFCURVE",
"380.64 334.16 OFFCURVE",
"380.64 499.2 CURVE SMOOTH"
);
}
);
width = 1043.52;
}
);
leftKerningGroup = c;
rightKerningGroup = o;
unicode = 006F;
},
{
glyphname = p;
lastChange = "2018-12-12 17:56:20 +0000";
layers = (
{
anchors = (
{
name = bottom;
position = "{524, -40}";
},
{
name = top;
position = "{524, 1084}";
}
);
layerId = "4A173D0E-7CF5-44A8-8AF0-8145C41E8E72";
paths = (
{
closed = 1;
nodes = (
"188.8 987.4 LINE",
"176.7 975.3 LINE",
"176.7 -418 LINE",
"188.8 -430.1 LINE",
"242.7 -430.1 LINE SMOOTH",
"309.9 -430.1 OFFCURVE",
"322 -395.3 OFFCURVE",
"322 -329.1 CURVE SMOOTH",
"322 882.3 LINE SMOOTH",
"322 949.8 OFFCURVE",
"308 987.4 OFFCURVE",
"240.6 987.4 CURVE SMOOTH"
);
},
{
closed = 1;
nodes = (
"949.6 800.8 OFFCURVE",
"833.6 1005.3 OFFCURVE",
"614.2 1005.3 CURVE SMOOTH",
"431.4 1005.3 OFFCURVE",
"296 875.3 OFFCURVE",
"247.7 754.9 CURVE",
"274.2 614.8 LINE",
"324.4 777.6 OFFCURVE",
"464.5 876.3 OFFCURVE",
"585.2 876.3 CURVE SMOOTH",
"696.8 876.3 OFFCURVE",
"799.8 769.9 OFFCURVE",
"799.8 502.6 CURVE SMOOTH",
"799.8 225.9 OFFCURVE",
"682.3 111.8 OFFCURVE",
"561.7 111.8 CURVE SMOOTH",
"442.8 111.8 OFFCURVE",
"338 188.4 OFFCURVE",
"261.9 246.7 CURVE",
"253.5 115.5 LINE",
"349.1 40.7 OFFCURVE",
"455 -16.2 OFFCURVE",
"576 -16.2 CURVE SMOOTH",
"750.6 -16.2 OFFCURVE",
"949.6 137.7 OFFCURVE",
"949.6 502.5 CURVE SMOOTH"
);
}
);
width = 1051.4;
},
{
anchors = (
{
name = bottom;
position = "{524, -40}";
},
{
name = top;
position = "{524, 1084}";
}
);
layerId = "6BD0978F-C27A-4FE6-8A6F-902073A9F586";
paths = (
{
closed = 1;
nodes = (
"133.12 1011.76 LINE",
"119.28 997.92 LINE",
"119.28 -418 LINE",
"133.12 -431.84 LINE",
"254.88 -431.84 LINE SMOOTH",
"377.76 -431.84 OFFCURVE",
"426.4 -383.12 OFFCURVE",
"426.4 -243.84 CURVE SMOOTH",
"426.4 748.32 LINE SMOOTH",
"426.4 911.52 OFFCURVE",
"342.8 1011.76 OFFCURVE",
"216.24 1011.76 CURVE SMOOTH"
);
},
{
closed = 1;
nodes = (
"1012.24 814.72 OFFCURVE",
"896.24 1027.92 OFFCURVE",
"652.48 1027.92 CURVE SMOOTH",
"455.76 1027.92 OFFCURVE",
"296 863.12 OFFCURVE",
"277.28 700.96 CURVE",
"347.28 524.32 LINE",
"400.96 735.84 OFFCURVE",
"508 777.12 OFFCURVE",
"571.28 777.12 CURVE SMOOTH",
"641.12 777.12 OFFCURVE",
"691.92 698.56 OFFCURVE",
"691.92 513.04 CURVE SMOOTH",
"691.92 328.56 OFFCURVE",
"652.72 212.72 OFFCURVE",
"556.48 212.72 CURVE SMOOTH",
"491.52 212.72 OFFCURVE",
"407.6 264.96 OFFCURVE",
"329.76 328.48 CURVE",
"279.6 106.8 LINE",
"368.24 52.88 OFFCURVE",
"472.4 -19.68 OFFCURVE",
"610.8 -19.68 CURVE SMOOTH",
"830.64 -19.68 OFFCURVE",
"1012.24 167.28 OFFCURVE",
"1012.24 511.2 CURVE SMOOTH"
);
}
);
width = 1075.76;
}
);
leftKerningGroup = m;
unicode = 0070;
},
{
glyphname = q;
lastChange = "2018-12-12 17:56:20 +0000";
layers = (
{
anchors = (
{
name = bottom;
position = "{522, -40}";
},
{
name = top;
position = "{522, 1084}";
}
);
layerId = "4A173D0E-7CF5-44A8-8AF0-8145C41E8E72";
paths = (
{
closed = 1;
nodes = (
"101.8 184.5 OFFCURVE",
"217.8 -16.2 OFFCURVE",
"442.9 -16.2 CURVE SMOOTH",
"611.3 -16.2 OFFCURVE",
"737.5 101.8 OFFCURVE",
"786.5 179.8 CURVE",
"763.3 310.8 LINE",
"705.6 202.8 OFFCURVE",
"585.8 112.8 OFFCURVE",
"464.2 112.8 CURVE SMOOTH",
"352.7 112.8 OFFCURVE",
"251.6 221.1 OFFCURVE",
"251.6 488.4 CURVE SMOOTH",
"251.6 763.3 OFFCURVE",
"369.1 877.3 OFFCURVE",
"493.5 877.3 CURVE SMOOTH",
"609 877.3 OFFCURVE",
"727.7 801.2 OFFCURVE",
"794.3 712 CURVE",
"810.3 848.8 LINE",
"733.8 931.1 OFFCURVE",
"637.3 1005.3 OFFCURVE",
"473.5 1005.3 CURVE SMOOTH",
"300.9 1005.3 OFFCURVE",
"101.8 849.5 OFFCURVE",
"101.8 488.5 CURVE SMOOTH"
);
},
{
closed = 1;
nodes = (
"727.5 -329.1 LINE",
"727.5 -395.3 OFFCURVE",
"739.5 -430.1 OFFCURVE",
"806.7 -430.1 CURVE SMOOTH",
"860.6 -430.1 LINE",
"872.7 -418 LINE",
"872.7 704.3 LINE SMOOTH",
"872.7 789.1 OFFCURVE",
"879.6 871.6 OFFCURVE",
"928.7 918.3 CURVE",
"918.6 945.9 OFFCURVE",
"891.6 980.2 OFFCURVE",
"861.1 995.1 CURVE",
"755.1 957.1 OFFCURVE",
"727.5 859.2 OFFCURVE",
"727.5 751.8 CURVE SMOOTH"
);
}
);
width = 1047.7;
},
{
anchors = (
{
name = bottom;
position = "{522, -40}";
},
{
name = top;
position = "{522, 1084}";
}
);
layerId = "6BD0978F-C27A-4FE6-8A6F-902073A9F586";
paths = (
{
closed = 1;
nodes = (
"63.52 193.2 OFFCURVE",
"179.52 -19.68 OFFCURVE",
"423.76 -19.68 CURVE SMOOTH",
"564.32 -19.68 OFFCURVE",
"694 63.52 OFFCURVE",
"760.4 176.32 CURVE",
"716.32 394.32 LINE",
"663.84 286.32 OFFCURVE",
"582.32 231.12 OFFCURVE",
"502.48 231.12 CURVE SMOOTH",
"434.48 231.12 OFFCURVE",
"383.84 309.84 OFFCURVE",
"383.84 495.36 CURVE SMOOTH",
"383.84 681.52 OFFCURVE",
"423.04 795.52 OFFCURVE",
"519.6 795.52 CURVE SMOOTH",
"591.6 795.52 OFFCURVE",
"687.68 717.68 OFFCURVE",
"764.72 572.8 CURVE",
"815.52 827.92 LINE",
"765.12 915.44 OFFCURVE",
"659.92 1027.92 OFFCURVE",
"464.8 1027.92 CURVE SMOOTH",
"246.96 1027.92 OFFCURVE",
"63.52 840.8 OFFCURVE",
"63.52 497.2 CURVE SMOOTH"
);
},
{
closed = 1;
nodes = (
"649.2 -243.84 LINE",
"649.2 -383.12 OFFCURVE",
"696 -431.84 OFFCURVE",
"818.88 -431.84 CURVE SMOOTH",
"940.64 -431.84 LINE",
"954.48 -418 LINE",
"954.48 709.52 LINE SMOOTH",
"954.48 773.44 OFFCURVE",
"977.04 829.84 OFFCURVE",
"1010.48 853.92 CURVE",
"998.64 909.36 OFFCURVE",
"954.24 983.68 OFFCURVE",
"915.04 1014.24 CURVE",
"739.44 1011.04 OFFCURVE",
"649.2 880.08 OFFCURVE",
"649.2 713.52 CURVE SMOOTH"
);
}
);
width = 1077.28;
}
);
leftKerningGroup = d;
unicode = 0071;
},
{
glyphname = r;
lastChange = "2018-12-12 17:56:20 +0000";
layers = (
{
anchors = (
{
name = bottom;
position = "{269.3, -40}";
},
{
name = top;
position = "{395.3, 1084}";
}
);
layerId = "4A173D0E-7CF5-44A8-8AF0-8145C41E8E72";
paths = (
{
closed = 1;
nodes = (
"651.8 992.7 OFFCURVE",
"619.8 995 OFFCURVE",
"597.6 995 CURVE SMOOTH",
"373 995 OFFCURVE",
"284.8 777.6 OFFCURVE",
"284 606.8 CURVE",
"310.5 574 LINE",
"336.3 674.3 OFFCURVE",
"407.6 848.8 OFFCURVE",
"585.5 848.8 CURVE",
"608.2 848.6 OFFCURVE",
"632.7 848.4 OFFCURVE",
"655.4 845.8 CURVE",
"680.9 884.6 OFFCURVE",
"689.9 940.9 OFFCURVE",
"689.9 986.5 CURVE"
);
},
{
closed = 1;
nodes = (
"158.2 877.3 OFFCURVE",
"194.6 807.5 OFFCURVE",
"194.6 708.4 CURVE SMOOTH",
"194.6 0 LINE",
"214.1 -4.2 OFFCURVE",
"240 -6.3 OFFCURVE",
"269.3 -6.3 CURVE SMOOTH",
"296.8 -6.3 OFFCURVE",
"322.7 -4.2 OFFCURVE",
"342.1 0 CURVE",
"342.1 722.9 LINE",
"337.3 858.6 OFFCURVE",
"290.8 958.4 OFFCURVE",
"186.2 995.1 CURVE",
"157.6 978.3 OFFCURVE",
"130.6 940.2 OFFCURVE",
"122.4 912.6 CURVE"
);
}
);
width = 705.1;
},
{
anchors = (
{
name = bottom;
position = "{291.92, -40}";
},
{
name = top;
position = "{417.92, 1084}";
}
);
layerId = "6BD0978F-C27A-4FE6-8A6F-902073A9F586";
paths = (
{
closed = 1;
nodes = (
"752.72 1004.88 OFFCURVE",
"720.72 1012.4 OFFCURVE",
"660.24 1012.4 CURVE SMOOTH",
"425.2 1012.4 OFFCURVE",
"368.32 770.64 OFFCURVE",
"353.6 551.12 CURVE",
"388.8 504.4 LINE",
"445.92 644.72 OFFCURVE",
"505.04 723.52 OFFCURVE",
"611.6 723.52 CURVE",
"646.48 719.84 OFFCURVE",
"679.68 716.16 OFFCURVE",
"714.56 703.12 CURVE",
"766.16 790.64 OFFCURVE",
"792.56 921.76 OFFCURVE",
"792.56 995.2 CURVE"
);
},
{
closed = 1;
nodes = (
"92.08 830.32 OFFCURVE",
"135.44 764 OFFCURVE",
"135.44 645.76 CURVE SMOOTH",
"135.44 0 LINE",
"181.04 -7.68 OFFCURVE",
"240 -11.52 OFFCURVE",
"291.92 -11.52 CURVE SMOOTH",
"345.52 -11.52 OFFCURVE",
"404.48 -7.68 OFFCURVE",
"448.24 0 CURVE",
"448.24 668.96 LINE",
"429.52 869.04 OFFCURVE",
"339.52 1000.16 OFFCURVE",
"154.88 1014.24 CURVE",
"115.84 983.52 OFFCURVE",
"71.44 908.88 OFFCURVE",
"59.76 853.44 CURVE"
);
}
);
width = 793.84;
}
);
leftKerningGroup = r;
rightKerningGroup = r;
unicode = 0072;
},
{
glyphname = s;
lastChange = "2018-12-12 17:56:20 +0000";
layers = (
{
anchors = (
{
name = bottom;
position = "{417.3, -40}";
},
{
name = top;
position = "{436.5, 1084}";
}
);
layerId = "4A173D0E-7CF5-44A8-8AF0-8145C41E8E72";
paths = (
{
closed = 1;
nodes = (
"156.6 23.6 OFFCURVE",
"272.5 -24.3 OFFCURVE",
"413.4 -24.3 CURVE SMOOTH",
"627.1 -24.3 OFFCURVE",
"781.5 80.9 OFFCURVE",
"781.5 258.2 CURVE SMOOTH",
"781.5 403.6 OFFCURVE",
"682.6 490.2 OFFCURVE",
"534.4 548 CURVE SMOOTH",
"416.1 593.9 LINE SMOOTH",
"316.7 632.8 OFFCURVE",
"266.3 671.8 OFFCURVE",
"266.3 739.9 CURVE SMOOTH",
"266.3 828.8 OFFCURVE",
"339.7 885.2 OFFCURVE",
"444.8 885.2 CURVE SMOOTH",
"546.4 885.2 OFFCURVE",
"642.7 852.9 OFFCURVE",
"705.8 824.4 CURVE",
"735 852.9 OFFCURVE",
"752.3 900.3 OFFCURVE",
"752.1 940.2 CURVE",
"671.7 976.6 OFFCURVE",
"547.6 1005.3 OFFCURVE",
"448.4 1005.3 CURVE SMOOTH",
"265.4 1005.3 OFFCURVE",
"113.4 901.9 OFFCURVE",
"113.4 730.1 CURVE SMOOTH",
"113.4 583.3 OFFCURVE",
"232.8 504.8 OFFCURVE",
"369.1 452.8 CURVE SMOOTH",
"482.9 409 LINE SMOOTH",
"575.3 373.7 OFFCURVE",
"627.8 313.5 OFFCURVE",
"627.8 247.1 CURVE",
"625.9 156 OFFCURVE",
"542.4 92 OFFCURVE",
"415.3 92 CURVE SMOOTH",
"314.5 92 OFFCURVE",
"214 137.5 OFFCURVE",
"131.7 183.5 CURVE",
"102.7 160.1 OFFCURVE",
"76 111.4 OFFCURVE",
"74 75.6 CURVE"
);
}
);
width = 869;
},
{
anchors = (
{
name = bottom;
position = "{439.92, -40}";
},
{
name = top;
position = "{445.2, 1084}";
}
);
layerId = "6BD0978F-C27A-4FE6-8A6F-902073A9F586";
paths = (
{
closed = 1;
nodes = (
"132.24 16.64 OFFCURVE",
"281.2 -29.52 OFFCURVE",
"437.76 -29.52 CURVE SMOOTH",
"681.04 -29.52 OFFCURVE",
"842.4 96.56 OFFCURVE",
"842.4 296.48 CURVE SMOOTH",
"842.4 466.24 OFFCURVE",
"727.84 563.28 OFFCURVE",
"576.16 617.6 CURVE SMOOTH",
"452.64 661.76 LINE SMOOTH",
"398.48 681.52 OFFCURVE",
"375.92 703.12 OFFCURVE",
"375.92 738.16 CURVE SMOOTH",
"375.92 773.12 OFFCURVE",
"404.08 801.68 OFFCURVE",
"458.72 801.68 CURVE SMOOTH",
"553.36 801.68 OFFCURVE",
"654.88 764.16 OFFCURVE",
"737.12 726.96 CURVE",
"787.2 764.16 OFFCURVE",
"827.12 870.72 OFFCURVE",
"823.44 943.68 CURVE",
"736.08 987.04 OFFCURVE",
"575.44 1027.92 OFFCURVE",
"455.36 1027.92 CURVE SMOOTH",
"220.16 1027.92 OFFCURVE",
"68.16 900.16 OFFCURVE",
"68.16 697.04 CURVE SMOOTH",
"68.16 536.32 OFFCURVE",
"177.12 449.12 OFFCURVE",
"318.64 397.12 CURVE SMOOTH",
"428.96 356.8 LINE SMOOTH",
"493.52 333.68 OFFCURVE",
"519.92 304.8 OFFCURVE",
"519.92 266.24 CURVE",
"519.76 225.6 OFFCURVE",
"479.76 196.4 OFFCURVE",
"403.12 196.4 CURVE SMOOTH",
"323.2 196.4 OFFCURVE",
"214 233.2 OFFCURVE",
"126.48 279.2 CURVE",
"80.08 231.44 OFFCURVE",
"41.2 135.76 OFFCURVE",
"39.2 68.64 CURVE"
);
}
);
width = 886.4;
}
);
leftKerningGroup = s;
rightKerningGroup = s;
unicode = 0073;
},
{
glyphname = t;
lastChange = "2018-12-12 17:56:20 +0000";
layers = (
{
anchors = (
{
name = bottom;
position = "{385.7, -40}";
},
{
name = top;
position = "{351.4, 1084}";
}
);
layerId = "4A173D0E-7CF5-44A8-8AF0-8145C41E8E72";
paths = (
{
closed = 1;
nodes = (
"211.1 158.3 LINE",
"211.1 49.6 OFFCURVE",
"281.8 -8.1 OFFCURVE",
"393.8 -8.1 CURVE SMOOTH",
"471.9 -8.1 OFFCURVE",
"534.4 -3.8 OFFCURVE",
"597 4.3 CURVE",
"599.2 13 OFFCURVE",
"599.3 23.9 OFFCURVE",
"599.3 34.6 CURVE SMOOTH",
"599.3 63.7 OFFCURVE",
"595 93.2 OFFCURVE",
"586.6 114.5 CURVE",
"434.9 114.5 LINE SMOOTH",
"376.6 114.5 OFFCURVE",
"356.3 148.5 OFFCURVE",
"356.3 197.2 CURVE SMOOTH",
"356.3 1278.4 LINE",
"344.2 1290.5 LINE",
"290.3 1290.5 LINE SMOOTH",
"223.1 1290.5 OFFCURVE",
"211.1 1255.7 OFFCURVE",
"211.1 1189.5 CURVE SMOOTH"
);
},
{
closed = 1;
nodes = (
"305.9 978.9 LINE",
"70.2 983 LINE",
"65.9 962 OFFCURVE",
"63.8 946.8 OFFCURVE",
"63.8 926 CURVE SMOOTH",
"63.8 905 OFFCURVE",
"65.9 887.8 OFFCURVE",
"70.2 868.8 CURVE",
"307.3 872.9 LINE",
"609.4 868.8 LINE",
"613.7 887.8 OFFCURVE",
"615.8 905 OFFCURVE",
"615.8 926 CURVE SMOOTH",
"615.8 946.8 OFFCURVE",
"613.7 962 OFFCURVE",
"609.4 983 CURVE"
);
}
);
width = 674.3;
},
{
anchors = (
{
name = bottom;
position = "{415.28, -40}";
},
{
name = top;
position = "{340.96, 1084}";
}
);
layerId = "6BD0978F-C27A-4FE6-8A6F-902073A9F586";
paths = (
{
closed = 1;
nodes = (
"160.64 267.92 LINE",
"160.64 77.44 OFFCURVE",
"243.52 -9.84 OFFCURVE",
"425.12 -9.84 CURVE SMOOTH",
"504.96 -9.84 OFFCURVE",
"610.96 -0.32 OFFCURVE",
"684 9.52 CURVE",
"689.68 30.4 OFFCURVE",
"691.52 56.96 OFFCURVE",
"691.52 79.84 CURVE SMOOTH",
"691.52 128.08 OFFCURVE",
"682 183.68 OFFCURVE",
"666.64 227.6 CURVE",
"554.96 227.6 LINE SMOOTH",
"491.44 227.6 OFFCURVE",
"465.92 261.6 OFFCURVE",
"465.92 322.48 CURVE SMOOTH",
"465.92 1285.36 LINE",
"452.08 1299.2 LINE",
"330.32 1299.2 LINE SMOOTH",
"207.44 1299.2 OFFCURVE",
"160.64 1250.48 OFFCURVE",
"160.64 1111.2 CURVE SMOOTH"
);
},
{
closed = 1;
nodes = (
"338.96 994.56 LINE",
"4.08 1000.4 LINE",
"-5.44 962 OFFCURVE",
"-9.28 925.92 OFFCURVE",
"-9.28 891.2 CURVE SMOOTH",
"-9.28 852.8 OFFCURVE",
"-5.44 814.72 OFFCURVE",
"4.08 778.32 CURVE",
"329.92 784.16 LINE",
"703.36 778.32 LINE",
"712.88 814.72 OFFCURVE",
"716.72 852.8 OFFCURVE",
"716.72 891.2 CURVE SMOOTH",
"716.72 925.92 OFFCURVE",
"712.88 962 OFFCURVE",
"703.36 1000.4 CURVE"
);
}
);
width = 749.12;
}
);
leftKerningGroup = t;
rightKerningGroup = t;
unicode = 0074;
},
{
glyphname = u;
lastChange = "2018-12-12 17:56:20 +0000";
layers = (
{
anchors = (
{
name = bottom;
position = "{536.2, -40}";
},
{
name = top;
position = "{537.6, 1084}";
}
);
layerId = "4A173D0E-7CF5-44A8-8AF0-8145C41E8E72";
paths = (
{
closed = 1;
nodes = (
"913.5 981 LINE",
"894 985.2 OFFCURVE",
"868.1 987.3 OFFCURVE",
"838.8 987.3 CURVE SMOOTH",
"811.3 987.3 OFFCURVE",
"785.4 985.2 OFFCURVE",
"766 981 CURVE",
"766 229.4 LINE SMOOTH",
"766 122 OFFCURVE",
"795.8 23.9 OFFCURVE",
"901.9 -14.1 CURVE",
"932.4 0.8 OFFCURVE",
"959.4 34.9 OFFCURVE",
"969.5 62.5 CURVE",
"920.4 109.2 OFFCURVE",
"913.5 191.7 OFFCURVE",
"913.5 276.5 CURVE SMOOTH"
);
},
{
closed = 1;
nodes = (
"165.1 294.5 LINE",
"165.1 124.3 OFFCURVE",
"232.8 -18 OFFCURVE",
"422.4 -18 CURVE SMOOTH",
"568.2 -18 OFFCURVE",
"719.6 60.5 OFFCURVE",
"806 169.5 CURVE",
"806 326.2 LINE",
"740.3 209.7 OFFCURVE",
"581.6 116.4 OFFCURVE",
"459.1 116.4 CURVE SMOOTH",
"343.9 116.4 OFFCURVE",
"312.6 183 OFFCURVE",
"312.6 341.1 CURVE SMOOTH",
"312.6 895.7 LINE SMOOTH",
"312.6 961.1 OFFCURVE",
"291.4 993.2 OFFCURVE",
"235.4 993.2 CURVE SMOOTH",
"200.9 993.2 OFFCURVE",
"163 980.3 OFFCURVE",
"141.6 961.2 CURVE",
"160.6 916.8 OFFCURVE",
"165.1 856.3 OFFCURVE",
"165.1 791.5 CURVE SMOOTH"
);
}
);
width = 1092.3;
},
{
anchors = (
{
name = bottom;
position = "{539.68, -40}";
},
{
name = top;
position = "{530.64, 1084}";
}
);
layerId = "6BD0978F-C27A-4FE6-8A6F-902073A9F586";
paths = (
{
closed = 1;
nodes = (
"974.4 998.4 LINE",
"928.8 1006.08 OFFCURVE",
"869.84 1009.92 OFFCURVE",
"817.92 1009.92 CURVE SMOOTH",
"764.32 1009.92 OFFCURVE",
"705.36 1006.08 OFFCURVE",
"661.6 998.4 CURVE",
"661.6 288.56 LINE SMOOTH",
"661.6 122 OFFCURVE",
"757.52 -12.64 OFFCURVE",
"934.96 -15.84 CURVE",
"974.16 14.72 OFFCURVE",
"1018.56 85.36 OFFCURVE",
"1030.4 140.8 CURVE",
"996.96 164.88 OFFCURVE",
"974.4 221.28 OFFCURVE",
"974.4 285.2 CURVE SMOOTH"
);
},
{
closed = 1;
nodes = (
"114.64 338 LINE",
"114.64 129.52 OFFCURVE",
"211.92 -18 OFFCURVE",
"394.56 -18 CURVE SMOOTH",
"536.88 -18 OFFCURVE",
"643.04 69.2 OFFCURVE",
"736.4 160.8 CURVE",
"736.4 434.08 LINE",
"675.92 308.88 OFFCURVE",
"574.64 262.56 OFFCURVE",
"513.04 262.56 CURVE SMOOTH",
"446.56 262.56 OFFCURVE",
"427.44 304.8 OFFCURVE",
"427.44 395.04 CURVE SMOOTH",
"427.44 820.88 LINE SMOOTH",
"427.44 945.44 OFFCURVE",
"385.36 1014.08 OFFCURVE",
"259.76 1014.08 CURVE SMOOTH",
"181.76 1014.08 OFFCURVE",
"110.8 985.52 OFFCURVE",
"65.04 947.28 CURVE",
"101.44 895.92 OFFCURVE",
"114.64 826.72 OFFCURVE",
"114.64 748 CURVE SMOOTH"
);
}
);
width = 1097.52;
}
);
leftKerningGroup = u;
rightKerningGroup = u;
unicode = 0075;
},
{
glyphname = v;
lastChange = "2018-12-12 17:56:20 +0000";
layers = (
{
anchors = (
{
name = bottom;
position = "{446.2, -40}";
},
{
name = top;
position = "{442.1, 1084}";
}
);
layerId = "4A173D0E-7CF5-44A8-8AF0-8145C41E8E72";
paths = (
{
closed = 1;
nodes = (
"458.3 128.3 LINE",
"446.3 128.3 OFFCURVE",
"444.1 130.2 OFFCURVE",
"440.2 144.3 CURVE SMOOTH",
"424.5 206.2 OFFCURVE",
"382.1 350 OFFCURVE",
"345.1 462 CURVE SMOOTH",
"187 938.1 LINE SMOOTH",
"174.3 979.9 OFFCURVE",
"148.5 995.2 OFFCURVE",
"112.9 995.2 CURVE SMOOTH",
"87.4 995.2 OFFCURVE",
"63 990.4 OFFCURVE",
"22.2 970.2 CURVE",
"320.8 86.9 LINE SMOOTH",
"349.2 0.8 OFFCURVE",
"371.5 -10.1 OFFCURVE",
"432.8 -10.1 CURVE SMOOTH",
"465.5 -10.1 OFFCURVE",
"504.2 -8 OFFCURVE",
"536.3 0 CURVE",
"612.1 213 OFFCURVE",
"762.6 655.4 OFFCURVE",
"863.4 971.9 CURVE",
"859.1 978.3 LINE",
"835.7 985 OFFCURVE",
"813.5 989.1 OFFCURVE",
"786 989.1 CURVE SMOOTH",
"768.8 989.1 OFFCURVE",
"749.7 988.9 OFFCURVE",
"726.9 982.8 CURVE"
);
}
);
width = 884.3;
},
{
anchors = (
{
name = bottom;
position = "{484.48, -40}";
},
{
name = top;
position = "{478.64, 1084}";
}
);
layerId = "6BD0978F-C27A-4FE6-8A6F-902073A9F586";
paths = (
{
closed = 1;
nodes = (
"498.32 237.92 LINE",
"486.32 237.92 OFFCURVE",
"480.64 238.08 OFFCURVE",
"478.48 253.92 CURVE SMOOTH",
"468 314.08 OFFCURVE",
"453.44 419.6 OFFCURVE",
"433.84 496.8 CURVE SMOOTH",
"343.6 870.24 LINE SMOOTH",
"318.72 978.16 OFFCURVE",
"261.6 1016.08 OFFCURVE",
"163.36 1016.08 CURVE SMOOTH",
"111.76 1016.08 OFFCURVE",
"45.6 997.36 OFFCURVE",
"-9.12 973.68 CURVE",
"230.32 137.36 LINE SMOOTH",
"265.68 14.72 OFFCURVE",
"328 -11.84 OFFCURVE",
"446.72 -11.84 CURVE SMOOTH",
"526.4 -11.84 OFFCURVE",
"612.08 -8 OFFCURVE",
"680.72 0 CURVE",
"753.04 230.4 OFFCURVE",
"877.44 679.76 OFFCURVE",
"957.36 970.16 CURVE",
"947.84 983.52 LINE",
"900.08 1002.4 OFFCURVE",
"839.6 1008.24 OFFCURVE",
"786 1008.24 CURVE SMOOTH",
"747.92 1008.24 OFFCURVE",
"709.68 1004.56 OFFCURVE",
"672.96 996.72 CURVE"
);
}
);
width = 959.12;
}
);
leftKerningGroup = v;
unicode = 0076;
},
{
glyphname = w;
lastChange = "2018-12-12 17:56:20 +0000";
layers = (
{
anchors = (
{
name = bottom;
position = "{710.5, -40}";
},
{
name = top;
position = "{710.5, 1084}";
}
);
layerId = "4A173D0E-7CF5-44A8-8AF0-8145C41E8E72";
paths = (
{
closed = 1;
nodes = (
"279.6 86.7 LINE",
"300 2.7 OFFCURVE",
"340.9 -8.2 OFFCURVE",
"385.1 -8.2 CURVE SMOOTH",
"423.2 -8.2 OFFCURVE",
"477.6 -6.1 OFFCURVE",
"511.4 0 CURVE",
"607.1 399.1 LINE SMOOTH",
"632.5 508.5 OFFCURVE",
"673.4 690 OFFCURVE",
"704.5 835.5 CURVE",
"712.7 835.5 LINE",
"745.7 689.9 OFFCURVE",
"780.9 508.3 OFFCURVE",
"804.4 398.9 CURVE SMOOTH",
"874.3 86.5 LINE SMOOTH",
"892.3 2.3 OFFCURVE",
"933.3 -8.2 OFFCURVE",
"989 -8.2 CURVE SMOOTH",
"1025.1 -8.2 OFFCURVE",
"1075.6 -6.2 OFFCURVE",
"1103.6 -1.9 CURVE",
"1352.7 971.6 LINE",
"1348.4 978.3 LINE",
"1330.9 985.2 OFFCURVE",
"1305.8 989.2 OFFCURVE",
"1278.9 989.2 CURVE SMOOTH",
"1252.3 989.2 OFFCURVE",
"1225.1 987.1 OFFCURVE",
"1208.1 982.8 CURVE",
"1087.9 471.1 LINE SMOOTH",
"1060.1 354.7 OFFCURVE",
"1034.6 240.7 OFFCURVE",
"1005.5 110.9 CURVE",
"995.4 110.9 OFFCURVE",
"993.4 113 OFFCURVE",
"989.5 128.8 CURVE SMOOTH",
"799.9 980.4 LINE",
"780.3 984.8 OFFCURVE",
"735.3 986.9 OFFCURVE",
"710.4 986.9 CURVE SMOOTH",
"687.5 986.9 OFFCURVE",
"640.9 984.8 OFFCURVE",
"619.3 980.4 CURVE",
"418.5 110.9 LINE",
"410.3 110.9 OFFCURVE",
"406.4 113 OFFCURVE",
"402.5 128.8 CURVE SMOOTH",
"385.1 208.2 OFFCURVE",
"357.6 348.7 OFFCURVE",
"329.7 471.1 CURVE SMOOTH",
"224.2 936.9 LINE SMOOTH",
"213.8 985 OFFCURVE",
"185.6 995.2 OFFCURVE",
"155.6 995.2 CURVE SMOOTH",
"131.8 995.2 OFFCURVE",
"104 990.7 OFFCURVE",
"64.8 972.4 CURVE"
);
}
);
width = 1408;
},
{
anchors = (
{
name = bottom;
position = "{754, -40}";
},
{
name = top;
position = "{754, 1084}";
}
);
layerId = "6BD0978F-C27A-4FE6-8A6F-902073A9F586";
paths = (
{
closed = 1;
nodes = (
"203.04 133.68 LINE",
"230.4 14.88 OFFCURVE",
"286.96 -11.68 OFFCURVE",
"404.24 -11.68 CURVE SMOOTH",
"478.88 -11.68 OFFCURVE",
"575.04 -7.84 OFFCURVE",
"640.16 0 CURVE",
"695.84 348.64 LINE SMOOTH",
"710.8 447.6 OFFCURVE",
"732.56 585.6 OFFCURVE",
"748 722.4 CURVE",
"759.68 722.4 LINE",
"775.28 583.76 OFFCURVE",
"796.56 443.92 OFFCURVE",
"811.36 344.96 CURVE SMOOTH",
"844.72 130 LINE SMOOTH",
"862.72 7.52 OFFCURVE",
"921.12 -11.68 OFFCURVE",
"1041.2 -11.68 CURVE SMOOTH",
"1113.84 -11.68 OFFCURVE",
"1207.84 -9.68 OFFCURVE",
"1270.64 -0.16 CURVE",
"1504.08 964.64 LINE",
"1494.56 983.52 LINE",
"1450.96 1006.08 OFFCURVE",
"1371.92 1010.08 OFFCURVE",
"1329.36 1010.08 CURVE SMOOTH",
"1292.32 1010.08 OFFCURVE",
"1244.24 1006.24 OFFCURVE",
"1209.84 996.72 CURVE",
"1120.96 559.84 LINE SMOOTH",
"1096.64 436.48 OFFCURVE",
"1079.84 322.48 OFFCURVE",
"1066.4 230.96 CURVE",
"1054.56 230.96 OFFCURVE",
"1052.56 234.8 OFFCURVE",
"1050.4 247.12 CURVE SMOOTH",
"937.36 987.36 LINE",
"889.92 998.72 OFFCURVE",
"792.72 1002.56 OFFCURVE",
"752.16 1002.56 CURVE SMOOTH",
"713.6 1002.56 OFFCURVE",
"621.76 998.72 OFFCURVE",
"572.32 987.36 CURVE",
"462 230.96 LINE",
"450.32 230.96 OFFCURVE",
"448.16 234.8 OFFCURVE",
"446 247.12 CURVE SMOOTH",
"439.04 316.08 OFFCURVE",
"420.24 430.48 OFFCURVE",
"394.08 559.84 CURVE SMOOTH",
"332.08 882.96 LINE SMOOTH",
"314.72 967.6 OFFCURVE",
"283.04 1016.08 OFFCURVE",
"183.44 1016.08 CURVE SMOOTH",
"128.32 1016.08 OFFCURVE",
"69.2 1002.88 OFFCURVE",
"9.12 979.36 CURVE"
);
}
);
width = 1512.4;
}
);
leftKerningGroup = w;
rightKerningGroup = w;
unicode = 0077;
},
{
glyphname = x;
lastChange = "2018-12-12 17:56:20 +0000";
layers = (
{
anchors = (
{
name = bottom;
position = "{444.1, -40}";
},
{
name = top;
position = "{448.2, 1084}";
}
);
layerId = "4A173D0E-7CF5-44A8-8AF0-8145C41E8E72";
paths = (
{
closed = 1;
nodes = (
"675.1 30.6 LINE",
"694.3 2.6 OFFCURVE",
"713.8 -14.2 OFFCURVE",
"750.2 -14.2 CURVE SMOOTH",
"784.3 -14.2 OFFCURVE",
"826.5 4.3 OFFCURVE",
"854.4 21.7 CURVE",
"248.5 952.2 LINE SMOOTH",
"229.2 980.3 OFFCURVE",
"210.1 997.2 OFFCURVE",
"173.7 997.2 CURVE SMOOTH",
"139.9 997.2 OFFCURVE",
"97.8 979.1 OFFCURVE",
"71.4 961.3 CURVE"
);
},
{
closed = 1;
nodes = (
"434.5 601.4 LINE",
"382.9 544.6 LINE",
"43.7 16.8 LINE",
"49.9 4.4 LINE",
"65.7 -4.1 OFFCURVE",
"93.4 -10.1 OFFCURVE",
"121.3 -10.1 CURVE SMOOTH",
"142.7 -10.1 OFFCURVE",
"177.2 -6.2 OFFCURVE",
"188.4 -1.9 CURVE",
"465.3 442.3 LINE",
"510.9 491.6 LINE",
"811 964.2 LINE",
"804.9 976.7 LINE",
"791 983.1 OFFCURVE",
"763.7 989.2 OFFCURVE",
"732.2 989.2 CURVE SMOOTH",
"710.9 989.2 OFFCURVE",
"680.1 985.2 OFFCURVE",
"668.8 981 CURVE"
);
}
);
width = 897.7;
},
{
anchors = (
{
name = bottom;
position = "{480.64, -40}";
},
{
name = top;
position = "{486.48, 1084}";
}
);
layerId = "6BD0978F-C27A-4FE6-8A6F-902073A9F586";
paths = (
{
closed = 1;
nodes = (
"589.84 75.84 LINE",
"629.92 13.04 OFFCURVE",
"675.52 -17.68 OFFCURVE",
"753.68 -17.68 CURVE SMOOTH",
"824.32 -17.68 OFFCURVE",
"904.8 9.52 OFFCURVE",
"965.76 51.28 CURVE",
"396.4 920.88 LINE SMOOTH",
"354.48 985.52 OFFCURVE",
"316.24 1018.08 OFFCURVE",
"238.08 1018.08 CURVE SMOOTH",
"172.96 1018.08 OFFCURVE",
"94.32 998.24 OFFCURVE",
"26.16 949.12 CURVE"
);
},
{
closed = 1;
nodes = (
"443.2 660.56 LINE",
"363.76 589.84 LINE",
"3.68 30.72 LINE",
"13.36 11.36 LINE",
"60.48 -5.84 OFFCURVE",
"117.76 -11.84 OFFCURVE",
"178.72 -11.84 CURVE SMOOTH",
"224.48 -11.84 OFFCURVE",
"267.68 -9.68 OFFCURVE",
"299.76 -0.16 CURVE",
"522.72 377.92 LINE",
"596.16 449.84 LINE",
"932.8 967.68 LINE",
"924.96 988.88 LINE",
"878 1002.24 OFFCURVE",
"828.08 1010.08 OFFCURVE",
"770.48 1010.08 CURVE SMOOTH",
"726.56 1010.08 OFFCURVE",
"681.84 1006.08 OFFCURVE",
"647.92 998.4 CURVE"
);
}
);
width = 962.08;
}
);
unicode = 0078;
},
{
glyphname = y;
lastChange = "2018-12-12 17:56:20 +0000";
layers = (
{
anchors = (
{
name = bottom;
position = "{438.5, -464}";
},
{
name = top;
position = "{450.5, 1084}";
}
);
layerId = "4A173D0E-7CF5-44A8-8AF0-8145C41E8E72";
paths = (
{
closed = 1;
nodes = (
"872.4 971.7 LINE",
"868 978.5 LINE",
"847.9 985.2 OFFCURVE",
"822.1 989.2 OFFCURVE",
"794.6 989.2 CURVE SMOOTH",
"771.7 989.2 OFFCURVE",
"746.3 987.1 OFFCURVE",
"725.5 982.8 CURVE",
"481.5 99 LINE",
"471.5 99 OFFCURVE",
"465.6 101 OFFCURVE",
"461.7 113 CURVE SMOOTH",
"438.5 194.1 OFFCURVE",
"403.5 318.4 OFFCURVE",
"370.4 424.2 CURVE SMOOTH",
"212.1 925.5 LINE SMOOTH",
"195.6 980.3 OFFCURVE",
"168.3 995.2 OFFCURVE",
"133.9 995.2 CURVE SMOOTH",
"110.3 995.2 OFFCURVE",
"83.4 986.9 OFFCURVE",
"45.9 970.2 CURVE",
"325.2 89.3 LINE SMOOTH",
"349.3 16.1 OFFCURVE",
"381.7 -4.5 OFFCURVE",
"450 -8.3 CURVE",
"443.9 -28.8 LINE SMOOTH",
"389.3 -208.3 OFFCURVE",
"332.8 -323.2 OFFCURVE",
"179.8 -323.2 CURVE SMOOTH",
"134.6 -323.2 OFFCURVE",
"75.9 -312.8 OFFCURVE",
"49 -302.6 CURVE",
"29.7 -326 OFFCURVE",
"13 -373.3 OFFCURVE",
"15.3 -409.3 CURVE SMOOTH",
"50.4 -421.7 OFFCURVE",
"124.4 -436.1 OFFCURVE",
"177.9 -436.1 CURVE SMOOTH",
"418 -436.1 OFFCURVE",
"503.3 -287.6 OFFCURVE",
"598 33.6 CURVE SMOOTH"
);
}
);
width = 903.2;
},
{
anchors = (
{
name = bottom;
position = "{447.2, -464}";
},
{
name = top;
position = "{494, 1084}";
}
);
layerId = "6BD0978F-C27A-4FE6-8A6F-902073A9F586";
paths = (
{
closed = 1;
nodes = (
"983.76 966.48 LINE",
"972.4 987.2 LINE",
"915.76 1006.08 OFFCURVE",
"858.64 1010.08 OFFCURVE",
"805.04 1010.08 CURVE SMOOTH",
"766.48 1010.08 OFFCURVE",
"716.72 1006.24 OFFCURVE",
"682 996.72 CURVE",
"507.6 220.8 LINE",
"497.6 220.8 OFFCURVE",
"493.44 222.8 OFFCURVE",
"491.28 234.8 CURVE SMOOTH",
"482 300.24 OFFCURVE",
"464.4 429.76 OFFCURVE",
"446.96 497.28 CURVE SMOOTH",
"353.04 882 LINE SMOOTH",
"327.84 985.52 OFFCURVE",
"277.92 1016.08 OFFCURVE",
"201.76 1016.08 CURVE SMOOTH",
"150.32 1016.08 OFFCURVE",
"72.96 1002.56 OFFCURVE",
"9.36 973.68 CURVE",
"241.68 111.92 LINE SMOOTH",
"267.52 17.84 OFFCURVE",
"341.68 -13.2 OFFCURVE",
"450 -13.52 CURVE",
"442.16 -42.72 LINE SMOOTH",
"411.92 -143.92 OFFCURVE",
"346.72 -204.88 OFFCURVE",
"245.92 -204.88 CURVE SMOOTH",
"179.84 -204.88 OFFCURVE",
"108.96 -187.52 OFFCURVE",
"66.4 -173.84 CURVE",
"24.48 -221.6 OFFCURVE",
"-4.4 -326.32 OFFCURVE",
"3.12 -397.12 CURVE SMOOTH",
"57.36 -416.48 OFFCURVE",
"166.16 -437.84 OFFCURVE",
"245.76 -437.84 CURVE SMOOTH",
"557.2 -437.84 OFFCURVE",
"665.12 -245.84 OFFCURVE",
"737.2 26.64 CURVE SMOOTH"
);
}
);
width = 993.68;
}
);
leftKerningGroup = y;
rightKerningGroup = y;
unicode = 0079;
},
{
glyphname = z;
lastChange = "2018-12-12 17:56:20 +0000";
layers = (
{
anchors = (
{
name = bottom;
position = "{448.1, -40}";
},
{
name = top;
position = "{448.1, 1084}";
}
);
layerId = "4A173D0E-7CF5-44A8-8AF0-8145C41E8E72";
paths = (
{
closed = 1;
nodes = (
"107.2 154.5 LINE",
"88.4 127.6 OFFCURVE",
"82.1 108.5 OFFCURVE",
"82.1 91.5 CURVE SMOOTH",
"82.1 68.7 OFFCURVE",
"88.3 51.3 OFFCURVE",
"106.7 0 CURVE",
"699.3 0 LINE SMOOTH",
"783.6 0 OFFCURVE",
"808.6 27.6 OFFCURVE",
"808.6 75.6 CURVE SMOOTH",
"808.6 98.7 OFFCURVE",
"804.3 124.9 OFFCURVE",
"795.5 146.7 CURVE",
"749 128.2 OFFCURVE",
"671.4 122.2 OFFCURVE",
"564.1 122.2 CURVE SMOOTH",
"454.4 122.2 LINE SMOOTH",
"406.3 122.2 OFFCURVE",
"324.1 120.1 OFFCURVE",
"254.8 115.9 CURVE",
"248.8 122.1 LINE",
"295.1 181.7 OFFCURVE",
"360.5 261.1 OFFCURVE",
"406.4 324.8 CURVE SMOOTH",
"775.3 828.6 LINE SMOOTH",
"791.5 850.9 OFFCURVE",
"799.6 869.9 OFFCURVE",
"799.6 886.6 CURVE SMOOTH",
"799.6 907.9 OFFCURVE",
"793.1 931.5 OFFCURVE",
"774.7 981 CURVE",
"122.1 981 LINE",
"115.9 956 OFFCURVE",
"113.6 925.1 OFFCURVE",
"113.6 911.2 CURVE SMOOTH",
"113.6 900.1 OFFCURVE",
"113.8 877.4 OFFCURVE",
"118 860.6 CURVE",
"359 860.6 LINE",
"446.2 860.6 OFFCURVE",
"586 864.8 OFFCURVE",
"633.5 870.9 CURVE",
"639.5 864.7 LINE",
"587.9 799.6 OFFCURVE",
"527.4 729.3 OFFCURVE",
"483.2 669.1 CURVE SMOOTH"
);
}
);
width = 888.6;
},
{
anchors = (
{
name = bottom;
position = "{449.84, -40}";
},
{
name = top;
position = "{449.84, 1084}";
}
);
layerId = "6BD0978F-C27A-4FE6-8A6F-902073A9F586";
paths = (
{
closed = 1;
nodes = (
"93.28 267.6 LINE",
"60.56 225.04 OFFCURVE",
"49.04 186.8 OFFCURVE",
"49.04 152.4 CURVE SMOOTH",
"49.04 115.68 OFFCURVE",
"58.72 73.92 OFFCURVE",
"84.08 0 CURVE",
"687.12 0 LINE SMOOTH",
"811.44 0 OFFCURVE",
"853.84 55.44 OFFCURVE",
"853.84 138.24 CURVE SMOOTH",
"853.84 180.48 OFFCURVE",
"844.32 210.16 OFFCURVE",
"821.6 263.28 CURVE",
"766.4 236.08 OFFCURVE",
"695.76 230.08 OFFCURVE",
"635.44 230.08 CURVE SMOOTH",
"565.76 230.08 LINE SMOOTH",
"515.92 230.08 OFFCURVE",
"465.04 226.24 OFFCURVE",
"407.92 218.56 CURVE",
"401.92 228.24 LINE",
"453.44 280.88 OFFCURVE",
"508.4 349.84 OFFCURVE",
"552.56 408.32 CURVE SMOOTH",
"797.92 734.64 LINE SMOOTH",
"817.6 762.16 OFFCURVE",
"827.44 798.56 OFFCURVE",
"827.44 827.44 CURVE SMOOTH",
"827.44 871.36 OFFCURVE",
"812.24 922.8 OFFCURVE",
"786.88 998.4 CURVE",
"89.04 998.4 LINE",
"79.36 956 OFFCURVE",
"71.84 909.44 OFFCURVE",
"71.84 862.48 CURVE SMOOTH",
"71.84 832.24 OFFCURVE",
"75.52 797.36 OFFCURVE",
"83.2 766.64 CURVE",
"237.2 766.64 LINE",
"310.48 766.64 OFFCURVE",
"412 774.32 OFFCURVE",
"485.6 782.16 CURVE",
"491.6 772.48 LINE",
"446.96 723.04 OFFCURVE",
"377.76 647.52 OFFCURVE",
"330.08 583.84 CURVE SMOOTH"
);
}
);
width = 899.04;
}
);
leftKerningGroup = z;
rightKerningGroup = z;
unicode = 007A;
},
{
glyphname = a.smcp;
lastChange = "2018-12-12 17:56:20 +0000";
layers = (
{
anchors = (
{
name = bottom;
position = "{526.8, -40}";
},
{
name = top;
position = "{527.4, 1188}";
}
);
layerId = "4A173D0E-7CF5-44A8-8AF0-8145C41E8E72";
paths = (
{
closed = 1;
nodes = (
"36.4 9 LINE",
"40.8 2.4 LINE",
"57.8 -4.1 OFFCURVE",
"83.7 -8.3 OFFCURVE",
"111.2 -8.3 CURVE SMOOTH",
"132.8 -8.3 OFFCURVE",
"158 -6.2 OFFCURVE",
"177.1 -1.9 CURVE",
"439.4 714.2 LINE SMOOTH",
"458.2 765.3 OFFCURVE",
"492.3 869.6 OFFCURVE",
"514.6 948.9 CURVE",
"522.8 948.9 LINE",
"548.8 865.6 OFFCURVE",
"594 733.1 OFFCURVE",
"622.2 655.5 CURVE SMOOTH",
"838.8 64.8 LINE SMOOTH",
"861.5 3.5 OFFCURVE",
"880.7 -12.3 OFFCURVE",
"928.2 -12.3 CURVE SMOOTH",
"962.7 -12.3 OFFCURVE",
"993.8 -6 OFFCURVE",
"1017.2 6.5 CURVE",
"612.7 1085 LINE",
"597.4 1089.3 OFFCURVE",
"552.8 1093.2 OFFCURVE",
"529.3 1093.2 CURVE SMOOTH",
"503.7 1093.2 OFFCURVE",
"456.6 1089.3 OFFCURVE",
"439.6 1085 CURVE"
);
},
{
closed = 1;
nodes = (
"643 269.6 LINE SMOOTH",
"655.9 269.6 OFFCURVE",
"757.4 271.6 OFFCURVE",
"770.3 271.6 CURVE",
"833.1 271.6 LINE",
"784.9 396.5 LINE",
"728.6 396.5 LINE",
"713.8 396.5 OFFCURVE",
"635.2 398.5 OFFCURVE",
"622.3 398.5 CURVE SMOOTH",
"430.2 398.5 LINE SMOOTH",
"417.3 398.5 OFFCURVE",
"327 396.5 OFFCURVE",
"312.3 396.5 CURVE",
"258.4 396.5 LINE",
"207.7 271.6 LINE",
"268.3 271.6 LINE",
"283.1 271.6 OFFCURVE",
"394.1 269.6 OFFCURVE",
"407 269.6 CURVE SMOOTH"
);
}
);
width = 1053.6;
},
{
anchors = (
{
name = bottom;
position = "{575.52, -40}";
},
{
name = top;
position = "{586.56, 1188}";
}
);
layerId = "6BD0978F-C27A-4FE6-8A6F-902073A9F586";
paths = (
{
closed = 1;
nodes = (
"8.56 26.4 LINE",
"19.92 9.36 LINE",
"54.32 -5.84 OFFCURVE",
"113.28 -13.52 OFFCURVE",
"166.88 -13.52 CURVE SMOOTH",
"216.32 -13.52 OFFCURVE",
"262.4 -9.68 OFFCURVE",
"300.64 -0.16 CURVE",
"463.76 508.88 LINE SMOOTH",
"496.48 613.92 OFFCURVE",
"532.32 758.24 OFFCURVE",
"559.84 860.16 CURVE",
"571.52 860.16 LINE",
"597.52 754.24 OFFCURVE",
"628.8 613.04 OFFCURVE",
"660.48 507.6 CURVE SMOOTH",
"783.12 113.52 LINE SMOOTH",
"818 -5.2 OFFCURVE",
"892.88 -17.52 OFFCURVE",
"966.48 -17.52 CURVE SMOOTH",
"1009.68 -17.52 OFFCURVE",
"1094.72 -6 OFFCURVE",
"1142.48 15.2 CURVE",
"764.08 1102.4 LINE",
"691.36 1111.92 OFFCURVE",
"636.32 1114.08 OFFCURVE",
"586.72 1114.08 CURVE SMOOTH",
"533.28 1114.08 OFFCURVE",
"467.04 1111.92 OFFCURVE",
"397.84 1102.4 CURVE"
);
},
{
closed = 1;
nodes = (
"695.2 193.04 LINE SMOOTH",
"723.76 193.04 OFFCURVE",
"746.96 195.04 OFFCURVE",
"775.52 195.04 CURVE",
"921.84 195.04 LINE",
"835.36 440 LINE",
"704.24 440 LINE",
"675.52 440 OFFCURVE",
"656.08 442 OFFCURVE",
"627.52 442 CURVE SMOOTH",
"503.28 442 LINE SMOOTH",
"474.72 442 OFFCURVE",
"448.8 440 OFFCURVE",
"421.92 440 CURVE",
"300.16 440 LINE",
"202.48 195.04 LINE",
"343.12 195.04 LINE",
"371.84 195.04 OFFCURVE",
"395.84 193.04 OFFCURVE",
"424.4 193.04 CURVE SMOOTH"
);
}
);
width = 1151.04;
}
);
leftKerningGroup = a.smcp;
rightKerningGroup = a.smcp;
},
{
glyphname = b.smcp;
lastChange = "2018-12-12 17:56:20 +0000";
layers = (
{
anchors = (
{
name = bottom;
position = "{525.3, -40}";
},
{
name = top;
position = "{507.6, 1188}";
}
);
layerId = "4A173D0E-7CF5-44A8-8AF0-8145C41E8E72";
paths = (
{
closed = 1;
nodes = (
"181.8 1075 LINE",
"181.8 9.9 LINE",
"191.9 -0.1 LINE",
"321.7 -2.2 OFFCURVE",
"409.1 -6.1 OFFCURVE",
"558.4 -6.1 CURVE SMOOTH",
"866.1 -6.1 OFFCURVE",
"978.8 136 OFFCURVE",
"978.8 303.1 CURVE SMOOTH",
"978.8 468 OFFCURVE",
"826.3 591 OFFCURVE",
"676.3 591 CURVE",
"676.3 568.8 LINE",
"823.4 580.2 OFFCURVE",
"918.9 685 OFFCURVE",
"918.9 806.7 CURVE SMOOTH",
"918.9 981.1 OFFCURVE",
"808.7 1091.2 OFFCURVE",
"536.2 1091.2 CURVE SMOOTH",
"421.3 1091.2 OFFCURVE",
"316.7 1087.2 OFFCURVE",
"191.9 1085.1 CURVE"
);
},
{
closed = 1;
nodes = (
"332.7 971.8 LINE",
"395.3 969.8 OFFCURVE",
"481.1 969.8 OFFCURVE",
"537.3 969.8 CURVE SMOOTH",
"724.6 969.8 OFFCURVE",
"764.1 885.6 OFFCURVE",
"764.1 803.3 CURVE SMOOTH",
"764.1 724.7 OFFCURVE",
"722.7 634.8 OFFCURVE",
"533.4 634.8 CURVE SMOOTH",
"270.9 634.8 LINE",
"270.9 511.5 LINE",
"549.7 511.5 LINE SMOOTH",
"762.7 511.5 OFFCURVE",
"821.6 394.3 OFFCURVE",
"821.6 311.4 CURVE SMOOTH",
"821.6 228.8 OFFCURVE",
"780.3 115.4 OFFCURVE",
"567.6 115.4 CURVE SMOOTH",
"485.9 115.4 OFFCURVE",
"415 113.5 OFFCURVE",
"332.7 113.4 CURVE"
);
}
);
width = 1078.9;
},
{
anchors = (
{
name = bottom;
position = "{547.92, -40}";
},
{
name = top;
position = "{535.44, 1188}";
}
);
layerId = "6BD0978F-C27A-4FE6-8A6F-902073A9F586";
paths = (
{
closed = 1;
nodes = (
"143.52 1092.4 LINE",
"143.52 8.16 LINE",
"155.36 -1.84 LINE",
"316.48 -5.68 OFFCURVE",
"463.04 -7.84 OFFCURVE",
"600.16 -7.84 CURVE SMOOTH",
"867.84 -7.84 OFFCURVE",
"1062.32 66.4 OFFCURVE",
"1062.32 322.24 CURVE SMOOTH",
"1062.32 468 OFFCURVE",
"935.92 608.4 OFFCURVE",
"785.92 608.4 CURVE",
"785.92 582.72 LINE",
"917.36 583.68 OFFCURVE",
"1004.16 702.4 OFFCURVE",
"1004.16 818.88 CURVE SMOOTH",
"1004.16 1035.04 OFFCURVE",
"820.88 1112.08 OFFCURVE",
"574.48 1112.08 CURVE SMOOTH",
"443.92 1112.08 OFFCURVE",
"259.28 1108.08 OFFCURVE",
"155.36 1104.24 CURVE"
);
},
{
closed = 1;
nodes = (
"449.28 898.72 LINE",
"487.52 896.72 OFFCURVE",
"535.04 896.72 OFFCURVE",
"559.92 896.72 CURVE SMOOTH",
"665.44 896.72 OFFCURVE",
"696.24 843.84 OFFCURVE",
"696.24 791.12 CURVE SMOOTH",
"696.24 736.88 OFFCURVE",
"665.28 683.52 OFFCURVE",
"557.76 683.52 CURVE SMOOTH",
"321.36 683.52 LINE",
"321.36 468 LINE",
"579.28 468 LINE SMOOTH",
"705.28 468 OFFCURVE",
"745.04 399.52 OFFCURVE",
"745.04 335.76 CURVE SMOOTH",
"745.04 277.52 OFFCURVE",
"715.92 209.36 OFFCURVE",
"595.44 209.36 CURVE SMOOTH",
"553.76 209.36 OFFCURVE",
"502 209.2 OFFCURVE",
"449.28 207.36 CURVE"
);
}
);
width = 1129.36;
}
);
leftKerningGroup = b.smcp;
},
{
glyphname = c.smcp;
lastChange = "2018-12-12 17:56:20 +0000";
layers = (
{
anchors = (
{
name = bottom;
position = "{553.2, -40}";
},
{
name = top;
position = "{569.4, 1188}";
}
);
layerId = "4A173D0E-7CF5-44A8-8AF0-8145C41E8E72";
paths = (
{
closed = 1;
nodes = (
"861.9 690.7 OFFCURVE",
"879 686.7 OFFCURVE",
"903.4 686.7 CURVE SMOOTH",
"972.7 686.7 OFFCURVE",
"985.7 731.2 OFFCURVE",
"985.7 777.3 CURVE SMOOTH",
"985.7 926.9 OFFCURVE",
"856.8 1109.3 OFFCURVE",
"569.4 1109.3 CURVE SMOOTH",
"314.1 1109.3 OFFCURVE",
"90.4 939 OFFCURVE",
"90.4 540.3 CURVE SMOOTH",
"90.4 253.1 OFFCURVE",
"215.8 -24.3 OFFCURVE",
"546.9 -24.3 CURVE SMOOTH",
"726.2 -24.3 OFFCURVE",
"876.7 46 OFFCURVE",
"973.5 134.4 CURVE",
"963.3 168.2 OFFCURVE",
"929.5 211.5 OFFCURVE",
"893.9 234.1 CURVE",
"781.8 149.6 OFFCURVE",
"674 107.1 OFFCURVE",
"568.4 107.1 CURVE SMOOTH",
"373.1 107.1 OFFCURVE",
"249.8 263.7 OFFCURVE",
"249.8 540.2 CURVE SMOOTH",
"249.8 834 OFFCURVE",
"364.4 984.3 OFFCURVE",
"566.9 984.3 CURVE SMOOTH",
"776.8 984.3 OFFCURVE",
"837.2 836.3 OFFCURVE",
"839.1 696.6 CURVE"
);
}
);
width = 1061.8;
},
{
anchors = (
{
name = bottom;
position = "{574.08, -40}";
},
{
name = top;
position = "{593.76, 1188}";
}
);
layerId = "6BD0978F-C27A-4FE6-8A6F-902073A9F586";
paths = (
{
closed = 1;
nodes = (
"790.56 598.48 OFFCURVE",
"826.8 594.48 OFFCURVE",
"858.16 594.48 CURVE SMOOTH",
"984.88 594.48 OFFCURVE",
"1050.08 647.68 OFFCURVE",
"1050.08 765.12 CURVE SMOOTH",
"1050.08 942.56 OFFCURVE",
"905.52 1131.92 OFFCURVE",
"593.76 1131.92 CURVE SMOOTH",
"315.84 1131.92 OFFCURVE",
"62.56 956.4 OFFCURVE",
"62.56 545.52 CURVE SMOOTH",
"62.56 272.24 OFFCURVE",
"177.52 -29.52 OFFCURVE",
"562.56 -29.52 CURVE SMOOTH",
"764.48 -29.52 OFFCURVE",
"923.68 46 OFFCURVE",
"1034.4 141.36 CURVE",
"1020.72 206.48 OFFCURVE",
"955.6 307.2 OFFCURVE",
"892.16 340.24 CURVE",
"813.12 281.84 OFFCURVE",
"708.8 230.64 OFFCURVE",
"610.16 230.64 CURVE SMOOTH",
"496.64 230.64 OFFCURVE",
"385.52 293.28 OFFCURVE",
"385.52 543.68 CURVE SMOOTH",
"385.52 764.4 OFFCURVE",
"440.96 885.12 OFFCURVE",
"582.56 885.12 CURVE SMOOTH",
"721.12 885.12 OFFCURVE",
"753.68 771.92 OFFCURVE",
"753.84 602.64 CURVE"
);
}
);
width = 1093.12;
}
);
leftKerningGroup = c.smcp;
},
{
glyphname = d.smcp;
lastChange = "2018-12-12 17:56:20 +0000";
layers = (
{
anchors = (
{
name = bottom;
position = "{556, -40}";
},
{
name = top;
position = "{540.5, 1188}";
}
);
layerId = "4A173D0E-7CF5-44A8-8AF0-8145C41E8E72";
paths = (
{
closed = 1;
nodes = (
"1045.9 726.5 OFFCURVE",
"1017.7 891.1 OFFCURVE",
"860.7 1009.1 CURVE SMOOTH",
"784.3 1067.1 OFFCURVE",
"641.8 1091.2 OFFCURVE",
"547.3 1091.2 CURVE",
"404.4 1091.2 OFFCURVE",
"344.2 1089.1 OFFCURVE",
"191.9 1085.1 CURVE",
"181.8 1075 LINE",
"181.8 10 LINE",
"191.9 -0.1 LINE",
"342.3 -4.1 OFFCURVE",
"404.4 -6.1 OFFCURVE",
"547.3 -6.1 CURVE",
"641.8 -6.1 OFFCURVE",
"784.3 15.9 OFFCURVE",
"860.7 73.8 CURVE SMOOTH",
"1019.7 191.9 OFFCURVE",
"1045.9 354.5 OFFCURVE",
"1045.9 540.5 CURVE SMOOTH"
);
},
{
closed = 1;
nodes = (
"886.6 343.6 OFFCURVE",
"839.6 116.7 OFFCURVE",
"545.4 116.7 CURVE SMOOTH",
"464.7 116.7 OFFCURVE",
"404.3 114.7 OFFCURVE",
"333.1 114.7 CURVE",
"333.1 968.4 LINE",
"404.2 968.3 OFFCURVE",
"464.7 966.4 OFFCURVE",
"545.4 966.4 CURVE SMOOTH",
"839.6 966.4 OFFCURVE",
"886.6 739.4 OFFCURVE",
"886.6 540.5 CURVE"
);
}
);
width = 1142.1;
},
{
anchors = (
{
name = bottom;
position = "{590.8, -40}";
},
{
name = top;
position = "{584, 1188}";
}
);
layerId = "6BD0978F-C27A-4FE6-8A6F-902073A9F586";
paths = (
{
closed = 1;
nodes = (
"1148.56 735.2 OFFCURVE",
"1116.88 910.24 OFFCURVE",
"942.48 1028.24 CURVE SMOOTH",
"859.12 1086.24 OFFCURVE",
"707.92 1112.08 OFFCURVE",
"604.72 1112.08 CURVE",
"446.16 1112.08 OFFCURVE",
"312.88 1108.24 OFFCURVE",
"155.36 1104.24 CURVE",
"143.52 1092.4 LINE",
"143.52 10 LINE",
"155.36 -1.84 LINE",
"312.72 -5.84 OFFCURVE",
"446.16 -7.84 OFFCURVE",
"604.72 -7.84 CURVE",
"707.92 -7.84 OFFCURVE",
"859.12 14.16 OFFCURVE",
"942.48 70.32 CURVE SMOOTH",
"1118.88 190.16 OFFCURVE",
"1148.56 363.2 OFFCURVE",
"1148.56 549.2 CURVE SMOOTH"
);
},
{
closed = 1;
nodes = (
"827.44 406.24 OFFCURVE",
"797.84 233.28 OFFCURVE",
"604.56 233.28 CURVE SMOOTH",
"546.48 233.28 OFFCURVE",
"513.92 231.28 OFFCURVE",
"456.64 231.28 CURVE",
"456.64 870.96 LINE",
"512.08 869.12 OFFCURVE",
"546.48 868.96 OFFCURVE",
"604.56 868.96 CURVE SMOOTH",
"797.84 868.96 OFFCURVE",
"827.44 694.16 OFFCURVE",
"827.44 549.2 CURVE"
);
}
);
width = 1213.44;
}
);
leftKerningGroup = b.smcp;
rightKerningGroup = d.smcp;
},
{
glyphname = e.smcp;
lastChange = "2018-12-12 17:56:20 +0000";
layers = (
{
anchors = (
{
name = bottom;
position = "{542.7, -40}";
},
{
name = top;
position = "{540.8, 1188}";
}
);
layerId = "4A173D0E-7CF5-44A8-8AF0-8145C41E8E72";
paths = (
{
closed = 1;
nodes = (
"181.8 94.6 LINE",
"181.8 35.7 OFFCURVE",
"215.9 -0.2 OFFCURVE",
"269.3 -0.2 CURVE SMOOTH",
"329.2 -0.2 LINE",
"329.2 125 LINE SMOOTH",
"329.2 139 OFFCURVE",
"331.2 172.4 OFFCURVE",
"331.2 197.8 CURVE SMOOTH",
"331.2 857.4 LINE SMOOTH",
"331.2 899.4 OFFCURVE",
"329.2 936.6 OFFCURVE",
"329.2 961.6 CURVE SMOOTH",
"329.2 1085 LINE",
"191.9 1085 LINE",
"181.8 1074.9 LINE"
);
},
{
closed = 1;
nodes = (
"438.2 615.6 LINE SMOOTH",
"397.9 615.6 OFFCURVE",
"330.2 613.6 OFFCURVE",
"277.9 613.5 CURVE",
"277.9 490.8 LINE",
"330.2 488.8 OFFCURVE",
"397.9 488.8 OFFCURVE",
"438.2 488.8 CURVE SMOOTH",
"785 488.8 LINE",
"791.4 509.7 OFFCURVE",
"791.6 535.2 OFFCURVE",
"791.6 552.3 CURVE SMOOTH",
"791.6 567.3 OFFCURVE",
"791.4 594.7 OFFCURVE",
"785 615.6 CURVE"
);
},
{
closed = 1;
nodes = (
"277.9 1085 LINE",
"277.9 959.8 LINE",
"330.2 957.8 OFFCURVE",
"397.9 957.7 OFFCURVE",
"438.2 957.7 CURVE SMOOTH",
"873.3 957.7 LINE",
"881.8 981 OFFCURVE",
"884.1 1008.2 OFFCURVE",
"884.1 1025.3 CURVE SMOOTH",
"884.1 1042.4 OFFCURVE",
"884.1 1063.6 OFFCURVE",
"879.8 1085 CURVE"
);
},
{
closed = 1;
nodes = (
"440.7 129 LINE SMOOTH",
"365.7 129 OFFCURVE",
"324.2 126.7 OFFCURVE",
"280 122.7 CURVE",
"280 -0.2 LINE",
"810.7 -0.2 LINE SMOOTH",
"864.2 -0.2 OFFCURVE",
"897.6 23.4 OFFCURVE",
"906.1 70.4 CURVE SMOOTH",
"910.2 89.4 OFFCURVE",
"910.2 116.2 OFFCURVE",
"910.2 129 CURVE"
);
}
);
width = 1003.1;
},
{
anchors = (
{
name = bottom;
position = "{554.88, -40}";
},
{
name = top;
position = "{554.72, 1188}";
}
);
layerId = "6BD0978F-C27A-4FE6-8A6F-902073A9F586";
paths = (
{
closed = 1;
nodes = (
"143.52 174.64 LINE",
"143.52 65.28 OFFCURVE",
"214.16 -3.68 OFFCURVE",
"326.72 -3.68 CURVE SMOOTH",
"454.48 -3.68 LINE",
"454.48 246.8 LINE SMOOTH",
"454.48 295.6 OFFCURVE",
"456.48 318.56 OFFCURVE",
"456.48 368.32 CURVE SMOOTH",
"456.48 742.56 LINE SMOOTH",
"456.48 784.56 OFFCURVE",
"454.48 807.84 OFFCURVE",
"454.48 850.24 CURVE SMOOTH",
"454.48 1102.4 LINE",
"155.36 1102.4 LINE",
"143.52 1090.56 LINE"
);
},
{
closed = 1;
nodes = (
"580.88 678.24 LINE SMOOTH",
"535.36 678.24 OFFCURVE",
"403.28 676.24 OFFCURVE",
"345.76 674.4 CURVE",
"345.76 435.12 LINE",
"403.28 433.12 OFFCURVE",
"535.36 433.12 OFFCURVE",
"580.88 433.12 CURVE SMOOTH",
"837.2 433.12 LINE",
"850.56 469.68 OFFCURVE",
"854.24 521.28 OFFCURVE",
"854.24 557.52 CURVE SMOOTH",
"854.24 589.92 OFFCURVE",
"850.56 641.68 OFFCURVE",
"837.2 678.24 CURVE"
);
},
{
closed = 1;
nodes = (
"345.76 1102.4 LINE",
"345.76 851.92 LINE",
"403.28 849.92 OFFCURVE",
"535.36 848.08 OFFCURVE",
"580.88 848.08 CURVE SMOOTH",
"930.72 848.08 LINE",
"947.92 894 OFFCURVE",
"955.44 942.08 OFFCURVE",
"955.44 978.32 CURVE SMOOTH",
"955.44 1014.56 OFFCURVE",
"955.44 1056.64 OFFCURVE",
"945.92 1102.4 CURVE"
);
},
{
closed = 1;
nodes = (
"592.08 250.8 LINE SMOOTH",
"499.68 250.8 OFFCURVE",
"466.88 243.28 OFFCURVE",
"349.6 239.28 CURVE",
"349.6 -3.68 LINE",
"788.08 -3.68 LINE SMOOTH",
"902.48 -3.68 OFFCURVE",
"960.24 47.76 OFFCURVE",
"977.44 146.96 CURVE SMOOTH",
"983.28 183.36 OFFCURVE",
"983.28 224.08 OFFCURVE",
"983.28 250.8 CURVE"
);
}
);
width = 1057.04;
}
);
leftKerningGroup = b.smcp;
rightKerningGroup = e.smcp;
},
{
glyphname = f.smcp;
lastChange = "2018-12-12 17:56:20 +0000";
layers = (
{
anchors = (
{
name = bottom;
position = "{258.4, -40}";
},
{
name = top;
position = "{530.5, 1188}";
}
);
layerId = "4A173D0E-7CF5-44A8-8AF0-8145C41E8E72";
paths = (
{
closed = 1;
nodes = (
"333.3 758 LINE SMOOTH",
"333.3 836.5 OFFCURVE",
"331.3 919.2 OFFCURVE",
"331.3 999.9 CURVE SMOOTH",
"331.3 1085 LINE",
"191.9 1085 LINE",
"181.8 1076.9 LINE",
"181.8 0 LINE",
"201.8 -4.3 OFFCURVE",
"229.7 -6.3 OFFCURVE",
"256.6 -6.3 CURVE SMOOTH",
"283.5 -6.3 OFFCURVE",
"311.4 -4.3 OFFCURVE",
"333.3 0 CURVE"
);
},
{
closed = 1;
nodes = (
"274.9 1085 LINE",
"274.9 961.3 LINE",
"338.1 957.5 OFFCURVE",
"419.9 955.5 OFFCURVE",
"521.1 955.5 CURVE SMOOTH",
"789.9 955.5 LINE SMOOTH",
"858.4 955.5 OFFCURVE",
"875.9 981.1 OFFCURVE",
"875.9 1025.7 CURVE SMOOTH",
"875.9 1042.4 OFFCURVE",
"871.9 1067.9 OFFCURVE",
"865.7 1085 CURVE"
);
},
{
closed = 1;
nodes = (
"427.2 608.6 LINE SMOOTH",
"386.5 608.6 OFFCURVE",
"326.5 606.6 OFFCURVE",
"275.6 606.5 CURVE",
"275.6 485.7 LINE",
"326.5 485.6 OFFCURVE",
"386.5 483.6 OFFCURVE",
"427.2 483.6 CURVE SMOOTH",
"776.3 483.6 LINE",
"780.7 504.5 OFFCURVE",
"782.8 528.3 OFFCURVE",
"782.8 545.4 CURVE SMOOTH",
"782.8 562.3 OFFCURVE",
"780.7 587.8 OFFCURVE",
"776.3 608.6 CURVE"
);
}
);
width = 915.4;
},
{
anchors = (
{
name = bottom;
position = "{300.16, -40}";
},
{
name = top;
position = "{539.2, 1188}";
}
);
layerId = "6BD0978F-C27A-4FE6-8A6F-902073A9F586";
paths = (
{
closed = 1;
nodes = (
"460.32 758 LINE SMOOTH",
"460.32 845.2 OFFCURVE",
"458.32 940.08 OFFCURVE",
"458.32 1032.96 CURVE SMOOTH",
"458.32 1102.4 LINE",
"155.36 1102.4 LINE",
"143.52 1092.56 LINE",
"143.52 0 LINE",
"198.32 -9.52 OFFCURVE",
"259.28 -11.52 OFFCURVE",
"301.84 -11.52 CURVE SMOOTH",
"344.4 -11.52 OFFCURVE",
"405.36 -9.52 OFFCURVE",
"460.32 0 CURVE"
);
},
{
closed = 1;
nodes = (
"325.36 1102.4 LINE",
"325.36 844.72 LINE",
"409.44 844.4 OFFCURVE",
"487.76 842.4 OFFCURVE",
"575.04 842.4 CURVE SMOOTH",
"788.16 842.4 LINE SMOOTH",
"900.16 842.4 OFFCURVE",
"943.76 895.84 OFFCURVE",
"943.76 985.68 CURVE SMOOTH",
"943.76 1014.56 OFFCURVE",
"939.76 1066.16 OFFCURVE",
"930.08 1102.4 CURVE"
);
},
{
closed = 1;
nodes = (
"482.88 653.84 LINE SMOOTH",
"430 653.84 OFFCURVE",
"370 651.84 OFFCURVE",
"338.24 650 CURVE",
"338.24 410.88 LINE",
"370 409.04 OFFCURVE",
"430 407.04 OFFCURVE",
"482.88 407.04 CURVE SMOOTH",
"816.32 407.04 LINE",
"827.68 443.6 OFFCURVE",
"831.52 498.72 OFFCURVE",
"831.52 534.96 CURVE SMOOTH",
"831.52 567.52 OFFCURVE",
"827.68 619.12 OFFCURVE",
"816.32 653.84 CURVE"
);
}
);
width = 974.56;
}
);
leftKerningGroup = b.smcp;
},
{
glyphname = g.smcp;
lastChange = "2018-12-12 17:56:20 +0000";
layers = (
{
anchors = (
{
name = bottom;
position = "{584.8, -40}";
},
{
name = top;
position = "{594.3, 1188}";
}
);
layerId = "4A173D0E-7CF5-44A8-8AF0-8145C41E8E72";
paths = (
{
closed = 1;
nodes = (
"880.1 1065.4 OFFCURVE",
"729.7 1109.3 OFFCURVE",
"590.5 1109.3 CURVE SMOOTH",
"343.2 1109.3 OFFCURVE",
"94.2 959.5 OFFCURVE",
"94.2 538.4 CURVE SMOOTH",
"94.2 259 OFFCURVE",
"206.7 -24.3 OFFCURVE",
"566.5 -24.3 CURVE SMOOTH",
"719.7 -24.3 OFFCURVE",
"874.7 9.7 OFFCURVE",
"981.8 47.3 CURVE",
"904.9 160.6 LINE",
"848.5 139 OFFCURVE",
"743.2 101.9 OFFCURVE",
"596 101.9 CURVE SMOOTH",
"368 101.9 OFFCURVE",
"253.6 249.8 OFFCURVE",
"253.6 536.4 CURVE SMOOTH",
"253.6 866 OFFCURVE",
"408.2 978.3 OFFCURVE",
"583.9 978.3 CURVE SMOOTH",
"706.6 978.3 OFFCURVE",
"815.8 940.9 OFFCURVE",
"900.5 879.6 CURVE",
"932.1 900.7 OFFCURVE",
"967.2 946.3 OFFCURVE",
"978.9 992.4 CURVE"
);
},
{
closed = 1;
nodes = (
"833.6 43.3 LINE",
"903.5 45.3 OFFCURVE",
"929.7 43.3 OFFCURVE",
"981.8 47.3 CURVE",
"981.8 462.7 LINE",
"861.4 529.6 LINE",
"839.3 477.7 OFFCURVE",
"833.6 378.2 OFFCURVE",
"833.6 331.7 CURVE SMOOTH"
);
},
{
closed = 1;
nodes = (
"584.1 542 OFFCURVE",
"580 514.7 OFFCURVE",
"580 499 CURVE SMOOTH",
"580 450.8 OFFCURVE",
"605.4 429.8 OFFCURVE",
"652 429.8 CURVE SMOOTH",
"746.9 429.8 OFFCURVE",
"877.3 429.8 OFFCURVE",
"981.8 435.6 CURVE",
"981.8 466.6 LINE SMOOTH",
"981.8 531.1 OFFCURVE",
"952.8 562.8 OFFCURVE",
"846.1 562.8 CURVE SMOOTH",
"757.6 562.8 OFFCURVE",
"675 560.9 OFFCURVE",
"590.3 558.8 CURVE"
);
}
);
width = 1102.3;
},
{
anchors = (
{
name = bottom;
position = "{633.52, -40}";
},
{
name = top;
position = "{634.32, 1188}";
}
);
layerId = "6BD0978F-C27A-4FE6-8A6F-902073A9F586";
paths = (
{
closed = 1;
nodes = (
"951.44 1089.76 OFFCURVE",
"794.08 1131.92 OFFCURVE",
"634 1131.92 CURVE SMOOTH",
"329.28 1131.92 OFFCURVE",
"62.88 950.8 OFFCURVE",
"62.88 545.36 CURVE SMOOTH",
"62.88 206.8 OFFCURVE",
"218.88 -29.52 OFFCURVE",
"610 -29.52 CURVE SMOOTH",
"784.08 -29.52 OFFCURVE",
"991.28 4.48 OFFCURVE",
"1082.72 35.12 CURVE",
"920.56 240.64 LINE",
"857.2 226 OFFCURVE",
"764.08 204.56 OFFCURVE",
"665.6 204.56 CURVE SMOOTH",
"472.4 204.56 OFFCURVE",
"385.84 315.92 OFFCURVE",
"385.84 543.36 CURVE SMOOTH",
"385.84 761.6 OFFCURVE",
"481.28 879.12 OFFCURVE",
"651.76 879.12 CURVE SMOOTH",
"751.84 879.12 OFFCURVE",
"847.12 852.16 OFFCURVE",
"944 803.04 CURVE",
"1003.44 843.28 OFFCURVE",
"1057.68 951.52 OFFCURVE",
"1064.16 1034.16 CURVE"
);
},
{
closed = 1;
nodes = (
"791.84 31.12 LINE",
"860 33.12 OFFCURVE",
"1028.88 31.12 OFFCURVE",
"1082.72 35.12 CURVE",
"1082.72 474.88 LINE",
"816.16 557.44 LINE",
"792.32 472.48 OFFCURVE",
"791.84 207.68 OFFCURVE",
"791.84 291.68 CURVE SMOOTH"
);
},
{
closed = 1;
nodes = (
"585.84 611.6 OFFCURVE",
"580 561.68 OFFCURVE",
"580 516.4 CURVE SMOOTH",
"580 429.92 OFFCURVE",
"629.76 391.52 OFFCURVE",
"721.6 391.52 CURVE SMOOTH",
"832.16 391.52 OFFCURVE",
"969.52 391.52 OFFCURVE",
"1082.72 393.84 CURVE",
"1082.72 477.04 LINE SMOOTH",
"1082.72 585.04 OFFCURVE",
"1036.32 646.32 OFFCURVE",
"882.64 646.32 CURVE SMOOTH",
"785.44 646.32 OFFCURVE",
"692.4 646.16 OFFCURVE",
"595.52 642.32 CURVE"
);
}
);
width = 1177.12;
}
);
leftKerningGroup = c.smcp;
},
{
glyphname = h.smcp;
lastChange = "2018-12-12 17:56:20 +0000";
layers = (
{
anchors = (
{
name = bottom;
position = "{605.5, -40}";
},
{
name = top;
position = "{605.5, 1188}";
}
);
layerId = "4A173D0E-7CF5-44A8-8AF0-8145C41E8E72";
paths = (
{
closed = 1;
nodes = (
"773 500.7 LINE SMOOTH",
"785.9 500.7 OFFCURVE",
"865 502.7 OFFCURVE",
"879.8 502.7 CURVE SMOOTH",
"909.7 502.7 OFFCURVE",
"939.4 500.7 OFFCURVE",
"969.3 500.7 CURVE",
"969.3 630 LINE",
"939.4 630 OFFCURVE",
"909.7 628 OFFCURVE",
"879.8 628 CURVE SMOOTH",
"865 628 OFFCURVE",
"785.9 630 OFFCURVE",
"773 630 CURVE SMOOTH",
"438.2 630 LINE SMOOTH",
"425.3 630 OFFCURVE",
"346.1 628 OFFCURVE",
"331.3 628 CURVE SMOOTH",
"301.5 628 OFFCURVE",
"271.5 630 OFFCURVE",
"243.5 630 CURVE",
"243.5 500.7 LINE",
"271.5 500.7 OFFCURVE",
"301.5 502.7 OFFCURVE",
"331.3 502.7 CURVE SMOOTH",
"346.1 502.7 OFFCURVE",
"425.3 500.7 OFFCURVE",
"438.2 500.7 CURVE SMOOTH"
);
},
{
closed = 1;
nodes = (
"333.3 382.8 LINE SMOOTH",
"333.3 428.8 OFFCURVE",
"331.3 458.8 OFFCURVE",
"331.3 502.7 CURVE SMOOTH",
"331.3 628 LINE SMOOTH",
"331.3 670 OFFCURVE",
"333.3 700.1 OFFCURVE",
"333.3 746 CURVE SMOOTH",
"333.3 1085 LINE",
"311.5 1089.4 OFFCURVE",
"283.6 1091.4 OFFCURVE",
"256.8 1091.4 CURVE SMOOTH",
"232.1 1091.4 OFFCURVE",
"201.6 1089.4 OFFCURVE",
"181.8 1085 CURVE",
"181.8 0 LINE",
"201.6 -4.3 OFFCURVE",
"232.1 -6.3 OFFCURVE",
"256.8 -6.3 CURVE SMOOTH",
"283.6 -6.3 OFFCURVE",
"311.5 -4.3 OFFCURVE",
"333.3 0 CURVE"
);
},
{
closed = 1;
nodes = (
"877.8 0 LINE",
"897.8 -4.3 OFFCURVE",
"925.7 -6.3 OFFCURVE",
"952.6 -6.3 CURVE",
"979.5 -6.3 OFFCURVE",
"1007.4 -4.3 OFFCURVE",
"1029.3 0 CURVE",
"1029.3 1085 LINE",
"1007.6 1089.4 OFFCURVE",
"979 1091.4 OFFCURVE",
"952.4 1091.4 CURVE SMOOTH",
"925.6 1091.4 OFFCURVE",
"897.7 1089.4 OFFCURVE",
"877.8 1085 CURVE",
"877.8 746 LINE SMOOTH",
"877.8 700.1 OFFCURVE",
"879.8 670 OFFCURVE",
"879.8 628 CURVE SMOOTH",
"879.8 502.7 LINE SMOOTH",
"879.8 458.8 OFFCURVE",
"877.8 428.8 OFFCURVE",
"877.8 382.8 CURVE SMOOTH"
);
}
);
width = 1211.1;
},
{
anchors = (
{
name = bottom;
position = "{631.6, -40}";
},
{
name = top;
position = "{631.6, 1188}";
}
);
layerId = "6BD0978F-C27A-4FE6-8A6F-902073A9F586";
paths = (
{
closed = 1;
nodes = (
"720.8 443.28 LINE SMOOTH",
"749.36 443.28 OFFCURVE",
"778 445.28 OFFCURVE",
"806.72 445.28 CURVE SMOOTH",
"869.68 445.28 OFFCURVE",
"928.96 443.28 OFFCURVE",
"991.92 443.28 CURVE",
"991.92 699.6 LINE",
"928.96 699.6 OFFCURVE",
"869.68 697.6 OFFCURVE",
"806.72 697.6 CURVE SMOOTH",
"778 697.6 OFFCURVE",
"749.36 699.6 OFFCURVE",
"720.8 699.6 CURVE SMOOTH",
"546.08 699.6 LINE SMOOTH",
"517.52 699.6 OFFCURVE",
"487.04 697.6 OFFCURVE",
"458.32 697.6 CURVE SMOOTH",
"397.2 697.6 OFFCURVE",
"332.4 699.6 OFFCURVE",
"269.6 699.6 CURVE",
"269.6 443.28 LINE",
"332.4 443.28 OFFCURVE",
"397.2 445.28 OFFCURVE",
"458.32 445.28 CURVE SMOOTH",
"487.04 445.28 OFFCURVE",
"517.52 443.28 OFFCURVE",
"546.08 443.28 CURVE SMOOTH"
);
},
{
closed = 1;
nodes = (
"460.32 327.12 LINE SMOOTH",
"460.32 373.12 OFFCURVE",
"458.32 403.12 OFFCURVE",
"458.32 445.28 CURVE SMOOTH",
"458.32 697.6 LINE SMOOTH",
"458.32 739.6 OFFCURVE",
"460.32 771.44 OFFCURVE",
"460.32 815.6 CURVE SMOOTH",
"460.32 1102.4 LINE",
"407.2 1113.76 OFFCURVE",
"346.24 1115.76 OFFCURVE",
"305.52 1115.76 CURVE SMOOTH",
"268.64 1115.76 OFFCURVE",
"194.64 1113.76 OFFCURVE",
"143.52 1102.4 CURVE",
"143.52 0 LINE",
"194.64 -9.52 OFFCURVE",
"268.64 -11.52 OFFCURVE",
"305.52 -11.52 CURVE SMOOTH",
"346.24 -11.52 OFFCURVE",
"407.2 -9.52 OFFCURVE",
"460.32 0 CURVE"
);
},
{
closed = 1;
nodes = (
"804.72 0 LINE",
"859.52 -9.52 OFFCURVE",
"920.48 -11.52 OFFCURVE",
"963.04 -11.52 CURVE",
"1005.6 -11.52 OFFCURVE",
"1066.56 -9.52 OFFCURVE",
"1121.52 0 CURVE",
"1121.52 1102.4 LINE",
"1070.24 1113.76 OFFCURVE",
"996.4 1115.76 OFFCURVE",
"959.36 1115.76 CURVE SMOOTH",
"918.64 1115.76 OFFCURVE",
"857.68 1113.76 OFFCURVE",
"804.72 1102.4 CURVE",
"804.72 815.6 LINE SMOOTH",
"804.72 771.44 OFFCURVE",
"806.72 739.6 OFFCURVE",
"806.72 697.6 CURVE SMOOTH",
"806.72 445.28 LINE SMOOTH",
"806.72 403.12 OFFCURVE",
"804.72 373.12 OFFCURVE",
"804.72 327.12 CURVE SMOOTH"
);
}
);
width = 1265.04;
}
);
leftKerningGroup = b.smcp;
rightKerningGroup = h.smcp;
},
{
glyphname = i.smcp;
lastChange = "2018-12-12 17:56:20 +0000";
layers = (
{
anchors = (
{
name = bottom;
position = "{264.6, -40}";
},
{
name = top;
position = "{264.6, 1188}";
}
);
layerId = "4A173D0E-7CF5-44A8-8AF0-8145C41E8E72";
paths = (
{
closed = 1;
nodes = (
"189.6 0 LINE",
"209.4 -4.3 OFFCURVE",
"239.9 -6.3 OFFCURVE",
"264.6 -6.3 CURVE SMOOTH",
"291.4 -6.3 OFFCURVE",
"319.3 -4.3 OFFCURVE",
"341.1 0 CURVE",
"341.1 1085 LINE",
"319.3 1089.3 OFFCURVE",
"291.4 1091.3 OFFCURVE",
"264.6 1091.3 CURVE SMOOTH",
"239.9 1091.3 OFFCURVE",
"209.4 1089.3 OFFCURVE",
"189.6 1085 CURVE"
);
}
);
width = 530.7;
},
{
anchors = (
{
name = bottom;
position = "{309.84, -40}";
},
{
name = top;
position = "{309.84, 1188}";
}
);
layerId = "6BD0978F-C27A-4FE6-8A6F-902073A9F586";
paths = (
{
closed = 1;
nodes = (
"147.84 0 LINE",
"198.96 -9.52 OFFCURVE",
"272.96 -11.52 OFFCURVE",
"309.84 -11.52 CURVE SMOOTH",
"350.56 -11.52 OFFCURVE",
"411.52 -9.52 OFFCURVE",
"464.64 0 CURVE",
"464.64 1102.4 LINE",
"411.52 1111.92 OFFCURVE",
"350.56 1113.92 OFFCURVE",
"309.84 1113.92 CURVE SMOOTH",
"272.96 1113.92 OFFCURVE",
"198.96 1111.92 OFFCURVE",
"147.84 1102.4 CURVE"
);
}
);
width = 612.48;
}
);
leftKerningGroup = b.smcp;
rightKerningGroup = h.smcp;
},
{
glyphname = j.smcp;
lastChange = "2018-12-12 17:56:20 +0000";
layers = (
{
anchors = (
{
name = bottom;
position = "{346.1, -40}";
},
{
name = top;
position = "{534.6, 1188}";
}
);
layerId = "4A173D0E-7CF5-44A8-8AF0-8145C41E8E72";
paths = (
{
closed = 1;
nodes = (
"33.1 134.9 OFFCURVE",
"12.2 90.6 OFFCURVE",
"7.7 50.5 CURVE",
"71.7 13.8 OFFCURVE",
"169.7 -20.5 OFFCURVE",
"276.3 -20.5 CURVE SMOOTH",
"506.9 -20.5 OFFCURVE",
"611.3 101.9 OFFCURVE",
"611.3 365.6 CURVE SMOOTH",
"611.3 1085 LINE",
"591.4 1089.4 OFFCURVE",
"563.3 1091.3 OFFCURVE",
"536.5 1091.3 CURVE SMOOTH",
"509.9 1091.3 OFFCURVE",
"481.5 1089.3 OFFCURVE",
"459.8 1085 CURVE",
"459.8 366.8 LINE",
"459.8 187.8 OFFCURVE",
"410.1 104.7 OFFCURVE",
"266.5 104.7 CURVE SMOOTH",
"197.6 104.7 OFFCURVE",
"111 134.2 OFFCURVE",
"62.6 162.6 CURVE"
);
}
);
width = 765.4;
},
{
anchors = (
{
name = bottom;
position = "{382.64, -40}";
},
{
name = top;
position = "{579.84, 1188}";
}
);
layerId = "6BD0978F-C27A-4FE6-8A6F-902073A9F586";
paths = (
{
closed = 1;
nodes = (
"52.24 220.16 OFFCURVE",
"15.68 135.84 OFFCURVE",
"2.48 59.2 CURVE",
"66.48 10.32 OFFCURVE",
"199.28 -29.2 OFFCURVE",
"316.32 -29.2 CURVE SMOOTH",
"626.96 -29.2 OFFCURVE",
"738.32 134.96 OFFCURVE",
"738.32 428.24 CURVE SMOOTH",
"738.32 1102.4 LINE",
"685.36 1113.76 OFFCURVE",
"620.72 1113.92 OFFCURVE",
"580 1113.92 CURVE SMOOTH",
"542.96 1113.92 OFFCURVE",
"472.8 1111.92 OFFCURVE",
"421.52 1102.4 CURVE",
"421.52 415.52 LINE",
"421.52 288.72 OFFCURVE",
"377.04 221.28 OFFCURVE",
"275.2 221.28 CURVE SMOOTH",
"225.44 221.28 OFFCURVE",
"163.2 242.08 OFFCURVE",
"107.84 277.44 CURVE"
);
}
);
width = 859.36;
}
);
leftKerningGroup = j.smcp;
rightKerningGroup = u.smcp;
},
{
glyphname = k.smcp;
lastChange = "2018-12-12 17:56:20 +0000";
layers = (
{
anchors = (
{
name = bottom;
position = "{542.8, -40}";
},
{
name = top;
position = "{534.8, 1188}";
}
);
layerId = "4A173D0E-7CF5-44A8-8AF0-8145C41E8E72";
paths = (
{
closed = 1;
nodes = (
"181.8 0 LINE",
"201.6 -4.3 OFFCURVE",
"232.1 -6.3 OFFCURVE",
"256.8 -6.3 CURVE SMOOTH",
"283.6 -6.3 OFFCURVE",
"311.5 -4.3 OFFCURVE",
"333.3 0 CURVE",
"333.3 1085 LINE",
"311.5 1089.3 OFFCURVE",
"283.6 1091.3 OFFCURVE",
"256.8 1091.3 CURVE SMOOTH",
"232.1 1091.3 OFFCURVE",
"201.6 1089.3 OFFCURVE",
"181.8 1085 CURVE"
);
},
{
closed = 1;
nodes = (
"988.8 68.8 OFFCURVE",
"961 117.1 OFFCURVE",
"938.5 164.6 CURVE SMOOTH",
"825 404.9 LINE SMOOTH",
"769.2 521.2 OFFCURVE",
"705.7 593.3 OFFCURVE",
"563.7 593.3 CURVE SMOOTH",
"244 593.3 LINE",
"244 486.2 LINE",
"316.9 490.5 LINE SMOOTH",
"367.2 492.7 OFFCURVE",
"438.8 496.9 OFFCURVE",
"469.3 496.8 CURVE SMOOTH",
"582.4 496.6 OFFCURVE",
"631.2 459.2 OFFCURVE",
"683.9 349.2 CURVE SMOOTH",
"811.4 84.4 LINE SMOOTH",
"841.7 22.9 OFFCURVE",
"862.7 -10.2 OFFCURVE",
"919.6 -10.3 CURVE SMOOTH",
"954.3 -10.4 OFFCURVE",
"994.8 12.6 OFFCURVE",
"1016 43.9 CURVE"
);
},
{
closed = 1;
nodes = (
"516.5 666.6 LINE SMOOTH",
"494.3 635.8 OFFCURVE",
"484.6 627.7 OFFCURVE",
"449.4 625.8 CURVE SMOOTH",
"256.4 618.1 LINE",
"256.4 536.1 LINE",
"462.4 536.1 LINE SMOOTH",
"553 536.1 OFFCURVE",
"622.4 579.4 OFFCURVE",
"672 652.9 CURVE SMOOTH",
"959.1 1070.7 LINE",
"946.8 1085 LINE",
"917.5 1087.3 OFFCURVE",
"887.2 1089.5 OFFCURVE",
"862.7 1089.5 CURVE SMOOTH",
"804.5 1089.5 OFFCURVE",
"785.7 1064.9 OFFCURVE",
"757.3 1023.4 CURVE SMOOTH"
);
}
);
width = 1061.2;
},
{
anchors = (
{
name = bottom;
position = "{591.52, -40}";
},
{
name = top;
position = "{583.52, 1188}";
}
);
layerId = "6BD0978F-C27A-4FE6-8A6F-902073A9F586";
paths = (
{
closed = 1;
nodes = (
"143.52 0 LINE",
"194.64 -9.52 OFFCURVE",
"268.64 -11.52 OFFCURVE",
"305.52 -11.52 CURVE SMOOTH",
"346.24 -11.52 OFFCURVE",
"407.2 -9.52 OFFCURVE",
"460.32 0 CURVE",
"460.32 1102.4 LINE",
"407.2 1111.92 OFFCURVE",
"346.24 1113.92 OFFCURVE",
"305.52 1113.92 CURVE SMOOTH",
"268.64 1113.92 OFFCURVE",
"194.64 1111.92 OFFCURVE",
"143.52 1102.4 CURVE"
);
},
{
closed = 1;
nodes = (
"1072.32 117.52 OFFCURVE",
"1048 171.04 OFFCURVE",
"1016.8 244.64 CURVE SMOOTH",
"946.8 420.56 LINE SMOOTH",
"894.48 542.08 OFFCURVE",
"839.68 615.92 OFFCURVE",
"628.08 615.92 CURVE SMOOTH",
"244 615.92 LINE",
"244 420.08 LINE",
"332.56 429.6 LINE SMOOTH",
"388.08 435.28 OFFCURVE",
"487.52 442.96 OFFCURVE",
"526.72 441.12 CURVE SMOOTH",
"589.36 437.44 OFFCURVE",
"617.28 410.48 OFFCURVE",
"647.36 335.28 CURVE SMOOTH",
"731.36 126.16 LINE SMOOTH",
"766.88 38.56 OFFCURVE",
"805.28 -13.68 OFFCURVE",
"912.64 -15.52 CURVE SMOOTH",
"994.32 -17.36 OFFCURVE",
"1078.32 23.04 OFFCURVE",
"1120.4 76.96 CURVE"
);
},
{
closed = 1;
nodes = (
"560 746.64 LINE SMOOTH",
"534.32 701.92 OFFCURVE",
"529.84 692.08 OFFCURVE",
"473.76 691.92 CURVE SMOOTH",
"263.36 689.44 LINE",
"263.36 537.84 LINE",
"573.76 537.84 LINE SMOOTH",
"709.6 537.84 OFFCURVE",
"803.36 603.76 OFFCURVE",
"880.8 738.16 CURVE SMOOTH",
"1082.64 1082.88 LINE",
"1065.12 1102.4 LINE",
"1013.2 1109.92 OFFCURVE",
"908.08 1115.6 OFFCURVE",
"874.88 1115.6 CURVE SMOOTH",
"778.4 1115.6 OFFCURVE",
"745.68 1080.56 OFFCURVE",
"710.32 1012.96 CURVE SMOOTH"
);
}
);
width = 1151.68;
}
);
leftKerningGroup = b.smcp;
rightKerningGroup = k.smcp;
},
{
glyphname = l.smcp;
lastChange = "2018-12-12 17:56:20 +0000";
layers = (
{
anchors = (
{
name = bottom;
position = "{518.2, -40}";
},
{
name = top;
position = "{257.8, 1188}";
}
);
layerId = "4A173D0E-7CF5-44A8-8AF0-8145C41E8E72";
paths = (
{
closed = 1;
nodes = (
"333.1 995.4 LINE",
"333.1 1061.7 OFFCURVE",
"318.3 1091.2 OFFCURVE",
"253.1 1091.2 CURVE SMOOTH",
"191.7 1091.2 LINE",
"181.6 1081.1 LINE",
"181.6 96.4 LINE SMOOTH",
"181.6 33.7 OFFCURVE",
"219.4 -0.3 OFFCURVE",
"269.1 -0.3 CURVE SMOOTH",
"333.1 -0.3 LINE"
);
},
{
closed = 1;
nodes = (
"490.7 131.2 LINE",
"404.9 131.2 OFFCURVE",
"306.1 124.6 OFFCURVE",
"214.6 109.5 CURVE",
"269.1 -0.3 LINE",
"761.1 -0.3 LINE SMOOTH",
"814.6 -0.3 OFFCURVE",
"848.8 23.5 OFFCURVE",
"857.3 70.5 CURVE SMOOTH",
"861.4 89.5 OFFCURVE",
"861.4 115.9 OFFCURVE",
"861.5 131.2 CURVE"
);
}
);
width = 914.9;
},
{
anchors = (
{
name = bottom;
position = "{521.68, -40}";
},
{
name = top;
position = "{289.12, 1188}";
}
);
layerId = "6BD0978F-C27A-4FE6-8A6F-902073A9F586";
paths = (
{
closed = 1;
nodes = (
"456.64 915.36 LINE",
"456.64 1056.48 OFFCURVE",
"393.12 1112.08 OFFCURVE",
"272.24 1112.08 CURVE SMOOTH",
"151.68 1112.08 LINE",
"139.84 1100.24 LINE",
"139.84 172.96 LINE SMOOTH",
"139.84 63.28 OFFCURVE",
"208.96 -5.52 OFFCURVE",
"323.04 -5.52 CURVE SMOOTH",
"456.64 -5.52 LINE"
);
},
{
closed = 1;
nodes = (
"642.08 256.48 LINE",
"524.96 256.48 OFFCURVE",
"342.64 239.44 OFFCURVE",
"190.24 205.2 CURVE",
"323.04 -5.52 LINE",
"710.64 -5.52 LINE SMOOTH",
"825.04 -5.52 OFFCURVE",
"897.52 49.6 OFFCURVE",
"914.72 148.8 CURVE SMOOTH",
"920.56 185.2 OFFCURVE",
"920.56 218.56 OFFCURVE",
"922.4 256.48 CURVE"
);
}
);
width = 965.36;
}
);
leftKerningGroup = b.smcp;
rightKerningGroup = l.smcp;
},
{
glyphname = m.smcp;
lastChange = "2018-12-12 17:56:20 +0000";
layers = (
{
anchors = (
{
name = bottom;
position = "{716.5, -40}";
},
{
name = top;
position = "{718.3, 1188}";
}
);
layerId = "4A173D0E-7CF5-44A8-8AF0-8145C41E8E72";
paths = (
{
closed = 1;
nodes = (
"153 2.1 LINE",
"172.3 -4.1 OFFCURVE",
"205.7 -8.2 OFFCURVE",
"231.7 -8.2 CURVE SMOOTH",
"256.9 -8.2 OFFCURVE",
"280.6 -6.1 OFFCURVE",
"303.7 -1.9 CURVE",
"356.2 633.8 LINE SMOOTH",
"362.5 707.6 OFFCURVE",
"369.8 842.7 OFFCURVE",
"369.8 920.8 CURVE",
"380 920.8 LINE",
"643.3 160.5 LINE",
"664.5 156.3 OFFCURVE",
"691.3 154.2 OFFCURVE",
"716.4 154.2 CURVE SMOOTH",
"741.4 154.2 OFFCURVE",
"770.1 156.3 OFFCURVE",
"791.5 160.5 CURVE",
"1056.7 920.8 LINE",
"1066.8 920.8 LINE",
"1066.9 842.8 OFFCURVE",
"1074.1 707.5 OFFCURVE",
"1080.4 633.9 CURVE SMOOTH",
"1133 -1.9 LINE",
"1156.1 -6.1 OFFCURVE",
"1178.1 -8.2 OFFCURVE",
"1201.4 -8.2 CURVE SMOOTH",
"1227.4 -8.2 OFFCURVE",
"1260.7 -4.1 OFFCURVE",
"1283.7 2.1 CURVE",
"1183 1085 LINE",
"1160.8 1091.3 OFFCURVE",
"1108.7 1095.3 OFFCURVE",
"1079.4 1095.3 CURVE SMOOTH",
"1048.4 1095.3 OFFCURVE",
"1000.3 1091.3 OFFCURVE",
"978 1085 CURVE",
"794.9 539.4 LINE SMOOTH",
"775.3 489.2 OFFCURVE",
"729 346.1 OFFCURVE",
"724.4 312.2 CURVE",
"716.1 312.2 LINE",
"709.6 346.1 OFFCURVE",
"661.4 489.3 OFFCURVE",
"643.7 539.4 CURVE SMOOTH",
"456.8 1085 LINE",
"431.2 1093.2 OFFCURVE",
"388.4 1095.3 OFFCURVE",
"357.3 1095.3 CURVE SMOOTH",
"326.1 1095.3 OFFCURVE",
"281.8 1093.2 OFFCURVE",
"253.7 1085 CURVE"
);
}
);
width = 1436.7;
},
{
anchors = (
{
name = bottom;
position = "{760, -40}";
},
{
name = top;
position = "{758.32, 1188}";
}
);
layerId = "6BD0978F-C27A-4FE6-8A6F-902073A9F586";
paths = (
{
closed = 1;
nodes = (
"100.8 3.84 LINE",
"142.72 -5.84 OFFCURVE",
"200.48 -11.68 OFFCURVE",
"261.28 -11.68 CURVE SMOOTH",
"307.36 -11.68 OFFCURVE",
"360.64 -7.84 OFFCURVE",
"402.88 -0.16 CURVE",
"429.28 351.92 LINE SMOOTH",
"440.8 491.84 OFFCURVE",
"435.92 680.88 OFFCURVE",
"435.92 795.52 CURVE",
"449.6 795.52 LINE",
"596.32 169.2 LINE",
"638.4 161.52 OFFCURVE",
"713.92 157.68 OFFCURVE",
"758.16 157.68 CURVE SMOOTH",
"800.56 157.68 OFFCURVE",
"876.24 161.52 OFFCURVE",
"922 169.2 CURVE",
"1068.88 795.52 LINE",
"1080.72 795.52 LINE",
"1082.56 682.72 OFFCURVE",
"1075.84 490 OFFCURVE",
"1087.36 353.76 CURVE SMOOTH",
"1115.6 -0.16 LINE",
"1157.84 -7.84 OFFCURVE",
"1214.64 -11.68 OFFCURVE",
"1260.56 -11.68 CURVE SMOOTH",
"1321.36 -11.68 OFFCURVE",
"1377.28 -5.84 OFFCURVE",
"1417.68 3.84 CURVE",
"1304.8 1102.4 LINE",
"1244.32 1113.92 OFFCURVE",
"1155.68 1117.92 OFFCURVE",
"1103.76 1117.92 CURVE SMOOTH",
"1055.36 1117.92 OFFCURVE",
"970.72 1113.92 OFFCURVE",
"908.4 1102.4 CURVE",
"810.56 668.16 LINE SMOOTH",
"797.92 614.48 OFFCURVE",
"781.2 521.84 OFFCURVE",
"766.16 420.08 CURVE",
"752.64 420.08 LINE",
"737.44 521.84 OFFCURVE",
"720.56 616.32 OFFCURVE",
"708.08 668.16 CURVE SMOOTH",
"609.92 1102.4 LINE",
"556.48 1114.08 OFFCURVE",
"464.96 1117.92 OFFCURVE",
"414.72 1117.92 CURVE SMOOTH",
"362.64 1117.92 OFFCURVE",
"278.32 1114.08 OFFCURVE",
"213.68 1102.4 CURVE"
);
}
);
width = 1518.48;
}
);
},
{
glyphname = n.smcp;
lastChange = "2018-12-12 17:56:20 +0000";
layers = (
{
anchors = (
{
name = bottom;
position = "{601.8, -40}";
},
{
name = top;
position = "{613.8, 1188}";
}
);
layerId = "4A173D0E-7CF5-44A8-8AF0-8145C41E8E72";
paths = (
{
closed = 1;
nodes = (
"181.8 0 LINE",
"207.2 -4.3 OFFCURVE",
"237 -6.3 OFFCURVE",
"254.2 -6.3 CURVE SMOOTH",
"275.3 -6.3 OFFCURVE",
"300.7 -4.3 OFFCURVE",
"328.1 0 CURVE",
"328.1 546.1 LINE SMOOTH",
"328.1 623.5 OFFCURVE",
"323.8 792.5 OFFCURVE",
"317.7 893.8 CURVE",
"333.6 896 LINE",
"358.3 1085 LINE",
"334.8 1089.4 OFFCURVE",
"292 1091.3 OFFCURVE",
"270.9 1091.3 CURVE SMOOTH",
"253.6 1091.3 OFFCURVE",
"207.2 1089 OFFCURVE",
"181.8 1084.6 CURVE"
);
},
{
closed = 1;
nodes = (
"862.8 0 LINE",
"1039.6 32.3 LINE",
"899.6 180.5 LINE",
"862.5 247.5 OFFCURVE",
"820.4 327.5 OFFCURVE",
"777.7 397.7 CURVE",
"358.3 1085 LINE",
"181.8 1063.7 LINE",
"325.6 896 LINE",
"362.7 827.3 OFFCURVE",
"404.2 754 OFFCURVE",
"446.9 683.6 CURVE SMOOTH"
);
},
{
closed = 1;
nodes = (
"1029.5 1091.4 LINE",
"972.8 1091.4 LINE SMOOTH",
"907.6 1091.4 OFFCURVE",
"892.9 1063.2 OFFCURVE",
"892.9 996.9 CURVE SMOOTH",
"892.9 536.4 LINE SMOOTH",
"892.9 455.4 OFFCURVE",
"901.5 276.8 OFFCURVE",
"909.5 182.6 CURVE",
"893.6 180.5 LINE",
"862.8 0 LINE",
"886.2 -4.4 OFFCURVE",
"931.3 -6.3 OFFCURVE",
"950.5 -6.3 CURVE SMOOTH",
"969.6 -6.3 OFFCURVE",
"1014.1 -4.1 OFFCURVE",
"1039.6 0.3 CURVE",
"1039.6 1081.2 LINE"
);
}
);
width = 1221.4;
},
{
anchors = (
{
name = bottom;
position = "{633.12, -40}";
},
{
name = top;
position = "{645.12, 1188}";
}
);
layerId = "6BD0978F-C27A-4FE6-8A6F-902073A9F586";
paths = (
{
closed = 1;
nodes = (
"143.52 0 LINE",
"193.28 -9.52 OFFCURVE",
"254.4 -11.52 OFFCURVE",
"292.48 -11.52 CURVE SMOOTH",
"332.72 -11.52 OFFCURVE",
"382.48 -9.52 OFFCURVE",
"434.24 0 CURVE",
"434.24 304.24 LINE SMOOTH",
"434.24 371.2 OFFCURVE",
"424.72 592.4 OFFCURVE",
"416.88 751.12 CURVE",
"431.04 756.8 LINE",
"502.72 1102.4 LINE",
"453.12 1113.76 OFFCURVE",
"361.6 1113.92 OFFCURVE",
"321.36 1113.92 CURVE SMOOTH",
"281.44 1113.92 OFFCURVE",
"193.28 1106.4 OFFCURVE",
"143.52 1095.04 CURVE"
);
},
{
closed = 1;
nodes = (
"772.32 0 LINE",
"1137.04 37.52 LINE",
"857.84 328.4 LINE",
"836.4 378 OFFCURVE",
"757.76 562.4 OFFCURVE",
"737.68 601.28 CURVE",
"502.72 1102.4 LINE",
"143.52 1058.48 LINE",
"423.04 756.8 LINE",
"444.48 710.72 OFFCURVE",
"512.08 545.2 OFFCURVE",
"532.16 502.64 CURVE SMOOTH"
);
},
{
closed = 1;
nodes = (
"1125.2 1115.76 LINE",
"1021.52 1115.76 LINE SMOOTH",
"900.64 1115.76 OFFCURVE",
"838.96 1084.08 OFFCURVE",
"838.96 942.96 CURVE SMOOTH",
"838.96 786.96 LINE SMOOTH",
"838.96 688.56 OFFCURVE",
"858 464.72 OFFCURVE",
"866 332.24 CURVE",
"851.84 328.4 LINE",
"772.32 0 LINE",
"820.08 -11.36 OFFCURVE",
"919.12 -11.52 OFFCURVE",
"959.2 -11.52 CURVE SMOOTH",
"997.44 -11.52 OFFCURVE",
"1085.44 -5.84 OFFCURVE",
"1137.04 5.52 CURVE",
"1137.04 1102.08 LINE"
);
}
);
width = 1280.56;
}
);
leftKerningGroup = b.smcp;
rightKerningGroup = h.smcp;
},
{
glyphname = o.smcp;
lastChange = "2018-12-12 17:56:20 +0000";
layers = (
{
anchors = (
{
name = bottom;
position = "{579.5, -40}";
},
{
name = top;
position = "{579.5, 1188}";
}
);
layerId = "4A173D0E-7CF5-44A8-8AF0-8145C41E8E72";
paths = (
{
closed = 1;
nodes = (
"249.8 739.9 OFFCURVE",
"313.7 987 OFFCURVE",
"579.6 987 CURVE SMOOTH",
"847.4 987 OFFCURVE",
"909.3 739.9 OFFCURVE",
"909.3 542.4 CURVE SMOOTH",
"909.3 345 OFFCURVE",
"847.4 98 OFFCURVE",
"579.6 98 CURVE SMOOTH",
"313.7 98 OFFCURVE",
"249.8 345 OFFCURVE",
"249.8 542.4 CURVE SMOOTH"
);
},
{
closed = 1;
nodes = (
"90.4 366.9 OFFCURVE",
"147.8 178.4 OFFCURVE",
"284.6 70 CURVE SMOOTH",
"357.1 13.7 OFFCURVE",
"445.7 -24.3 OFFCURVE",
"579.5 -24.3 CURVE SMOOTH",
"715.3 -24.3 OFFCURVE",
"803.9 13.7 OFFCURVE",
"876.4 70 CURVE SMOOTH",
"1013.2 178.4 OFFCURVE",
"1070.6 366.9 OFFCURVE",
"1070.6 542.4 CURVE SMOOTH",
"1070.6 716.2 OFFCURVE",
"1013.2 908.4 OFFCURVE",
"876.4 1016.8 CURVE SMOOTH",
"803.9 1073.1 OFFCURVE",
"715.3 1109.3 OFFCURVE",
"579.5 1109.3 CURVE SMOOTH",
"445.7 1109.3 OFFCURVE",
"357.1 1073 OFFCURVE",
"284.6 1016.7 CURVE SMOOTH",
"147.8 908.3 OFFCURVE",
"90.4 716.2 OFFCURVE",
"90.4 542.4 CURVE SMOOTH"
);
}
);
width = 1161;
},
{
anchors = (
{
name = bottom;
position = "{605.6, -40}";
},
{
name = top;
position = "{605.6, 1188}";
}
);
layerId = "6BD0978F-C27A-4FE6-8A6F-902073A9F586";
paths = (
{
closed = 1;
nodes = (
"385.52 703.36 OFFCURVE",
"412.88 900 OFFCURVE",
"607.44 900 CURVE SMOOTH",
"802.16 900 OFFCURVE",
"827.52 703.36 OFFCURVE",
"827.52 549.36 CURVE SMOOTH",
"827.52 397.2 OFFCURVE",
"802.16 202.4 OFFCURVE",
"607.44 202.4 CURVE SMOOTH",
"412.88 202.4 OFFCURVE",
"385.52 397.2 OFFCURVE",
"385.52 549.36 CURVE SMOOTH"
);
},
{
closed = 1;
nodes = (
"62.56 382.56 OFFCURVE",
"109.52 185.36 OFFCURVE",
"260.24 70 CURVE SMOOTH",
"341.44 8.48 OFFCURVE",
"440.48 -29.52 OFFCURVE",
"605.6 -29.52 CURVE SMOOTH",
"772.72 -29.52 OFFCURVE",
"871.76 8.48 OFFCURVE",
"952.96 70 CURVE SMOOTH",
"1103.68 185.36 OFFCURVE",
"1150.64 382.56 OFFCURVE",
"1150.64 549.36 CURVE SMOOTH",
"1150.64 719.68 OFFCURVE",
"1103.68 915.36 OFFCURVE",
"952.96 1030.72 CURVE SMOOTH",
"871.76 1092.24 OFFCURVE",
"772.72 1131.92 OFFCURVE",
"605.6 1131.92 CURVE SMOOTH",
"440.48 1131.92 OFFCURVE",
"341.44 1090.4 OFFCURVE",
"260.24 1028.88 CURVE SMOOTH",
"109.52 913.52 OFFCURVE",
"62.56 719.68 OFFCURVE",
"62.56 549.36 CURVE SMOOTH"
);
}
);
width = 1213.2;
}
);
leftKerningGroup = c.smcp;
rightKerningGroup = o.smcp;
},
{
glyphname = p.smcp;
lastChange = "2018-12-12 17:56:20 +0000";
layers = (
{
anchors = (
{
name = bottom;
position = "{256.8, -40}";
},
{
name = top;
position = "{516.9, 1188}";
}
);
layerId = "4A173D0E-7CF5-44A8-8AF0-8145C41E8E72";
paths = (
{
closed = 1;
nodes = (
"936.8 980.9 OFFCURVE",
"767.6 1091.2 OFFCURVE",
"535.9 1091.2 CURVE SMOOTH",
"418.6 1091.2 OFFCURVE",
"318.8 1087.1 OFFCURVE",
"191.9 1085.1 CURVE",
"181.8 1075 LINE",
"181.8 0 LINE",
"201.6 -4.3 OFFCURVE",
"232.1 -6.3 OFFCURVE",
"256.8 -6.3 CURVE SMOOTH",
"283.6 -6.3 OFFCURVE",
"311.5 -4.3 OFFCURVE",
"333.3 0 CURVE",
"333.3 970.7 LINE",
"398.2 968.7 OFFCURVE",
"479.7 968.7 OFFCURVE",
"536.3 968.7 CURVE SMOOTH",
"730.8 968.7 OFFCURVE",
"777.4 850.3 OFFCURVE",
"777.4 746.8 CURVE SMOOTH",
"777.4 646.9 OFFCURVE",
"730.8 524.8 OFFCURVE",
"536.3 524.8 CURVE SMOOTH",
"479.7 524.8 OFFCURVE",
"334.5 524.7 OFFCURVE",
"271.5 522.6 CURVE",
"271.5 402.4 LINE",
"267.7 402.4 OFFCURVE",
"463.4 402.4 OFFCURVE",
"535.9 402.4 CURVE SMOOTH",
"771.3 402.4 OFFCURVE",
"936.8 516.9 OFFCURVE",
"936.8 746.7 CURVE SMOOTH"
);
}
);
width = 992.4;
},
{
anchors = (
{
name = bottom;
position = "{305.52, -40}";
},
{
name = top;
position = "{532.56, 1188}";
}
);
layerId = "6BD0978F-C27A-4FE6-8A6F-902073A9F586";
paths = (
{
closed = 1;
nodes = (
"1020.32 996.56 OFFCURVE",
"830.24 1112.08 OFFCURVE",
"568.96 1112.08 CURVE SMOOTH",
"429.04 1112.08 OFFCURVE",
"263.12 1106.24 OFFCURVE",
"155.36 1104.24 CURVE",
"143.52 1092.4 LINE",
"143.52 0 LINE",
"194.64 -9.52 OFFCURVE",
"268.64 -11.52 OFFCURVE",
"305.52 -11.52 CURVE SMOOTH",
"346.24 -11.52 OFFCURVE",
"407.2 -9.52 OFFCURVE",
"460.32 0 CURVE",
"460.32 878.48 LINE",
"506.08 876.48 OFFCURVE",
"509.28 876.48 OFFCURVE",
"541.52 876.48 CURVE SMOOTH",
"675.12 876.48 OFFCURVE",
"697.36 785.92 OFFCURVE",
"697.36 725.92 CURVE SMOOTH",
"697.36 662.56 OFFCURVE",
"675.12 573.52 OFFCURVE",
"541.52 573.52 CURVE SMOOTH",
"509.28 573.52 OFFCURVE",
"378 571.68 OFFCURVE",
"332.4 567.84 CURVE",
"332.4 339.76 LINE",
"332.08 339.76 OFFCURVE",
"522.56 339.76 OFFCURVE",
"568.96 339.76 CURVE SMOOTH",
"828.72 339.76 OFFCURVE",
"1020.32 462.96 OFFCURVE",
"1020.32 724.08 CURVE SMOOTH"
);
}
);
width = 1068.96;
}
);
leftKerningGroup = b.smcp;
},
{
glyphname = q.smcp;
lastChange = "2018-12-12 17:56:20 +0000";
layers = (
{
anchors = (
{
name = bottom;
position = "{578.8, -40}";
},
{
name = top;
position = "{579.4, 1188}";
}
);
layerId = "4A173D0E-7CF5-44A8-8AF0-8145C41E8E72";
paths = (
{
closed = 1;
nodes = (
"845.1 -150 LINE",
"883.6 -178.9 OFFCURVE",
"919.8 -190.8 OFFCURVE",
"954.9 -190.8 CURVE SMOOTH",
"1012 -190.8 OFFCURVE",
"1071.9 -154.6 OFFCURVE",
"1072.3 -78.5 CURVE",
"1014.3 -76.4 OFFCURVE",
"961.6 -61.5 OFFCURVE",
"838.5 21.1 CURVE SMOOTH",
"752.5 78 LINE",
"591.2 27.3 LINE"
);
},
{
closed = 1;
nodes = (
"249.8 739.9 OFFCURVE",
"313.7 987 OFFCURVE",
"579.6 987 CURVE SMOOTH",
"847.4 987 OFFCURVE",
"909.3 739.9 OFFCURVE",
"909.3 542.4 CURVE SMOOTH",
"909.3 345 OFFCURVE",
"847.4 98 OFFCURVE",
"579.6 98 CURVE SMOOTH",
"313.7 98 OFFCURVE",
"249.8 345 OFFCURVE",
"249.8 542.4 CURVE SMOOTH"
);
},
{
closed = 1;
nodes = (
"90.4 366.9 OFFCURVE",
"147.8 178.4 OFFCURVE",
"284.6 70 CURVE SMOOTH",
"357.1 13.7 OFFCURVE",
"446.4 -24.3 OFFCURVE",
"580.4 -24.3 CURVE SMOOTH",
"632.6 -24.3 OFFCURVE",
"671 -9.6 OFFCURVE",
"710.7 6.7 CURVE",
"810 20.6 OFFCURVE",
"882.6 70.8 OFFCURVE",
"931.5 125.9 CURVE SMOOTH",
"1029.5 236.1 OFFCURVE",
"1070.6 390.9 OFFCURVE",
"1070.6 542.4 CURVE SMOOTH",
"1070.6 716.2 OFFCURVE",
"1013.2 908.4 OFFCURVE",
"876.4 1016.8 CURVE SMOOTH",
"803.9 1073.1 OFFCURVE",
"715.3 1109.3 OFFCURVE",
"579.5 1109.3 CURVE SMOOTH",
"445.7 1109.3 OFFCURVE",
"357.1 1073 OFFCURVE",
"284.6 1016.7 CURVE SMOOTH",
"147.8 908.3 OFFCURVE",
"90.4 716.2 OFFCURVE",
"90.4 542.4 CURVE SMOOTH"
);
}
);
width = 1163.2;
},
{
anchors = (
{
name = bottom;
position = "{592.72, -40}";
},
{
name = top;
position = "{603.76, 1188}";
}
);
layerId = "6BD0978F-C27A-4FE6-8A6F-902073A9F586";
paths = (
{
closed = 1;
nodes = (
"759.84 -150 LINE",
"841.84 -229.36 OFFCURVE",
"916.32 -239.52 OFFCURVE",
"970.56 -239.52 CURVE SMOOTH",
"1081.6 -239.52 OFFCURVE",
"1174.56 -165.04 OFFCURVE",
"1181.92 -17.6 CURVE",
"1123.92 -13.76 OFFCURVE",
"1024.24 -18 OFFCURVE",
"916.8 75.04 CURVE SMOOTH",
"830.8 147.6 LINE",
"542.48 49.92 LINE"
);
},
{
closed = 1;
nodes = (
"385.52 703.36 OFFCURVE",
"412.88 900 OFFCURVE",
"607.44 900 CURVE SMOOTH",
"802.16 900 OFFCURVE",
"827.52 703.36 OFFCURVE",
"827.52 549.36 CURVE SMOOTH",
"827.52 397.2 OFFCURVE",
"802.16 202.4 OFFCURVE",
"607.44 202.4 CURVE SMOOTH",
"412.88 202.4 OFFCURVE",
"385.52 397.2 OFFCURVE",
"385.52 549.36 CURVE SMOOTH"
);
},
{
closed = 1;
nodes = (
"62.56 382.56 OFFCURVE",
"109.52 185.36 OFFCURVE",
"260.24 70 CURVE SMOOTH",
"341.44 8.48 OFFCURVE",
"453.36 -29.52 OFFCURVE",
"622.16 -29.52 CURVE SMOOTH",
"677.84 -29.52 OFFCURVE",
"723.2 -2.64 OFFCURVE",
"757.68 18.88 CURVE",
"879.6 31.04 OFFCURVE",
"962.64 84.72 OFFCURVE",
"1027.2 158.96 CURVE SMOOTH",
"1125.2 272.64 OFFCURVE",
"1150.64 406.56 OFFCURVE",
"1150.64 549.36 CURVE SMOOTH",
"1150.64 719.68 OFFCURVE",
"1103.68 915.36 OFFCURVE",
"952.96 1030.72 CURVE SMOOTH",
"871.76 1092.24 OFFCURVE",
"772.72 1131.92 OFFCURVE",
"605.6 1131.92 CURVE SMOOTH",
"440.48 1131.92 OFFCURVE",
"341.44 1090.4 OFFCURVE",
"260.24 1028.88 CURVE SMOOTH",
"109.52 913.52 OFFCURVE",
"62.56 719.68 OFFCURVE",
"62.56 549.36 CURVE SMOOTH"
);
}
);
width = 1218.88;
}
);
leftKerningGroup = c.smcp;
rightKerningGroup = o.smcp;
},
{
glyphname = r.smcp;
lastChange = "2018-12-12 17:56:20 +0000";
layers = (
{
anchors = (
{
name = bottom;
position = "{542.3, -40}";
},
{
name = top;
position = "{533.3, 1188}";
}
);
layerId = "4A173D0E-7CF5-44A8-8AF0-8145C41E8E72";
paths = (
{
closed = 1;
nodes = (
"953.1 973.2 OFFCURVE",
"807.6 1091.2 OFFCURVE",
"558.1 1091.2 CURVE SMOOTH",
"435.1 1091.2 OFFCURVE",
"321.7 1089.1 OFFCURVE",
"191.9 1085.1 CURVE",
"181.8 1075 LINE",
"181.8 0 LINE",
"201.6 -4.3 OFFCURVE",
"231.9 -6.3 OFFCURVE",
"256.6 -6.3 CURVE SMOOTH",
"283.4 -6.3 OFFCURVE",
"311.3 -4.3 OFFCURVE",
"333.1 0 CURVE",
"333.1 971.1 LINE",
"398.1 969.2 OFFCURVE",
"496.1 969.1 OFFCURVE",
"553.5 969.1 CURVE SMOOTH",
"744.3 969.1 OFFCURVE",
"793.7 865.8 OFFCURVE",
"793.7 773.2 CURVE SMOOTH",
"793.7 684.3 OFFCURVE",
"744.6 573.2 OFFCURVE",
"552.7 573.2 CURVE SMOOTH",
"478.8 573.2 OFFCURVE",
"369.1 571.1 OFFCURVE",
"270.7 569.2 CURVE",
"270.7 448.6 LINE",
"501.7 448.6 LINE SMOOTH",
"618.7 448.6 OFFCURVE",
"660.5 397.3 OFFCURVE",
"696.1 314.3 CURVE SMOOTH",
"799.2 80.2 LINE SMOOTH",
"824.2 22 OFFCURVE",
"845.8 -10.5 OFFCURVE",
"903.6 -10.5 CURVE SMOOTH",
"940.7 -10.5 OFFCURVE",
"983.1 5.4 OFFCURVE",
"1004.1 36.4 CURVE",
"977.5 62.7 OFFCURVE",
"953.1 110.7 OFFCURVE",
"929.1 162.8 CURVE SMOOTH",
"841.2 358.4 LINE SMOOTH",
"814.7 419.4 OFFCURVE",
"782 463.6 OFFCURVE",
"717.6 489.5 CURVE",
"853.8 522.9 OFFCURVE",
"953.1 634.8 OFFCURVE",
"953.1 773.6 CURVE SMOOTH"
);
}
);
width = 1068.1;
},
{
anchors = (
{
name = bottom;
position = "{582.32, -40}";
},
{
name = top;
position = "{555.92, 1188}";
}
);
layerId = "6BD0978F-C27A-4FE6-8A6F-902073A9F586";
paths = (
{
closed = 1;
nodes = (
"1041.84 1028.88 OFFCURVE",
"835.44 1112.08 OFFCURVE",
"594.64 1112.08 CURVE SMOOTH",
"454.24 1112.08 OFFCURVE",
"316.48 1108.24 OFFCURVE",
"155.36 1104.24 CURVE",
"143.52 1092.4 LINE",
"143.52 0 LINE",
"194.64 -9.52 OFFCURVE",
"264.96 -11.52 OFFCURVE",
"301.84 -11.52 CURVE SMOOTH",
"342.56 -11.52 OFFCURVE",
"403.52 -9.52 OFFCURVE",
"456.64 0 CURVE",
"456.64 885.84 LINE",
"504.24 885.68 OFFCURVE",
"532.64 883.84 OFFCURVE",
"579.6 883.84 CURVE SMOOTH",
"679.92 883.84 OFFCURVE",
"718.88 827.52 OFFCURVE",
"718.88 759.28 CURVE SMOOTH",
"718.88 689.52 OFFCURVE",
"685.44 628.88 OFFCURVE",
"564.88 628.88 CURVE SMOOTH",
"527.52 628.88 OFFCURVE",
"388.24 625.04 OFFCURVE",
"317.68 624.88 CURVE",
"317.68 389.44 LINE",
"496.48 389.44 LINE SMOOTH",
"561.28 389.44 OFFCURVE",
"599.6 385.12 OFFCURVE",
"628.24 319.52 CURVE SMOOTH",
"715.68 118.48 LINE SMOOTH",
"758.08 22 OFFCURVE",
"807.52 -19.2 OFFCURVE",
"896.64 -19.2 CURVE SMOOTH",
"987.68 -19.2 OFFCURVE",
"1071.84 29.76 OFFCURVE",
"1110.24 78.16 CURVE",
"1073.2 109.68 OFFCURVE",
"1041.84 157.68 OFFCURVE",
"1017.84 211.52 CURVE SMOOTH",
"966.48 330.56 LINE SMOOTH",
"931.28 408.96 OFFCURVE",
"886.4 456.64 OFFCURVE",
"815.04 480.8 CURVE",
"919.92 503.76 OFFCURVE",
"1041.84 613.92 OFFCURVE",
"1041.84 766.64 CURVE SMOOTH"
);
}
);
width = 1139.44;
}
);
leftKerningGroup = b.smcp;
rightKerningGroup = r.smcp;
},
{
glyphname = s.smcp;
lastChange = "2018-12-12 17:56:20 +0000";
layers = (
{
anchors = (
{
name = bottom;
position = "{491, -40}";
},
{
name = top;
position = "{478.2, 1188}";
}
);
layerId = "4A173D0E-7CF5-44A8-8AF0-8145C41E8E72";
paths = (
{
closed = 1;
nodes = (
"156.1 37.5 OFFCURVE",
"303.5 -26.2 OFFCURVE",
"496.7 -24.3 CURVE SMOOTH",
"753 -20.5 OFFCURVE",
"903.8 112.9 OFFCURVE",
"903.8 299.2 CURVE SMOOTH",
"903.8 446.5 OFFCURVE",
"780.2 543.6 OFFCURVE",
"632.1 594.5 CURVE SMOOTH",
"420.2 667.9 LINE SMOOTH",
"309.5 706.8 OFFCURVE",
"254.3 737.9 OFFCURVE",
"254.3 815.7 CURVE SMOOTH",
"254.3 912.5 OFFCURVE",
"335.8 978.6 OFFCURVE",
"468.2 980.5 CURVE SMOOTH",
"568 982.4 OFFCURVE",
"696.1 954.1 OFFCURVE",
"796.2 910.1 CURVE",
"830 937.4 OFFCURVE",
"851.1 984.3 OFFCURVE",
"851.1 1028.9 CURVE",
"756.5 1071.1 OFFCURVE",
"611.2 1111.2 OFFCURVE",
"472.2 1109.3 CURVE SMOOTH",
"228.6 1105.5 OFFCURVE",
"96.3 967.2 OFFCURVE",
"96.3 802.7 CURVE SMOOTH",
"96.3 670.5 OFFCURVE",
"183.3 586.1 OFFCURVE",
"343 533.8 CURVE SMOOTH",
"564.4 460.3 LINE SMOOTH",
"679.8 423 OFFCURVE",
"743.5 357.1 OFFCURVE",
"743.5 275.7 CURVE SMOOTH",
"743.5 170.5 OFFCURVE",
"629 102.6 OFFCURVE",
"500.1 100.7 CURVE SMOOTH",
"344.2 98.8 OFFCURVE",
"223.5 157.9 OFFCURVE",
"131 210 CURVE",
"97.3 187 OFFCURVE",
"68.1 137.3 OFFCURVE",
"66.2 93.4 CURVE"
);
}
);
width = 974.5;
},
{
anchors = (
{
name = bottom;
position = "{508.4, -40}";
},
{
name = top;
position = "{516.48, 1188}";
}
);
layerId = "6BD0978F-C27A-4FE6-8A6F-902073A9F586";
paths = (
{
closed = 1;
nodes = (
"123.04 28.8 OFFCURVE",
"294.8 -29.68 OFFCURVE",
"508.88 -29.52 CURVE SMOOTH",
"770.4 -29.2 OFFCURVE",
"969.92 93.76 OFFCURVE",
"969.92 320.08 CURVE SMOOTH",
"969.92 490 OFFCURVE",
"853.28 606.24 OFFCURVE",
"668.64 672.8 CURVE SMOOTH",
"493.28 735.76 LINE SMOOTH",
"440 755.52 OFFCURVE",
"398.72 770.96 OFFCURVE",
"398.72 810.48 CURVE SMOOTH",
"398.72 851.6 OFFCURVE",
"436.72 884.64 OFFCURVE",
"506.48 884.8 CURVE SMOOTH",
"602.8 884.96 OFFCURVE",
"732.64 851.44 OFFCURVE",
"834.48 807.44 CURVE",
"899.6 857.36 OFFCURVE",
"939.84 954.72 OFFCURVE",
"939.84 1044.56 CURVE",
"834.8 1090.24 OFFCURVE",
"666.88 1132.08 OFFCURVE",
"510.48 1131.92 CURVE SMOOTH",
"239.04 1131.6 OFFCURVE",
"66.72 988.08 OFFCURVE",
"66.72 780.08 CURVE SMOOTH",
"66.72 609.6 OFFCURVE",
"205.92 518.24 OFFCURVE",
"360.4 460.72 CURVE SMOOTH",
"536.56 395.92 LINE SMOOTH",
"606.72 370.8 OFFCURVE",
"630.4 341.44 OFFCURVE",
"630.4 305.28 CURVE SMOOTH",
"630.4 248.8 OFFCURVE",
"576.8 217.44 OFFCURVE",
"501.84 217.28 CURVE SMOOTH",
"382.48 217.12 OFFCURVE",
"249.6 260.56 OFFCURVE",
"148.4 314.4 CURVE",
"85.12 274 OFFCURVE",
"35.04 159.92 OFFCURVE",
"34.88 82.96 CURVE"
);
}
);
width = 1018;
}
);
leftKerningGroup = s.smcp;
rightKerningGroup = s.smcp;
},
{
glyphname = t.smcp;
lastChange = "2018-12-12 17:56:20 +0000";
layers = (
{
anchors = (
{
name = bottom;
position = "{430.3, -40}";
},
{
name = top;
position = "{430.3, 1188}";
}
);
layerId = "4A173D0E-7CF5-44A8-8AF0-8145C41E8E72";
paths = (
{
closed = 1;
nodes = (
"254.8 957.6 LINE",
"279 957.6 OFFCURVE",
"331.3 959.6 OFFCURVE",
"355.5 959.6 CURVE SMOOTH",
"503.2 959.6 LINE",
"525.4 959.6 OFFCURVE",
"581.3 957.6 OFFCURVE",
"603.6 957.6 CURVE",
"745.8 957.6 LINE",
"814.3 957.6 OFFCURVE",
"831.8 981.1 OFFCURVE",
"831.8 1025.7 CURVE SMOOTH",
"831.8 1042.4 OFFCURVE",
"827.8 1067.9 OFFCURVE",
"821.6 1085 CURVE",
"31 1085 LINE",
"26.7 1063.6 OFFCURVE",
"24.7 1040 OFFCURVE",
"24.7 1021.1 CURVE SMOOTH",
"24.7 1002.2 OFFCURVE",
"26.7 979.1 OFFCURVE",
"31 957.6 CURVE"
);
},
{
closed = 1;
nodes = (
"353.6 0 LINE",
"374.9 -4.2 OFFCURVE",
"405.3 -6.3 OFFCURVE",
"430.3 -6.3 CURVE SMOOTH",
"455.4 -6.3 OFFCURVE",
"484.2 -4.2 OFFCURVE",
"505.1 0 CURVE",
"505.1 841.4 LINE",
"505.1 883.5 OFFCURVE",
"503.1 915.5 OFFCURVE",
"503.1 959.6 CURVE",
"503.1 1021.2 LINE",
"355.6 1021.2 LINE",
"355.6 959.6 LINE",
"355.6 915.5 OFFCURVE",
"353.6 883.5 OFFCURVE",
"353.6 841.4 CURVE"
);
}
);
width = 850.2;
},
{
anchors = (
{
name = bottom;
position = "{470.32, -40}";
},
{
name = top;
position = "{470.32, 1188}";
}
);
layerId = "6BD0978F-C27A-4FE6-8A6F-902073A9F586";
paths = (
{
closed = 1;
nodes = (
"199.12 846.24 LINE",
"226.8 846.24 OFFCURVE",
"284.32 848.24 OFFCURVE",
"312 848.24 CURVE SMOOTH",
"628.48 848.24 LINE",
"654.16 848.24 OFFCURVE",
"708.32 846.24 OFFCURVE",
"735.84 846.24 CURVE",
"777.12 846.24 LINE",
"889.12 846.24 OFFCURVE",
"932.72 895.84 OFFCURVE",
"932.72 985.68 CURVE SMOOTH",
"932.72 1014.56 OFFCURVE",
"928.72 1066.16 OFFCURVE",
"919.04 1102.4 CURVE",
"13.6 1102.4 LINE",
"4.08 1056.64 OFFCURVE",
"2.08 1005.2 OFFCURVE",
"2.08 970.64 CURVE SMOOTH",
"2.08 936.08 OFFCURVE",
"4.08 893.84 OFFCURVE",
"13.6 846.24 CURVE"
);
},
{
closed = 1;
nodes = (
"311.84 0 LINE",
"355.76 -7.68 OFFCURVE",
"427.92 -11.52 OFFCURVE",
"470.32 -11.52 CURVE SMOOTH",
"514.56 -11.52 OFFCURVE",
"592.08 -7.68 OFFCURVE",
"628.64 0 CURVE",
"628.64 726.56 LINE",
"628.64 770.4 OFFCURVE",
"626.64 802.4 OFFCURVE",
"626.64 848.24 CURVE",
"626.64 972.48 LINE",
"313.84 972.48 LINE",
"313.84 848.24 LINE",
"313.84 802.4 OFFCURVE",
"311.84 770.4 OFFCURVE",
"311.84 726.56 CURVE"
);
}
);
width = 923.28;
}
);
leftKerningGroup = t.smcp;
rightKerningGroup = t.smcp;
},
{
glyphname = u.smcp;
lastChange = "2018-12-12 17:56:20 +0000";
layers = (
{
anchors = (
{
name = bottom;
position = "{600.7, -40}";
},
{
name = top;
position = "{596.5, 1188}";
}
);
layerId = "4A173D0E-7CF5-44A8-8AF0-8145C41E8E72";
paths = (
{
closed = 1;
nodes = (
"1037.7 1084.9 LINE",
"1016 1089.3 OFFCURVE",
"985.5 1091.3 OFFCURVE",
"958.9 1091.3 CURVE SMOOTH",
"934 1091.3 OFFCURVE",
"906.1 1089.3 OFFCURVE",
"886.2 1085 CURVE",
"886.2 376.2 LINE",
"886.2 195.6 OFFCURVE",
"785.6 98.9 OFFCURVE",
"600.7 98.9 CURVE",
"417.8 98.9 OFFCURVE",
"315.2 195.6 OFFCURVE",
"315.2 376.2 CURVE SMOOTH",
"315.2 993.4 LINE SMOOTH",
"315.2 1059.9 OFFCURVE",
"298.2 1091.3 OFFCURVE",
"233 1091.3 CURVE SMOOTH",
"173.8 1091.3 LINE",
"163.7 1081.2 LINE",
"163.7 376.1 LINE SMOOTH",
"163.7 111.5 OFFCURVE",
"341.1 -24.3 OFFCURVE",
"600.7 -24.3 CURVE",
"862.2 -24.3 OFFCURVE",
"1037.7 111.5 OFFCURVE",
"1037.7 376.1 CURVE"
);
}
);
width = 1201.4;
},
{
anchors = (
{
name = bottom;
position = "{612.88, -40}";
},
{
name = top;
position = "{605.2, 1188}";
}
);
layerId = "6BD0978F-C27A-4FE6-8A6F-902073A9F586";
paths = (
{
closed = 1;
nodes = (
"1102.08 1100.56 LINE",
"1050.8 1111.92 OFFCURVE",
"976.8 1113.92 OFFCURVE",
"939.76 1113.92 CURVE SMOOTH",
"899.2 1113.92 OFFCURVE",
"838.24 1111.92 OFFCURVE",
"785.28 1102.4 CURVE",
"785.28 414.48 LINE",
"785.28 293.04 OFFCURVE",
"743.84 218.96 OFFCURVE",
"612.88 218.96 CURVE",
"483.92 218.96 OFFCURVE",
"440.48 293.04 OFFCURVE",
"440.48 414.48 CURVE SMOOTH",
"440.48 913.36 LINE SMOOTH",
"440.48 1058.16 OFFCURVE",
"371.28 1113.92 OFFCURVE",
"250.4 1113.92 CURVE SMOOTH",
"135.52 1113.92 LINE",
"123.68 1102.08 LINE",
"123.68 412.64 LINE SMOOTH",
"123.68 137.6 OFFCURVE",
"290.64 -29.52 OFFCURVE",
"612.88 -29.52 CURVE",
"935.28 -29.52 OFFCURVE",
"1102.08 137.6 OFFCURVE",
"1102.08 412.64 CURVE"
);
}
);
width = 1225.76;
}
);
leftKerningGroup = u.smcp;
rightKerningGroup = u.smcp;
},
{
glyphname = v.smcp;
lastChange = "2018-12-12 17:56:20 +0000";
layers = (
{
anchors = (
{
name = bottom;
position = "{504.9, -40}";
},
{
name = top;
position = "{505, 1188}";
}
);
layerId = "4A173D0E-7CF5-44A8-8AF0-8145C41E8E72";
paths = (
{
closed = 1;
nodes = (
"513.3 135.8 LINE",
"507.1 135.8 OFFCURVE",
"503 137.6 OFFCURVE",
"499 150 CURVE SMOOTH",
"475 233.3 OFFCURVE",
"437.8 352.5 OFFCURVE",
"413.4 428.4 CURVE SMOOTH",
"214.7 1024.7 LINE SMOOTH",
"195.9 1083.6 OFFCURVE",
"168.7 1097.1 OFFCURVE",
"131.3 1097.1 CURVE SMOOTH",
"99.5 1097.1 OFFCURVE",
"67.8 1088.8 OFFCURVE",
"38.3 1076.2 CURVE",
"377.2 65.4 LINE SMOOTH",
"397.9 0.6 OFFCURVE",
"434.1 -8.2 OFFCURVE",
"483.3 -8.2 CURVE SMOOTH",
"521.7 -8.2 OFFCURVE",
"558 -6.2 OFFCURVE",
"595.3 -1.9 CURVE",
"961.1 1072.3 LINE",
"954.7 1082.6 LINE",
"934.4 1091.1 OFFCURVE",
"903.2 1093.2 OFFCURVE",
"883.6 1093.2 CURVE SMOOTH",
"866.3 1093.2 OFFCURVE",
"843.7 1091.2 OFFCURVE",
"822.2 1085 CURVE"
);
}
);
width = 988;
},
{
anchors = (
{
name = bottom;
position = "{555.36, -40}";
},
{
name = top;
position = "{557.2, 1188}";
}
);
layerId = "6BD0978F-C27A-4FE6-8A6F-902073A9F586";
paths = (
{
closed = 1;
nodes = (
"570.72 236.72 LINE",
"561.04 236.72 OFFCURVE",
"555.2 235.04 OFFCURVE",
"551.2 254.4 CURVE SMOOTH",
"527.2 395.12 OFFCURVE",
"503.92 500.4 OFFCURVE",
"472.56 609.36 CURVE SMOOTH",
"366.08 967.28 LINE SMOOTH",
"333.36 1076.64 OFFCURVE",
"285.28 1116.24 OFFCURVE",
"188.72 1116.24 CURVE SMOOTH",
"125.6 1116.24 OFFCURVE",
"64.32 1102.72 OFFCURVE",
"8.72 1079.68 CURVE",
"293.68 124.56 LINE SMOOTH",
"326.56 11.04 OFFCURVE",
"401.04 -11.68 OFFCURVE",
"505.92 -11.68 CURVE SMOOTH",
"586.08 -11.68 OFFCURVE",
"697.2 -9.68 OFFCURVE",
"757.12 -0.16 CURVE",
"1084.64 1077.52 LINE",
"1071.28 1093.04 LINE",
"1010.96 1110.24 OFFCURVE",
"958.88 1114.08 OFFCURVE",
"911.44 1114.08 CURVE SMOOTH",
"871.52 1114.08 OFFCURVE",
"838.48 1112.08 OFFCURVE",
"790.88 1102.4 CURVE"
);
}
);
width = 1092.4;
}
);
},
{
glyphname = w.smcp;
lastChange = "2018-12-12 17:56:20 +0000";
layers = (
{
anchors = (
{
name = bottom;
position = "{745.1, -40}";
},
{
name = top;
position = "{745.1, 1188}";
}
);
layerId = "4A173D0E-7CF5-44A8-8AF0-8145C41E8E72";
paths = (
{
closed = 1;
nodes = (
"296.5 69 LINE",
"311.1 3.9 OFFCURVE",
"354.7 -8.3 OFFCURVE",
"399.8 -8.3 CURVE SMOOTH",
"436.7 -8.3 OFFCURVE",
"490.1 -6.2 OFFCURVE",
"527.6 0 CURVE",
"652.7 519 LINE SMOOTH",
"676.7 621.1 OFFCURVE",
"711.8 779.1 OFFCURVE",
"740.7 923.4 CURVE",
"750.9 923.4 LINE",
"777.8 779.1 OFFCURVE",
"811 615.3 OFFCURVE",
"831.1 519 CURVE SMOOTH",
"930.4 65.2 LINE SMOOTH",
"942.8 3.9 OFFCURVE",
"977.4 -8.5 OFFCURVE",
"1022 -8.5 CURVE SMOOTH",
"1058.6 -8.5 OFFCURVE",
"1120 -6.3 OFFCURVE",
"1157.3 1.9 CURVE",
"1423.3 1073.9 LINE",
"1414.9 1082.4 LINE",
"1391.8 1088.9 OFFCURVE",
"1369.7 1091.2 OFFCURVE",
"1342.3 1091.2 CURVE SMOOTH",
"1319.2 1091.2 OFFCURVE",
"1292.2 1089.3 OFFCURVE",
"1270.6 1084.9 CURVE",
"1123.3 444.1 LINE SMOOTH",
"1105.4 369.3 OFFCURVE",
"1074.3 223 OFFCURVE",
"1054.9 121.6 CURVE",
"1046.8 121.6 OFFCURVE",
"1044.6 123.4 OFFCURVE",
"1040.6 139.9 CURVE SMOOTH",
"844.5 1070.9 LINE",
"822.3 1075.2 OFFCURVE",
"775 1077.3 OFFCURVE",
"747 1077.3 CURVE SMOOTH",
"720.9 1077.3 OFFCURVE",
"677.2 1075.2 OFFCURVE",
"649.4 1070.9 CURVE",
"433.8 121.6 LINE",
"425.5 121.6 OFFCURVE",
"423.5 123.6 OFFCURVE",
"419.6 139.9 CURVE SMOOTH",
"403.9 216.4 OFFCURVE",
"374.7 369.6 OFFCURVE",
"358.8 443.9 CURVE SMOOTH",
"235.9 1019.4 LINE SMOOTH",
"223.2 1075.7 OFFCURVE",
"204.4 1097.1 OFFCURVE",
"160.6 1097.1 CURVE SMOOTH",
"133 1097.1 OFFCURVE",
"96.8 1088.9 OFFCURVE",
"69.8 1076.6 CURVE"
);
}
);
width = 1476.3;
},
{
anchors = (
{
name = bottom;
position = "{833.84, -40}";
},
{
name = top;
position = "{833.84, 1188}";
}
);
layerId = "6BD0978F-C27A-4FE6-8A6F-902073A9F586";
paths = (
{
closed = 1;
nodes = (
"235.6 121.2 LINE",
"260.64 2.16 OFFCURVE",
"332.08 -13.52 OFFCURVE",
"431.12 -13.52 CURVE SMOOTH",
"518.48 -13.52 OFFCURVE",
"631.04 -9.68 OFFCURVE",
"694.64 0 CURVE",
"769.28 432 LINE SMOOTH",
"793.28 570.64 OFFCURVE",
"812.72 728.64 OFFCURVE",
"822.48 808.56 CURVE",
"836.16 808.56 LINE",
"843.92 728.64 OFFCURVE",
"863.2 568.32 OFFCURVE",
"885.04 432 CURVE SMOOTH",
"937.36 120.88 LINE SMOOTH",
"956.72 2.16 OFFCURVE",
"1036.56 -17.2 OFFCURVE",
"1126.4 -17.2 CURVE SMOOTH",
"1208.24 -17.2 OFFCURVE",
"1328.8 -11.52 OFFCURVE",
"1388.72 0.16 CURVE",
"1619.92 1072.16 LINE",
"1604.56 1089.36 LINE",
"1562.32 1104.56 OFFCURVE",
"1503.68 1112.08 OFFCURVE",
"1451.92 1112.08 CURVE SMOOTH",
"1409.68 1112.08 OFFCURVE",
"1365.28 1111.92 OFFCURVE",
"1315.84 1100.56 CURVE",
"1215.52 550.24 LINE SMOOTH",
"1199.36 461.52 OFFCURVE",
"1183.92 344.8 OFFCURVE",
"1174.96 253.84 CURVE",
"1165.12 253.84 OFFCURVE",
"1159.44 252.16 OFFCURVE",
"1155.44 277.36 CURVE SMOOTH",
"1027.2 1086.56 LINE",
"966.72 1096.08 OFFCURVE",
"896.8 1099.92 OFFCURVE",
"834 1099.92 CURVE SMOOTH",
"771.36 1099.92 OFFCURVE",
"698.08 1096.08 OFFCURVE",
"638.96 1086.56 CURVE",
"499.92 253.84 LINE",
"486.4 253.84 OFFCURVE",
"484.4 255.84 OFFCURVE",
"482.24 277.36 CURVE SMOOTH",
"471.76 362.56 OFFCURVE",
"456.48 467.04 OFFCURVE",
"442.32 546.56 CURVE SMOOTH",
"373.36 939.36 LINE SMOOTH",
"348.48 1070.48 OFFCURVE",
"315.76 1116.24 OFFCURVE",
"205.84 1116.24 CURVE SMOOTH",
"150.4 1116.24 OFFCURVE",
"75.92 1104.56 OFFCURVE",
"31.52 1087.04 CURVE"
);
}
);
width = 1655.52;
}
);
leftKerningGroup = w.smcp;
rightKerningGroup = w.smcp;
},
{
glyphname = x.smcp;
lastChange = "2018-12-12 17:56:20 +0000";
layers = (
{
anchors = (
{
name = bottom;
position = "{498.8, -40}";
},
{
name = top;
position = "{505.1, 1188}";
}
);
layerId = "4A173D0E-7CF5-44A8-8AF0-8145C41E8E72";
paths = (
{
closed = 1;
nodes = (
"771.1 49.4 LINE",
"800.7 5.1 OFFCURVE",
"830.1 -12.2 OFFCURVE",
"867 -12.2 CURVE SMOOTH",
"903.4 -12.2 OFFCURVE",
"940.7 -0.3 OFFCURVE",
"969.7 25.4 CURVE",
"280.3 1035.6 LINE SMOOTH",
"250.6 1078.1 OFFCURVE",
"225.2 1097.2 OFFCURVE",
"182.7 1097.2 CURVE SMOOTH",
"148 1097.2 OFFCURVE",
"116.7 1087.1 OFFCURVE",
"82 1063.4 CURVE"
);
},
{
closed = 1;
nodes = (
"492 665.1 LINE",
"430.6 605.5 LINE",
"30.7 16.5 LINE",
"36.9 6.2 LINE",
"54.7 -2.2 OFFCURVE",
"83.9 -8.2 OFFCURVE",
"115.7 -8.2 CURVE SMOOTH",
"137.1 -8.2 OFFCURVE",
"166.5 -4.2 OFFCURVE",
"180 0 CURVE",
"509.7 489 LINE",
"565.1 542.8 LINE",
"925.5 1070.4 LINE",
"919.7 1080.7 LINE",
"901.7 1089.1 OFFCURVE",
"871.6 1093.2 OFFCURVE",
"842.9 1093.2 CURVE SMOOTH",
"821.1 1093.2 OFFCURVE",
"792.5 1089.4 OFFCURVE",
"778.6 1085 CURVE"
);
}
);
width = 998.5;
},
{
anchors = (
{
name = bottom;
position = "{547.52, -40}";
},
{
name = top;
position = "{559.04, 1188}";
}
);
layerId = "6BD0978F-C27A-4FE6-8A6F-902073A9F586";
paths = (
{
closed = 1;
nodes = (
"685.84 108.56 LINE",
"743.28 24.24 OFFCURVE",
"797.04 -15.68 OFFCURVE",
"884.4 -15.68 CURVE SMOOTH",
"927.76 -15.68 OFFCURVE",
"1022.48 -5.52 OFFCURVE",
"1103.68 49.76 CURVE",
"459.52 993.84 LINE SMOOTH",
"400.24 1079.84 OFFCURVE",
"350.48 1118.08 OFFCURVE",
"264.48 1118.08 CURVE SMOOTH",
"217.6 1118.08 OFFCURVE",
"128.88 1106.24 OFFCURVE",
"47.2 1052.96 CURVE"
);
},
{
closed = 1;
nodes = (
"526.8 753.84 LINE",
"406.24 631.6 LINE",
"8.08 25.2 LINE",
"17.76 9.68 LINE",
"66.88 -5.68 OFFCURVE",
"116.96 -11.68 OFFCURVE",
"180.08 -11.68 CURVE SMOOTH",
"225.84 -11.68 OFFCURVE",
"279.6 -7.68 OFFCURVE",
"319.2 0 CURVE",
"574.08 402 LINE",
"688.64 521.92 LINE",
"1056 1077.36 LINE",
"1053.68 1092.88 LINE",
"1000.88 1108.24 OFFCURVE",
"934.24 1114.08 OFFCURVE",
"893.36 1114.08 CURVE SMOOTH",
"840.24 1114.08 OFFCURVE",
"801.2 1113.76 OFFCURVE",
"754.24 1102.4 CURVE"
);
}
);
width = 1111.6;
}
);
},
